<?xml version="1.0" encoding="UTF-8"?>
<svg xmlns="http://www.w3.org/2000/svg" width="1280" height="720" viewBox="0 0 1280 720">
  <rect width="100%" height="100%" fill="white"/>
  <g class="axes">
    <defs>
      <clipPath id="clip-60-40">
        <rect x="60" y="40" width="1180" height="630"/>
      </clipPath>
    </defs>
    <g class="grid" stroke="#d9d9d9" stroke-width="1" stroke-dasharray="4,2">
      <line x1="113.6" y1="40" x2="113.6" y2="670"/>
      <line x1="652.7" y1="40" x2="652.7" y2="670"/>
      <line x1="1192" y1="40" x2="1192" y2="670"/>
      <line x1="60" y1="641.4" x2="1240" y2="641.4"/>
      <line x1="60" y1="329.3" x2="1240" y2="329.3"/>
    </g>
    <rect x="60" y="40" width="1180" height="630" fill="none" stroke="#000" stroke-width="1"/>
    <g clip-path="url(#clip-60-40)">
    <polyline fill="none" stroke="rgb(31,119,180)" stroke-width="2" stroke-opacity="1" stroke-linejoin="round" stroke-linecap="round" points="113.6,641.4 119,634.1 124.4,626.9 129.8,619.7 135.2,612.4 140.6,605.2 146,598 151.4,590.8 156.8,583.6 162.2,576.4 167.5,569.3 172.9,562.1 178.3,555 183.7,547.9 189.1,540.8 194.5,533.7 199.9,526.7 205.3,519.7 210.7,512.7 216.1,505.8 221.4,498.9 226.8,492 232.2,485.1 237.6,478.3 243,471.5 248.4,464.8 253.8,458.1 259.2,451.4 264.6,444.8 270,438.3 275.4,431.7 280.7,425.3 286.1,418.8 291.5,412.5 296.9,406.1 302.3,399.9 307.7,393.6 313.1,387.5 318.5,381.4 323.9,375.3 329.3,369.3 334.7,363.4 340,357.5 345.4,351.7 350.8,346 356.2,340.3 361.6,334.6 367,329.1 372.4,323.6 377.8,318.2 383.2,312.8 388.6,307.5 393.9,302.3 399.3,297.1 404.7,292 410.1,287 415.5,282 420.9,277.2 426.3,272.4 431.7,267.6 437.1,263 442.5,258.4 447.9,253.8 453.2,249.4 458.6,245 464,240.7 469.4,236.5 474.8,232.3 480.2,228.3 485.6,224.3 491,220.3 496.4,216.5 501.8,212.7 507.1,209 512.5,205.3 517.9,201.8 523.3,198.3 528.7,194.8 534.1,191.5 539.5,188.2 544.9,185 550.3,181.9 555.7,178.8 561.1,175.8 566.4,172.9 571.8,170.1 577.2,167.3 582.6,164.5 588,161.9 593.4,159.3 598.8,156.8 604.2,154.4 609.6,152 615,149.6 620.4,147.4 625.7,145.2 631.1,143.1 636.5,141 641.9,139 647.3,137 652.7,135.1 658.1,133.3 663.5,131.5 668.9,129.8 674.3,128.1 679.6,126.5 685,124.9 690.4,123.4 695.8,122 701.2,120.5 706.6,119.2 712,117.9 717.4,116.6 722.8,115.4 728.2,114.2 733.6,113 738.9,111.9 744.3,110.9 749.7,109.9 755.1,108.9 760.5,107.9 765.9,107 771.3,106.2 776.7,105.3 782.1,104.5 787.5,103.7 792.9,103 798.2,102.3 803.6,101.6 809,100.9 814.4,100.3 819.8,99.68 825.2,99.1 830.6,98.53 836,97.99 841.4,97.46 846.8,96.96 852.1,96.47 857.5,96 862.9,95.55 868.3,95.11 873.7,94.68 879.1,94.27 884.5,93.86 889.9,93.47 895.3,93.09 900.7,92.72 906.1,92.35 911.4,91.99 916.8,91.64 922.2,91.29 927.6,90.95 933,90.61 938.4,90.27 943.8,89.93 949.2,89.6 954.6,89.26 960,88.92 965.3,88.59 970.7,88.25 976.1,87.91 981.5,87.56 986.9,87.21 992.3,86.86 997.7,86.5 1003,86.14 1008,85.77 1014,85.39 1019,85.01 1025,84.62 1030,84.22 1035,83.82 1041,83.4 1046,82.98 1052,82.55 1057,82.11 1062,81.66 1068,81.2 1073,80.73 1079,80.25 1084,79.76 1089,79.26 1095,78.75 1100,78.23 1106,77.7 1111,77.16 1116,76.61 1122,76.05 1127,75.48 1132,74.9 1138,74.31 1143,73.72 1149,73.11 1154,72.49 1159,71.87 1165,71.24 1170,70.6 1176,69.95 1181,69.3 1186,68.64"/>
    <polyline fill="none" stroke="rgb(255,126,14)" stroke-width="2" stroke-opacity="1" stroke-linejoin="round" stroke-linecap="round" points="113.6,641.4 119,634.1 124.4,626.9 129.8,619.7 135.2,612.4 140.6,605.2 146,598 151.4,590.8 156.8,583.6 162.2,576.4 167.5,569.3 172.9,562.1 178.3,555 183.7,547.9 189.1,540.8 194.5,533.7 199.9,526.7 205.3,519.7 210.7,512.7 216.1,505.8 221.4,498.9 226.8,492 232.2,485.1 237.6,478.3 243,471.5 248.4,464.8 253.8,458.1 259.2,451.4 264.6,444.8 270,438.3 275.4,431.7 280.7,425.3 286.1,418.8 291.5,412.5 296.9,406.1 302.3,399.9 307.7,393.6 313.1,387.5 318.5,381.4 323.9,375.3 329.3,369.3 334.7,363.4 340,357.5 345.4,351.7 350.8,346 356.2,340.3 361.6,334.6 367,329.1 372.4,323.6 377.8,318.2 383.2,312.8 388.6,307.5 393.9,302.3 399.3,297.1 404.7,292 410.1,287 415.5,282 420.9,277.2 426.3,272.4 431.7,267.6 437.1,263 442.5,258.4 447.9,253.8 453.2,249.4 458.6,245 464,240.7 469.4,236.5 474.8,232.3 480.2,228.3 485.6,224.3 491,220.3 496.4,216.5 501.8,212.7 507.1,209 512.5,205.3 517.9,201.8 523.3,198.3 528.7,194.8 534.1,191.5 539.5,188.2 544.9,185 550.3,181.9 555.7,178.8 561.1,175.8 566.4,172.9 571.8,170.1 577.2,167.3 582.6,164.5 588,161.9 593.4,159.3 598.8,156.8 604.2,154.4 609.6,152 615,149.6 620.4,147.4 625.7,145.2 631.1,143.1 636.5,141 641.9,139 647.3,137 652.7,135.1 658.1,133.3 663.5,131.5 668.9,129.8 674.3,128.1 679.6,126.5 685,124.9 690.4,123.4 695.8,122 701.2,120.5 706.6,119.2 712,117.9 717.4,116.6 722.8,115.4 728.2,114.2 733.6,113 738.9,111.9 744.3,110.9 749.7,109.9 755.1,108.9 760.5,107.9 765.9,107 771.3,106.2 776.7,105.3 782.1,104.5 787.5,103.7 792.9,103 798.2,102.3 803.6,101.6 809,100.9 814.4,100.3 819.8,99.68 825.2,99.1 830.6,98.53 836,97.99 841.4,97.46 846.8,96.96 852.1,96.47 857.5,96 862.9,95.55 868.3,95.11 873.7,94.68 879.1,94.27 884.5,93.86 889.9,93.47 895.3,93.09 900.7,92.72 906.1,92.35 911.4,91.99 916.8,91.64 922.2,91.29 927.6,90.95 933,90.61 938.4,90.27 943.8,89.93 949.2,89.6 954.6,89.26 960,88.92 965.3,88.59 970.7,88.25 976.1,87.91 981.5,87.56 986.9,87.21 992.3,86.86 997.7,86.5 1003,86.14 1008,85.77 1014,85.39 1019,85.01 1025,84.62 1030,84.22 1035,83.82 1041,83.4 1046,82.98 1052,82.55 1057,82.11 1062,81.66 1068,81.2 1073,80.73 1079,80.25 1084,79.76 1089,79.26 1095,78.75 1100,78.23 1106,77.7 1111,77.16 1116,76.61 1122,76.05 1127,75.48 1132,74.9 1138,74.31 1143,73.72 1149,73.11 1154,72.49 1159,71.87 1165,71.24 1170,70.6 1176,69.95 1181,69.3 1186,68.64"/>
    </g>
    <g class="tick-labels" font-family="sans-serif" font-size="10" fill="#333">
      <line x1="113.6" y1="670" x2="113.6" y2="675" stroke="#000" stroke-width="1"/>
      <text x="113.6" y="684" text-anchor="middle">0</text>
      <line x1="652.7" y1="670" x2="652.7" y2="675" stroke="#000" stroke-width="1"/>
      <text x="652.7" y="684" text-anchor="middle">1</text>
      <line x1="1192" y1="670" x2="1192" y2="675" stroke="#000" stroke-width="1"/>
      <text x="1192" y="684" text-anchor="middle">2</text>
      <line x1="55" y1="641.4" x2="60" y2="641.4" stroke="#000" stroke-width="1"/>
      <text x="52" y="644.9" text-anchor="end">0</text>
      <line x1="55" y1="329.3" x2="60" y2="329.3" stroke="#000" stroke-width="1"/>
      <text x="52" y="332.8" text-anchor="end">0.5</text>
    </g>
    <text x="650" y="30" text-anchor="middle" font-family="sans-serif" font-size="14" font-weight="bold" fill="#000">200 Point Performance Test</text>
    <text x="650" y="705" text-anchor="middle" font-family="sans-serif" font-size="12" fill="#333">Time (s)</text>
    <text x="15" y="355" text-anchor="middle" font-family="sans-serif" font-size="12" fill="#333" transform="rotate(-90,15,355)">Amplitude</text>
    <rect x="1110" y="50" width="120" height="52" fill="white" fill-opacity="0.9" stroke="#ccc" stroke-width="1" rx="3"/>
    <g font-family="sans-serif" font-size="10" fill="#333">
      <line x1="1118" y1="67" x2="1138" y2="67" stroke="rgb(31,119,180)" stroke-width="2"/>
      <text x="1144" y="70.5">Colored Line</text>
      <line x1="1118" y1="85" x2="1138" y2="85" stroke="rgb(255,126,14)" stroke-width="2"/>
      <text x="1144" y="88.5">Colored Line</text>
    </g>
  </g>
</svg>
