<svg width="1988" height="356" viewBox="0 0 1988 356" fill="none" xmlns="http://www.w3.org/2000/svg">
<g id="C++ float spans">
<rect id="Shape" x="354" y="226" width="224" height="128" rx="6" fill="white" stroke="#757575" stroke-width="4" stroke-linecap="round"/>
<path id="Text" d="M417.253 288.148H415.481C415.412 287.769 415.286 287.436 415.1 287.148C414.914 286.86 414.687 286.616 414.418 286.415C414.149 286.214 413.848 286.062 413.515 285.96C413.185 285.858 412.835 285.807 412.464 285.807C411.793 285.807 411.193 285.975 410.662 286.312C410.136 286.65 409.719 287.144 409.412 287.795C409.109 288.447 408.958 289.242 408.958 290.182C408.958 291.129 409.109 291.928 409.412 292.58C409.719 293.231 410.138 293.723 410.668 294.057C411.198 294.39 411.795 294.557 412.458 294.557C412.825 294.557 413.174 294.508 413.503 294.409C413.837 294.307 414.138 294.157 414.407 293.96C414.676 293.763 414.903 293.523 415.089 293.239C415.278 292.951 415.409 292.621 415.481 292.25L417.253 292.256C417.159 292.828 416.975 293.354 416.702 293.835C416.433 294.312 416.087 294.725 415.662 295.074C415.242 295.419 414.761 295.686 414.219 295.875C413.678 296.064 413.087 296.159 412.446 296.159C411.439 296.159 410.541 295.92 409.753 295.443C408.965 294.962 408.344 294.275 407.89 293.381C407.439 292.487 407.214 291.42 407.214 290.182C407.214 288.939 407.441 287.873 407.895 286.983C408.35 286.089 408.971 285.403 409.759 284.926C410.547 284.445 411.443 284.205 412.446 284.205C413.064 284.205 413.64 284.294 414.174 284.472C414.712 284.646 415.195 284.903 415.623 285.244C416.051 285.581 416.405 285.994 416.685 286.483C416.965 286.968 417.155 287.523 417.253 288.148ZM422.462 294.045V286.364H423.991V294.045H422.462ZM419.388 290.966V289.443H427.07V290.966H419.388ZM432.942 294.045V286.364H434.471V294.045H432.942ZM429.869 290.966V289.443H437.55V290.966H429.869ZM448.214 287.273V288.636H443.282V287.273H448.214ZM444.635 296V286.261C444.635 285.716 444.754 285.263 444.992 284.903C445.231 284.54 445.547 284.269 445.941 284.091C446.335 283.909 446.763 283.818 447.225 283.818C447.566 283.818 447.858 283.847 448.1 283.903C448.343 283.956 448.523 284.006 448.64 284.051L448.242 285.426C448.163 285.403 448.061 285.377 447.936 285.347C447.811 285.312 447.659 285.295 447.481 285.295C447.068 285.295 446.773 285.398 446.595 285.602C446.421 285.807 446.333 286.102 446.333 286.489V296H444.635ZM451.49 284.364V296H449.791V284.364H451.49ZM457.275 296.176C456.457 296.176 455.743 295.989 455.133 295.614C454.524 295.239 454.05 294.714 453.713 294.04C453.376 293.366 453.207 292.578 453.207 291.676C453.207 290.771 453.376 289.979 453.713 289.301C454.05 288.623 454.524 288.097 455.133 287.722C455.743 287.347 456.457 287.159 457.275 287.159C458.094 287.159 458.808 287.347 459.417 287.722C460.027 288.097 460.501 288.623 460.838 289.301C461.175 289.979 461.344 290.771 461.344 291.676C461.344 292.578 461.175 293.366 460.838 294.04C460.501 294.714 460.027 295.239 459.417 295.614C458.808 295.989 458.094 296.176 457.275 296.176ZM457.281 294.75C457.811 294.75 458.251 294.61 458.599 294.33C458.948 294.049 459.205 293.676 459.372 293.21C459.542 292.744 459.628 292.231 459.628 291.67C459.628 291.114 459.542 290.602 459.372 290.136C459.205 289.667 458.948 289.29 458.599 289.006C458.251 288.722 457.811 288.58 457.281 288.58C456.747 288.58 456.304 288.722 455.952 289.006C455.603 289.29 455.344 289.667 455.173 290.136C455.006 290.602 454.923 291.114 454.923 291.67C454.923 292.231 455.006 292.744 455.173 293.21C455.344 293.676 455.603 294.049 455.952 294.33C456.304 294.61 456.747 294.75 457.281 294.75ZM465.604 296.193C465.051 296.193 464.551 296.091 464.104 295.886C463.657 295.678 463.303 295.377 463.041 294.983C462.784 294.589 462.655 294.106 462.655 293.534C462.655 293.042 462.75 292.636 462.939 292.318C463.128 292 463.384 291.748 463.706 291.562C464.028 291.377 464.388 291.237 464.786 291.142C465.183 291.047 465.589 290.975 466.001 290.926C466.524 290.866 466.948 290.816 467.274 290.778C467.6 290.737 467.837 290.67 467.984 290.58C468.132 290.489 468.206 290.341 468.206 290.136V290.097C468.206 289.6 468.066 289.216 467.786 288.943C467.509 288.67 467.096 288.534 466.547 288.534C465.975 288.534 465.524 288.661 465.195 288.915C464.869 289.165 464.643 289.443 464.518 289.75L462.922 289.386C463.111 288.856 463.388 288.428 463.751 288.102C464.119 287.773 464.541 287.534 465.018 287.386C465.496 287.235 465.998 287.159 466.524 287.159C466.873 287.159 467.242 287.201 467.632 287.284C468.026 287.364 468.393 287.511 468.734 287.727C469.079 287.943 469.361 288.252 469.581 288.653C469.801 289.051 469.911 289.568 469.911 290.205V296H468.251V294.807H468.183C468.073 295.027 467.909 295.242 467.689 295.455C467.469 295.667 467.187 295.843 466.842 295.983C466.498 296.123 466.085 296.193 465.604 296.193ZM465.973 294.83C466.443 294.83 466.844 294.737 467.178 294.551C467.515 294.366 467.77 294.123 467.945 293.824C468.123 293.521 468.212 293.197 468.212 292.852V291.727C468.151 291.788 468.034 291.845 467.859 291.898C467.689 291.947 467.494 291.991 467.274 292.028C467.054 292.062 466.84 292.095 466.632 292.125C466.424 292.152 466.25 292.174 466.109 292.193C465.78 292.235 465.479 292.305 465.206 292.403C464.937 292.502 464.721 292.644 464.558 292.83C464.399 293.011 464.32 293.254 464.32 293.557C464.32 293.977 464.475 294.295 464.786 294.511C465.096 294.723 465.492 294.83 465.973 294.83ZM476.071 287.273V288.636H471.304V287.273H476.071ZM472.583 285.182H474.281V293.438C474.281 293.767 474.331 294.015 474.429 294.182C474.528 294.345 474.654 294.456 474.81 294.517C474.969 294.574 475.141 294.602 475.327 294.602C475.463 294.602 475.583 294.593 475.685 294.574C475.787 294.555 475.867 294.54 475.923 294.528L476.23 295.932C476.132 295.97 475.992 296.008 475.81 296.045C475.628 296.087 475.401 296.11 475.128 296.114C474.681 296.121 474.264 296.042 473.878 295.875C473.492 295.708 473.179 295.451 472.94 295.102C472.702 294.754 472.583 294.316 472.583 293.79V285.182ZM488.373 289.403L486.833 289.676C486.768 289.479 486.666 289.292 486.526 289.114C486.39 288.936 486.204 288.79 485.969 288.676C485.734 288.562 485.441 288.506 485.088 288.506C484.607 288.506 484.206 288.614 483.884 288.83C483.562 289.042 483.401 289.316 483.401 289.653C483.401 289.945 483.509 290.18 483.725 290.358C483.941 290.536 484.289 290.682 484.77 290.795L486.157 291.114C486.96 291.299 487.558 291.585 487.952 291.972C488.346 292.358 488.543 292.86 488.543 293.477C488.543 294 488.392 294.466 488.088 294.875C487.789 295.28 487.371 295.598 486.833 295.83C486.299 296.061 485.679 296.176 484.975 296.176C483.998 296.176 483.2 295.968 482.583 295.551C481.965 295.131 481.587 294.534 481.446 293.761L483.088 293.511C483.191 293.939 483.401 294.263 483.719 294.483C484.037 294.699 484.452 294.807 484.963 294.807C485.52 294.807 485.965 294.691 486.299 294.46C486.632 294.225 486.799 293.939 486.799 293.602C486.799 293.33 486.696 293.1 486.492 292.915C486.291 292.729 485.982 292.589 485.566 292.494L484.088 292.17C483.274 291.985 482.672 291.689 482.282 291.284C481.895 290.879 481.702 290.366 481.702 289.744C481.702 289.229 481.846 288.778 482.134 288.392C482.422 288.006 482.82 287.705 483.327 287.489C483.835 287.269 484.416 287.159 485.071 287.159C486.015 287.159 486.757 287.364 487.299 287.773C487.84 288.178 488.198 288.722 488.373 289.403ZM490.235 299.273V287.273H491.894V288.688H492.036C492.135 288.506 492.277 288.295 492.462 288.057C492.648 287.818 492.905 287.61 493.235 287.432C493.564 287.25 494 287.159 494.542 287.159C495.246 287.159 495.875 287.337 496.428 287.693C496.981 288.049 497.415 288.562 497.729 289.233C498.047 289.903 498.207 290.71 498.207 291.653C498.207 292.597 498.049 293.405 497.735 294.08C497.421 294.75 496.989 295.267 496.439 295.631C495.89 295.991 495.263 296.17 494.559 296.17C494.028 296.17 493.595 296.081 493.258 295.903C492.924 295.725 492.663 295.517 492.474 295.278C492.284 295.04 492.138 294.828 492.036 294.642H491.934V299.273H490.235ZM491.9 291.636C491.9 292.25 491.989 292.788 492.167 293.25C492.345 293.712 492.602 294.074 492.939 294.335C493.277 294.593 493.689 294.722 494.178 294.722C494.686 294.722 495.11 294.587 495.451 294.318C495.792 294.045 496.049 293.676 496.224 293.21C496.402 292.744 496.491 292.22 496.491 291.636C496.491 291.061 496.403 290.544 496.229 290.085C496.059 289.627 495.801 289.265 495.457 289C495.116 288.735 494.689 288.602 494.178 288.602C493.686 288.602 493.269 288.729 492.928 288.983C492.591 289.237 492.335 289.591 492.161 290.045C491.987 290.5 491.9 291.03 491.9 291.636ZM502.474 296.193C501.921 296.193 501.421 296.091 500.974 295.886C500.527 295.678 500.173 295.377 499.911 294.983C499.654 294.589 499.525 294.106 499.525 293.534C499.525 293.042 499.62 292.636 499.809 292.318C499.998 292 500.254 291.748 500.576 291.562C500.898 291.377 501.258 291.237 501.656 291.142C502.053 291.047 502.459 290.975 502.871 290.926C503.394 290.866 503.818 290.816 504.144 290.778C504.47 290.737 504.707 290.67 504.854 290.58C505.002 290.489 505.076 290.341 505.076 290.136V290.097C505.076 289.6 504.936 289.216 504.656 288.943C504.379 288.67 503.966 288.534 503.417 288.534C502.845 288.534 502.394 288.661 502.065 288.915C501.739 289.165 501.513 289.443 501.388 289.75L499.792 289.386C499.981 288.856 500.258 288.428 500.621 288.102C500.989 287.773 501.411 287.534 501.888 287.386C502.366 287.235 502.868 287.159 503.394 287.159C503.743 287.159 504.112 287.201 504.502 287.284C504.896 287.364 505.263 287.511 505.604 287.727C505.949 287.943 506.231 288.252 506.451 288.653C506.671 289.051 506.781 289.568 506.781 290.205V296H505.121V294.807H505.053C504.943 295.027 504.779 295.242 504.559 295.455C504.339 295.667 504.057 295.843 503.712 295.983C503.368 296.123 502.955 296.193 502.474 296.193ZM502.843 294.83C503.313 294.83 503.714 294.737 504.048 294.551C504.385 294.366 504.64 294.123 504.815 293.824C504.993 293.521 505.082 293.197 505.082 292.852V291.727C505.021 291.788 504.904 291.845 504.729 291.898C504.559 291.947 504.364 291.991 504.144 292.028C503.924 292.062 503.71 292.095 503.502 292.125C503.294 292.152 503.12 292.174 502.979 292.193C502.65 292.235 502.349 292.305 502.076 292.403C501.807 292.502 501.591 292.644 501.428 292.83C501.269 293.011 501.19 293.254 501.19 293.557C501.19 293.977 501.345 294.295 501.656 294.511C501.966 294.723 502.362 294.83 502.843 294.83ZM510.566 290.818V296H508.867V287.273H510.498V288.693H510.606C510.807 288.231 511.121 287.86 511.549 287.58C511.981 287.299 512.524 287.159 513.18 287.159C513.774 287.159 514.295 287.284 514.742 287.534C515.189 287.78 515.536 288.148 515.782 288.636C516.028 289.125 516.151 289.729 516.151 290.449V296H514.453V290.653C514.453 290.021 514.288 289.527 513.958 289.17C513.629 288.811 513.176 288.631 512.6 288.631C512.206 288.631 511.856 288.716 511.549 288.886C511.246 289.057 511.006 289.307 510.828 289.636C510.653 289.962 510.566 290.356 510.566 290.818ZM524.794 289.403L523.254 289.676C523.189 289.479 523.087 289.292 522.947 289.114C522.811 288.936 522.625 288.79 522.39 288.676C522.155 288.562 521.862 288.506 521.509 288.506C521.028 288.506 520.627 288.614 520.305 288.83C519.983 289.042 519.822 289.316 519.822 289.653C519.822 289.945 519.93 290.18 520.146 290.358C520.362 290.536 520.71 290.682 521.191 290.795L522.578 291.114C523.381 291.299 523.979 291.585 524.373 291.972C524.767 292.358 524.964 292.86 524.964 293.477C524.964 294 524.813 294.466 524.509 294.875C524.21 295.28 523.792 295.598 523.254 295.83C522.72 296.061 522.1 296.176 521.396 296.176C520.419 296.176 519.621 295.968 519.004 295.551C518.386 295.131 518.008 294.534 517.867 293.761L519.509 293.511C519.612 293.939 519.822 294.263 520.14 294.483C520.458 294.699 520.873 294.807 521.384 294.807C521.941 294.807 522.386 294.691 522.72 294.46C523.053 294.225 523.22 293.939 523.22 293.602C523.22 293.33 523.117 293.1 522.913 292.915C522.712 292.729 522.403 292.589 521.987 292.494L520.509 292.17C519.695 291.985 519.093 291.689 518.703 291.284C518.316 290.879 518.123 290.366 518.123 289.744C518.123 289.229 518.267 288.778 518.555 288.392C518.843 288.006 519.241 287.705 519.748 287.489C520.256 287.269 520.837 287.159 521.492 287.159C522.436 287.159 523.178 287.364 523.72 287.773C524.261 288.178 524.619 288.722 524.794 289.403Z" fill="#1E1E1E"/>
</g>
<g id="easy_embed render">
<rect id="Shape_2" x="706" y="114" width="224" height="128" rx="6" fill="white" stroke="#757575" stroke-width="4" stroke-linecap="round"/>
<path id="Text_2" d="M749.436 184.176C748.577 184.176 747.836 183.992 747.215 183.625C746.597 183.254 746.12 182.733 745.783 182.062C745.45 181.388 745.283 180.598 745.283 179.693C745.283 178.799 745.45 178.011 745.783 177.33C746.12 176.648 746.59 176.116 747.192 175.733C747.798 175.35 748.506 175.159 749.317 175.159C749.81 175.159 750.287 175.241 750.749 175.403C751.211 175.566 751.626 175.822 751.993 176.17C752.361 176.519 752.65 176.972 752.863 177.528C753.075 178.081 753.181 178.754 753.181 179.545V180.148H746.243V178.875H751.516C751.516 178.428 751.425 178.032 751.243 177.688C751.061 177.339 750.806 177.064 750.476 176.864C750.15 176.663 749.768 176.562 749.328 176.562C748.851 176.562 748.435 176.68 748.078 176.915C747.726 177.146 747.453 177.449 747.26 177.824C747.071 178.195 746.976 178.598 746.976 179.034V180.028C746.976 180.612 747.078 181.108 747.283 181.517C747.491 181.926 747.781 182.239 748.152 182.455C748.524 182.667 748.957 182.773 749.453 182.773C749.775 182.773 750.069 182.727 750.334 182.636C750.599 182.542 750.828 182.402 751.022 182.216C751.215 182.03 751.363 181.801 751.465 181.528L753.073 181.818C752.944 182.292 752.713 182.706 752.38 183.062C752.05 183.415 751.635 183.689 751.135 183.886C750.639 184.08 750.073 184.176 749.436 184.176ZM757.429 184.193C756.876 184.193 756.376 184.091 755.929 183.886C755.482 183.678 755.128 183.377 754.867 182.983C754.609 182.589 754.481 182.106 754.481 181.534C754.481 181.042 754.575 180.636 754.765 180.318C754.954 180 755.21 179.748 755.532 179.562C755.854 179.377 756.214 179.237 756.611 179.142C757.009 179.047 757.414 178.975 757.827 178.926C758.35 178.866 758.774 178.816 759.1 178.778C759.426 178.737 759.662 178.67 759.81 178.58C759.958 178.489 760.032 178.341 760.032 178.136V178.097C760.032 177.6 759.892 177.216 759.611 176.943C759.335 176.67 758.922 176.534 758.373 176.534C757.801 176.534 757.35 176.661 757.02 176.915C756.695 177.165 756.469 177.443 756.344 177.75L754.748 177.386C754.937 176.856 755.214 176.428 755.577 176.102C755.945 175.773 756.367 175.534 756.844 175.386C757.321 175.235 757.823 175.159 758.35 175.159C758.698 175.159 759.068 175.201 759.458 175.284C759.852 175.364 760.219 175.511 760.56 175.727C760.905 175.943 761.187 176.252 761.407 176.653C761.626 177.051 761.736 177.568 761.736 178.205V184H760.077V182.807H760.009C759.899 183.027 759.734 183.242 759.515 183.455C759.295 183.667 759.013 183.843 758.668 183.983C758.323 184.123 757.911 184.193 757.429 184.193ZM757.799 182.83C758.268 182.83 758.67 182.737 759.003 182.551C759.34 182.366 759.596 182.123 759.77 181.824C759.948 181.521 760.037 181.197 760.037 180.852V179.727C759.977 179.788 759.859 179.845 759.685 179.898C759.515 179.947 759.32 179.991 759.1 180.028C758.88 180.062 758.666 180.095 758.458 180.125C758.25 180.152 758.075 180.174 757.935 180.193C757.606 180.235 757.304 180.305 757.032 180.403C756.763 180.502 756.547 180.644 756.384 180.83C756.225 181.011 756.145 181.254 756.145 181.557C756.145 181.977 756.301 182.295 756.611 182.511C756.922 182.723 757.318 182.83 757.799 182.83ZM770.363 177.403L768.823 177.676C768.759 177.479 768.656 177.292 768.516 177.114C768.38 176.936 768.194 176.79 767.959 176.676C767.725 176.562 767.431 176.506 767.079 176.506C766.598 176.506 766.196 176.614 765.874 176.83C765.552 177.042 765.391 177.316 765.391 177.653C765.391 177.945 765.499 178.18 765.715 178.358C765.931 178.536 766.279 178.682 766.761 178.795L768.147 179.114C768.95 179.299 769.548 179.585 769.942 179.972C770.336 180.358 770.533 180.86 770.533 181.477C770.533 182 770.382 182.466 770.079 182.875C769.779 183.28 769.361 183.598 768.823 183.83C768.289 184.061 767.67 184.176 766.965 184.176C765.988 184.176 765.19 183.968 764.573 183.551C763.956 183.131 763.577 182.534 763.437 181.761L765.079 181.511C765.181 181.939 765.391 182.263 765.709 182.483C766.028 182.699 766.442 182.807 766.954 182.807C767.511 182.807 767.956 182.691 768.289 182.46C768.622 182.225 768.789 181.939 768.789 181.602C768.789 181.33 768.687 181.1 768.482 180.915C768.281 180.729 767.973 180.589 767.556 180.494L766.079 180.17C765.264 179.985 764.662 179.689 764.272 179.284C763.886 178.879 763.692 178.366 763.692 177.744C763.692 177.229 763.836 176.778 764.124 176.392C764.412 176.006 764.81 175.705 765.317 175.489C765.825 175.269 766.406 175.159 767.062 175.159C768.005 175.159 768.747 175.364 769.289 175.773C769.831 176.178 770.189 176.722 770.363 177.403ZM773.299 187.273C773.045 187.273 772.814 187.252 772.606 187.21C772.398 187.172 772.242 187.131 772.14 187.085L772.549 185.693C772.86 185.777 773.136 185.813 773.379 185.801C773.621 185.79 773.835 185.699 774.021 185.528C774.21 185.358 774.377 185.08 774.521 184.693L774.731 184.114L771.538 175.273H773.356L775.566 182.045H775.657L777.867 175.273H779.691L776.094 185.165C775.928 185.619 775.716 186.004 775.458 186.318C775.201 186.636 774.894 186.875 774.538 187.034C774.182 187.193 773.769 187.273 773.299 187.273ZM786.079 184V185.443H778.687V184H786.079ZM790.791 184.176C789.931 184.176 789.19 183.992 788.569 183.625C787.952 183.254 787.474 182.733 787.137 182.062C786.804 181.388 786.637 180.598 786.637 179.693C786.637 178.799 786.804 178.011 787.137 177.33C787.474 176.648 787.944 176.116 788.546 175.733C789.153 175.35 789.861 175.159 790.671 175.159C791.164 175.159 791.641 175.241 792.103 175.403C792.565 175.566 792.98 175.822 793.348 176.17C793.715 176.519 794.005 176.972 794.217 177.528C794.429 178.081 794.535 178.754 794.535 179.545V180.148H787.598V178.875H792.87C792.87 178.428 792.779 178.032 792.598 177.688C792.416 177.339 792.16 177.064 791.831 176.864C791.505 176.663 791.122 176.562 790.683 176.562C790.206 176.562 789.789 176.68 789.433 176.915C789.081 177.146 788.808 177.449 788.615 177.824C788.425 178.195 788.331 178.598 788.331 179.034V180.028C788.331 180.612 788.433 181.108 788.637 181.517C788.846 181.926 789.135 182.239 789.507 182.455C789.878 182.667 790.312 182.773 790.808 182.773C791.13 182.773 791.423 182.727 791.689 182.636C791.954 182.542 792.183 182.402 792.376 182.216C792.569 182.03 792.717 181.801 792.819 181.528L794.427 181.818C794.298 182.292 794.067 182.706 793.734 183.062C793.404 183.415 792.99 183.689 792.49 183.886C791.993 184.08 791.427 184.176 790.791 184.176ZM796.244 184V175.273H797.875V176.693H797.983C798.164 176.212 798.462 175.837 798.875 175.568C799.288 175.295 799.782 175.159 800.358 175.159C800.941 175.159 801.43 175.295 801.824 175.568C802.221 175.841 802.515 176.216 802.704 176.693H802.795C803.004 176.227 803.335 175.856 803.789 175.58C804.244 175.299 804.786 175.159 805.414 175.159C806.206 175.159 806.852 175.407 807.352 175.903C807.856 176.4 808.108 177.148 808.108 178.148V184H806.409V178.307C806.409 177.716 806.248 177.288 805.926 177.023C805.604 176.758 805.219 176.625 804.772 176.625C804.219 176.625 803.789 176.795 803.483 177.136C803.176 177.473 803.022 177.907 803.022 178.438V184H801.329V178.199C801.329 177.725 801.182 177.345 800.886 177.057C800.591 176.769 800.206 176.625 799.733 176.625C799.411 176.625 799.113 176.71 798.841 176.881C798.572 177.047 798.354 177.28 798.187 177.58C798.024 177.879 797.943 178.225 797.943 178.619V184H796.244ZM810.345 184V172.364H812.044V176.688H812.146C812.245 176.506 812.387 176.295 812.572 176.057C812.758 175.818 813.015 175.61 813.345 175.432C813.675 175.25 814.11 175.159 814.652 175.159C815.356 175.159 815.985 175.337 816.538 175.693C817.091 176.049 817.525 176.562 817.839 177.233C818.158 177.903 818.317 178.71 818.317 179.653C818.317 180.597 818.159 181.405 817.845 182.08C817.531 182.75 817.099 183.267 816.55 183.631C816 183.991 815.373 184.17 814.669 184.17C814.139 184.17 813.705 184.081 813.368 183.903C813.034 183.725 812.773 183.517 812.584 183.278C812.394 183.04 812.248 182.828 812.146 182.642H812.004V184H810.345ZM812.01 179.636C812.01 180.25 812.099 180.788 812.277 181.25C812.455 181.712 812.712 182.074 813.05 182.335C813.387 182.593 813.8 182.722 814.288 182.722C814.796 182.722 815.22 182.587 815.561 182.318C815.902 182.045 816.159 181.676 816.334 181.21C816.512 180.744 816.601 180.22 816.601 179.636C816.601 179.061 816.514 178.544 816.339 178.085C816.169 177.627 815.911 177.265 815.567 177C815.226 176.735 814.8 176.602 814.288 176.602C813.796 176.602 813.379 176.729 813.038 176.983C812.701 177.237 812.445 177.591 812.271 178.045C812.097 178.5 812.01 179.03 812.01 179.636ZM823.81 184.176C822.95 184.176 822.209 183.992 821.588 183.625C820.971 183.254 820.493 182.733 820.156 182.062C819.823 181.388 819.656 180.598 819.656 179.693C819.656 178.799 819.823 178.011 820.156 177.33C820.493 176.648 820.963 176.116 821.565 175.733C822.171 175.35 822.88 175.159 823.69 175.159C824.183 175.159 824.66 175.241 825.122 175.403C825.584 175.566 825.999 175.822 826.366 176.17C826.734 176.519 827.024 176.972 827.236 177.528C827.448 178.081 827.554 178.754 827.554 179.545V180.148H820.616V178.875H825.889C825.889 178.428 825.798 178.032 825.616 177.688C825.435 177.339 825.179 177.064 824.849 176.864C824.524 176.663 824.141 176.562 823.702 176.562C823.224 176.562 822.808 176.68 822.452 176.915C822.099 177.146 821.827 177.449 821.634 177.824C821.444 178.195 821.349 178.598 821.349 179.034V180.028C821.349 180.612 821.452 181.108 821.656 181.517C821.865 181.926 822.154 182.239 822.526 182.455C822.897 182.667 823.33 182.773 823.827 182.773C824.149 182.773 824.442 182.727 824.707 182.636C824.973 182.542 825.202 182.402 825.395 182.216C825.588 182.03 825.736 181.801 825.838 181.528L827.446 181.818C827.317 182.292 827.086 182.706 826.753 183.062C826.423 183.415 826.009 183.689 825.509 183.886C825.012 184.08 824.446 184.176 823.81 184.176ZM832.53 184.17C831.825 184.17 831.197 183.991 830.644 183.631C830.094 183.267 829.663 182.75 829.348 182.08C829.038 181.405 828.882 180.597 828.882 179.653C828.882 178.71 829.039 177.903 829.354 177.233C829.672 176.562 830.108 176.049 830.661 175.693C831.214 175.337 831.841 175.159 832.541 175.159C833.083 175.159 833.519 175.25 833.848 175.432C834.181 175.61 834.439 175.818 834.621 176.057C834.806 176.295 834.95 176.506 835.053 176.688H835.155V172.364H836.854V184H835.195V182.642H835.053C834.95 182.828 834.803 183.04 834.61 183.278C834.42 183.517 834.159 183.725 833.825 183.903C833.492 184.081 833.06 184.17 832.53 184.17ZM832.905 182.722C833.394 182.722 833.806 182.593 834.144 182.335C834.485 182.074 834.742 181.712 834.916 181.25C835.094 180.788 835.183 180.25 835.183 179.636C835.183 179.03 835.096 178.5 834.922 178.045C834.748 177.591 834.492 177.237 834.155 176.983C833.818 176.729 833.401 176.602 832.905 176.602C832.394 176.602 831.967 176.735 831.627 177C831.286 177.265 831.028 177.627 830.854 178.085C830.683 178.544 830.598 179.061 830.598 179.636C830.598 180.22 830.685 180.744 830.86 181.21C831.034 181.676 831.291 182.045 831.632 182.318C831.977 182.587 832.401 182.722 832.905 182.722ZM843.161 184V175.273H844.803V176.659H844.894C845.053 176.189 845.333 175.82 845.735 175.551C846.14 175.278 846.598 175.142 847.11 175.142C847.216 175.142 847.341 175.146 847.485 175.153C847.633 175.161 847.748 175.17 847.831 175.182V176.807C847.763 176.788 847.642 176.767 847.468 176.744C847.293 176.718 847.119 176.705 846.945 176.705C846.543 176.705 846.186 176.79 845.871 176.96C845.561 177.127 845.314 177.36 845.133 177.659C844.951 177.955 844.86 178.292 844.86 178.67V184H843.161ZM852.574 184.176C851.715 184.176 850.974 183.992 850.353 183.625C849.735 183.254 849.258 182.733 848.921 182.062C848.588 181.388 848.421 180.598 848.421 179.693C848.421 178.799 848.588 178.011 848.921 177.33C849.258 176.648 849.728 176.116 850.33 175.733C850.936 175.35 851.644 175.159 852.455 175.159C852.948 175.159 853.425 175.241 853.887 175.403C854.349 175.566 854.764 175.822 855.131 176.17C855.499 176.519 855.788 176.972 856.001 177.528C856.213 178.081 856.319 178.754 856.319 179.545V180.148H849.381V178.875H854.654C854.654 178.428 854.563 178.032 854.381 177.688C854.199 177.339 853.944 177.064 853.614 176.864C853.288 176.663 852.906 176.562 852.466 176.562C851.989 176.562 851.573 176.68 851.216 176.915C850.864 177.146 850.591 177.449 850.398 177.824C850.209 178.195 850.114 178.598 850.114 179.034V180.028C850.114 180.612 850.216 181.108 850.421 181.517C850.629 181.926 850.919 182.239 851.29 182.455C851.662 182.667 852.095 182.773 852.591 182.773C852.913 182.773 853.207 182.727 853.472 182.636C853.737 182.542 853.966 182.402 854.16 182.216C854.353 182.03 854.501 181.801 854.603 181.528L856.211 181.818C856.082 182.292 855.851 182.706 855.518 183.062C855.188 183.415 854.773 183.689 854.273 183.886C853.777 184.08 853.211 184.176 852.574 184.176ZM859.727 178.818V184H858.028V175.273H859.658V176.693H859.766C859.967 176.231 860.281 175.86 860.709 175.58C861.141 175.299 861.685 175.159 862.34 175.159C862.935 175.159 863.456 175.284 863.903 175.534C864.35 175.78 864.696 176.148 864.942 176.636C865.189 177.125 865.312 177.729 865.312 178.449V184H863.613V178.653C863.613 178.021 863.448 177.527 863.119 177.17C862.789 176.811 862.336 176.631 861.761 176.631C861.367 176.631 861.016 176.716 860.709 176.886C860.406 177.057 860.166 177.307 859.988 177.636C859.814 177.962 859.727 178.356 859.727 178.818ZM870.681 184.17C869.977 184.17 869.348 183.991 868.795 183.631C868.246 183.267 867.814 182.75 867.499 182.08C867.189 181.405 867.033 180.597 867.033 179.653C867.033 178.71 867.191 177.903 867.505 177.233C867.823 176.562 868.259 176.049 868.812 175.693C869.365 175.337 869.992 175.159 870.693 175.159C871.234 175.159 871.67 175.25 871.999 175.432C872.333 175.61 872.59 175.818 872.772 176.057C872.958 176.295 873.102 176.506 873.204 176.688H873.306V172.364H875.005V184H873.346V182.642H873.204C873.102 182.828 872.954 183.04 872.761 183.278C872.571 183.517 872.31 183.725 871.977 183.903C871.643 184.081 871.212 184.17 870.681 184.17ZM871.056 182.722C871.545 182.722 871.958 182.593 872.295 182.335C872.636 182.074 872.893 181.712 873.068 181.25C873.246 180.788 873.335 180.25 873.335 179.636C873.335 179.03 873.248 178.5 873.073 178.045C872.899 177.591 872.643 177.237 872.306 176.983C871.969 176.729 871.552 176.602 871.056 176.602C870.545 176.602 870.119 176.735 869.778 177C869.437 177.265 869.179 177.627 869.005 178.085C868.835 178.544 868.749 179.061 868.749 179.636C868.749 180.22 868.837 180.744 869.011 181.21C869.185 181.676 869.443 182.045 869.783 182.318C870.128 182.587 870.552 182.722 871.056 182.722ZM881.015 184.176C880.155 184.176 879.415 183.992 878.794 183.625C878.176 183.254 877.699 182.733 877.362 182.062C877.028 181.388 876.862 180.598 876.862 179.693C876.862 178.799 877.028 178.011 877.362 177.33C877.699 176.648 878.169 176.116 878.771 175.733C879.377 175.35 880.085 175.159 880.896 175.159C881.388 175.159 881.866 175.241 882.328 175.403C882.79 175.566 883.205 175.822 883.572 176.17C883.939 176.519 884.229 176.972 884.441 177.528C884.653 178.081 884.759 178.754 884.759 179.545V180.148H877.822V178.875H883.095C883.095 178.428 883.004 178.032 882.822 177.688C882.64 177.339 882.384 177.064 882.055 176.864C881.729 176.663 881.347 176.562 880.907 176.562C880.43 176.562 880.013 176.68 879.657 176.915C879.305 177.146 879.032 177.449 878.839 177.824C878.65 178.195 878.555 178.598 878.555 179.034V180.028C878.555 180.612 878.657 181.108 878.862 181.517C879.07 181.926 879.36 182.239 879.731 182.455C880.102 182.667 880.536 182.773 881.032 182.773C881.354 182.773 881.648 182.727 881.913 182.636C882.178 182.542 882.407 182.402 882.6 182.216C882.794 182.03 882.941 181.801 883.044 181.528L884.652 181.818C884.523 182.292 884.292 182.706 883.958 183.062C883.629 183.415 883.214 183.689 882.714 183.886C882.218 184.08 881.652 184.176 881.015 184.176ZM886.468 184V175.273H888.11V176.659H888.201C888.36 176.189 888.641 175.82 889.042 175.551C889.448 175.278 889.906 175.142 890.417 175.142C890.523 175.142 890.648 175.146 890.792 175.153C890.94 175.161 891.056 175.17 891.139 175.182V176.807C891.071 176.788 890.949 176.767 890.775 176.744C890.601 176.718 890.427 176.705 890.253 176.705C889.851 176.705 889.493 176.79 889.179 176.96C888.868 177.127 888.622 177.36 888.44 177.659C888.258 177.955 888.167 178.292 888.167 178.67V184H886.468Z" fill="#1E1E1E"/>
</g>
<g id="NumPy arrays">
<rect id="Shape_3" x="2" y="2" width="224" height="128" rx="6" fill="white" stroke="#757575" stroke-width="4" stroke-linecap="round"/>
<path id="Text_3" d="M72.1931 60.3636V72H70.5795L64.6647 63.4659H64.5568V72H62.8011V60.3636H64.4261L70.3465 68.9091H70.4545V60.3636H72.1931ZM79.9703 68.3807V63.2727H81.6748V72H80.0044V70.4886H79.9134C79.7127 70.9545 79.3907 71.3428 78.9475 71.6534C78.5081 71.9602 77.9608 72.1136 77.3055 72.1136C76.7449 72.1136 76.2487 71.9905 75.8169 71.7443C75.3888 71.4943 75.0517 71.125 74.8055 70.6364C74.5631 70.1477 74.4419 69.5436 74.4419 68.8239V63.2727H76.1407V68.6193C76.1407 69.214 76.3055 69.6875 76.635 70.0398C76.9646 70.392 77.3926 70.5682 77.9191 70.5682C78.2373 70.5682 78.5536 70.4886 78.868 70.3295C79.1862 70.1705 79.4494 69.9299 79.6578 69.608C79.8699 69.286 79.9741 68.8769 79.9703 68.3807ZM83.7815 72V63.2727H85.4122V64.6932H85.5201C85.7019 64.2121 85.9993 63.8371 86.4122 63.5682C86.825 63.2955 87.3194 63.1591 87.8951 63.1591C88.4785 63.1591 88.9671 63.2955 89.361 63.5682C89.7588 63.8409 90.0523 64.2159 90.2417 64.6932H90.3326C90.541 64.2273 90.8724 63.8561 91.3269 63.5795C91.7815 63.2992 92.3231 63.1591 92.9519 63.1591C93.7436 63.1591 94.3894 63.4072 94.8894 63.9034C95.3932 64.3996 95.6451 65.1477 95.6451 66.1477V72H93.9463V66.3068C93.9463 65.7159 93.7853 65.2879 93.4633 65.0227C93.1413 64.7576 92.7569 64.625 92.3099 64.625C91.7569 64.625 91.3269 64.7955 91.0201 65.1364C90.7133 65.4735 90.5599 65.9072 90.5599 66.4375V72H88.8667V66.1989C88.8667 65.7254 88.719 65.3447 88.4235 65.0568C88.1281 64.7689 87.7436 64.625 87.2701 64.625C86.9481 64.625 86.6508 64.7102 86.3781 64.8807C86.1091 65.0473 85.8913 65.2803 85.7247 65.5795C85.5618 65.8788 85.4803 66.2254 85.4803 66.6193V72H83.7815ZM97.8825 72V60.3636H102.03C102.936 60.3636 103.686 60.5284 104.28 60.858C104.875 61.1875 105.32 61.6383 105.615 62.2102C105.911 62.7784 106.059 63.4186 106.059 64.1307C106.059 64.8466 105.909 65.4905 105.61 66.0625C105.314 66.6307 104.867 67.0814 104.269 67.4148C103.674 67.7443 102.926 67.9091 102.025 67.9091H99.1722V66.4205H101.865C102.437 66.4205 102.901 66.322 103.257 66.125C103.614 65.9242 103.875 65.6515 104.042 65.3068C104.208 64.9621 104.292 64.5701 104.292 64.1307C104.292 63.6913 104.208 63.3011 104.042 62.9602C103.875 62.6193 103.612 62.3523 103.252 62.1591C102.896 61.9659 102.426 61.8693 101.843 61.8693H99.6382V72H97.8825ZM108.878 75.2727C108.625 75.2727 108.393 75.2519 108.185 75.2102C107.977 75.1723 107.822 75.1307 107.719 75.0852L108.128 73.6932C108.439 73.7765 108.715 73.8125 108.958 73.8011C109.2 73.7898 109.414 73.6989 109.6 73.5284C109.789 73.358 109.956 73.0795 110.1 72.6932L110.31 72.1136L107.117 63.2727H108.935L111.145 70.0455H111.236L113.447 63.2727H115.27L111.674 73.1648C111.507 73.6193 111.295 74.0038 111.037 74.3182C110.78 74.6364 110.473 74.875 110.117 75.0341C109.761 75.1932 109.348 75.2727 108.878 75.2727ZM123.289 72.1932C122.736 72.1932 122.236 72.0909 121.789 71.8864C121.342 71.678 120.988 71.3769 120.727 70.983C120.469 70.589 120.34 70.1061 120.34 69.5341C120.34 69.0417 120.435 68.6364 120.624 68.3182C120.814 68 121.069 67.7481 121.391 67.5625C121.713 67.3769 122.073 67.2367 122.471 67.142C122.869 67.0473 123.274 66.9754 123.687 66.9261C124.21 66.8655 124.634 66.8163 124.96 66.7784C125.285 66.7367 125.522 66.6705 125.67 66.5795C125.818 66.4886 125.891 66.3409 125.891 66.1364V66.0966C125.891 65.6004 125.751 65.2159 125.471 64.9432C125.194 64.6705 124.782 64.5341 124.232 64.5341C123.66 64.5341 123.21 64.661 122.88 64.9148C122.554 65.1648 122.329 65.4432 122.204 65.75L120.607 65.3864C120.797 64.8561 121.073 64.428 121.437 64.1023C121.804 63.7727 122.227 63.5341 122.704 63.3864C123.181 63.2348 123.683 63.1591 124.21 63.1591C124.558 63.1591 124.927 63.2008 125.318 63.2841C125.711 63.3636 126.079 63.5114 126.42 63.7273C126.765 63.9432 127.047 64.2519 127.266 64.6534C127.486 65.0511 127.596 65.5682 127.596 66.2045V72H125.937V70.8068H125.869C125.759 71.0265 125.594 71.2424 125.374 71.4545C125.155 71.6667 124.872 71.8428 124.528 71.983C124.183 72.1231 123.77 72.1932 123.289 72.1932ZM123.658 70.8295C124.128 70.8295 124.53 70.7367 124.863 70.5511C125.2 70.3655 125.456 70.1231 125.63 69.8239C125.808 69.5208 125.897 69.197 125.897 68.8523V67.7273C125.836 67.7879 125.719 67.8447 125.545 67.8977C125.374 67.947 125.179 67.9905 124.96 68.0284C124.74 68.0625 124.526 68.0947 124.318 68.125C124.109 68.1515 123.935 68.1742 123.795 68.1932C123.465 68.2348 123.164 68.3049 122.891 68.4034C122.622 68.5019 122.407 68.6439 122.244 68.8295C122.085 69.0114 122.005 69.2538 122.005 69.5568C122.005 69.9773 122.16 70.2955 122.471 70.5114C122.782 70.7235 123.177 70.8295 123.658 70.8295ZM129.683 72V63.2727H131.325V64.6591H131.416C131.575 64.1894 131.855 63.8201 132.257 63.5511C132.662 63.2784 133.12 63.142 133.632 63.142C133.738 63.142 133.863 63.1458 134.007 63.1534C134.154 63.161 134.27 63.1705 134.353 63.1818V64.8068C134.285 64.7879 134.164 64.767 133.99 64.7443C133.815 64.7178 133.641 64.7045 133.467 64.7045C133.065 64.7045 132.707 64.7898 132.393 64.9602C132.082 65.1269 131.836 65.3598 131.654 65.6591C131.472 65.9545 131.382 66.2917 131.382 66.6705V72H129.683ZM135.647 72V63.2727H137.289V64.6591H137.38C137.539 64.1894 137.82 63.8201 138.221 63.5511C138.627 63.2784 139.085 63.142 139.596 63.142C139.702 63.142 139.827 63.1458 139.971 63.1534C140.119 63.161 140.234 63.1705 140.318 63.1818V64.8068C140.25 64.7879 140.128 64.767 139.954 64.7443C139.78 64.7178 139.606 64.7045 139.431 64.7045C139.03 64.7045 138.672 64.7898 138.358 64.9602C138.047 65.1269 137.801 65.3598 137.619 65.6591C137.437 65.9545 137.346 66.2917 137.346 66.6705V72H135.647ZM144.074 72.1932C143.521 72.1932 143.021 72.0909 142.574 71.8864C142.127 71.678 141.772 71.3769 141.511 70.983C141.254 70.589 141.125 70.1061 141.125 69.5341C141.125 69.0417 141.219 68.6364 141.409 68.3182C141.598 68 141.854 67.7481 142.176 67.5625C142.498 67.3769 142.858 67.2367 143.255 67.142C143.653 67.0473 144.058 66.9754 144.471 66.9261C144.994 66.8655 145.418 66.8163 145.744 66.7784C146.07 66.7367 146.307 66.6705 146.454 66.5795C146.602 66.4886 146.676 66.3409 146.676 66.1364V66.0966C146.676 65.6004 146.536 65.2159 146.255 64.9432C145.979 64.6705 145.566 64.5341 145.017 64.5341C144.445 64.5341 143.994 64.661 143.665 64.9148C143.339 65.1648 143.113 65.4432 142.988 65.75L141.392 65.3864C141.581 64.8561 141.858 64.428 142.221 64.1023C142.589 63.7727 143.011 63.5341 143.488 63.3864C143.966 63.2348 144.468 63.1591 144.994 63.1591C145.343 63.1591 145.712 63.2008 146.102 63.2841C146.496 63.3636 146.863 63.5114 147.204 63.7273C147.549 63.9432 147.831 64.2519 148.051 64.6534C148.271 65.0511 148.38 65.5682 148.38 66.2045V72H146.721V70.8068H146.653C146.543 71.0265 146.379 71.2424 146.159 71.4545C145.939 71.6667 145.657 71.8428 145.312 71.983C144.968 72.1231 144.555 72.1932 144.074 72.1932ZM144.443 70.8295C144.913 70.8295 145.314 70.7367 145.647 70.5511C145.985 70.3655 146.24 70.1231 146.415 69.8239C146.593 69.5208 146.682 69.197 146.682 68.8523V67.7273C146.621 67.7879 146.504 67.8447 146.329 67.8977C146.159 67.947 145.964 67.9905 145.744 68.0284C145.524 68.0625 145.31 68.0947 145.102 68.125C144.894 68.1515 144.719 68.1742 144.579 68.1932C144.25 68.2348 143.949 68.3049 143.676 68.4034C143.407 68.5019 143.191 68.6439 143.028 68.8295C142.869 69.0114 142.79 69.2538 142.79 69.5568C142.79 69.9773 142.945 70.2955 143.255 70.5114C143.566 70.7235 143.962 70.8295 144.443 70.8295ZM151.229 75.2727C150.975 75.2727 150.744 75.2519 150.535 75.2102C150.327 75.1723 150.172 75.1307 150.069 75.0852L150.479 73.6932C150.789 73.7765 151.066 73.8125 151.308 73.8011C151.551 73.7898 151.765 73.6989 151.95 73.5284C152.14 73.358 152.306 73.0795 152.45 72.6932L152.66 72.1136L149.467 63.2727H151.285L153.496 70.0455H153.587L155.797 63.2727H157.621L154.024 73.1648C153.857 73.6193 153.645 74.0038 153.388 74.3182C153.13 74.6364 152.823 74.875 152.467 75.0341C152.111 75.1932 151.698 75.2727 151.229 75.2727ZM165.581 65.4034L164.041 65.6761C163.977 65.4792 163.875 65.2917 163.734 65.1136C163.598 64.9356 163.412 64.7898 163.178 64.6761C162.943 64.5625 162.649 64.5057 162.297 64.5057C161.816 64.5057 161.414 64.6136 161.092 64.8295C160.77 65.0417 160.609 65.3163 160.609 65.6534C160.609 65.9451 160.717 66.1799 160.933 66.358C161.149 66.536 161.498 66.6818 161.979 66.7955L163.365 67.1136C164.168 67.2992 164.767 67.5852 165.161 67.9716C165.554 68.358 165.751 68.8598 165.751 69.4773C165.751 70 165.6 70.4659 165.297 70.875C164.998 71.2803 164.579 71.5985 164.041 71.8295C163.507 72.0606 162.888 72.1761 162.183 72.1761C161.206 72.1761 160.409 71.9678 159.791 71.5511C159.174 71.1307 158.795 70.5341 158.655 69.7614L160.297 69.5114C160.399 69.9394 160.609 70.2633 160.928 70.483C161.246 70.6989 161.661 70.8068 162.172 70.8068C162.729 70.8068 163.174 70.6913 163.507 70.4602C163.84 70.2254 164.007 69.9394 164.007 69.6023C164.007 69.3295 163.905 69.1004 163.7 68.9148C163.5 68.7292 163.191 68.589 162.774 68.4943L161.297 68.1705C160.483 67.9848 159.88 67.6894 159.49 67.2841C159.104 66.8788 158.911 66.3655 158.911 65.7443C158.911 65.2292 159.054 64.7784 159.342 64.392C159.63 64.0057 160.028 63.7045 160.536 63.4886C161.043 63.2689 161.625 63.1591 162.28 63.1591C163.223 63.1591 163.965 63.3636 164.507 63.7727C165.049 64.178 165.407 64.7216 165.581 65.4034Z" fill="#1E1E1E"/>
</g>
<g id="spectra.embed">
<rect id="Shape_4" x="354" y="2" width="224" height="128" rx="6" fill="white" stroke="#757575" stroke-width="4" stroke-linecap="round"/>
<path id="Text_4" d="M416.972 65.4034L415.432 65.6761C415.368 65.4792 415.266 65.2917 415.126 65.1136C414.989 64.9356 414.804 64.7898 414.569 64.6761C414.334 64.5625 414.04 64.5057 413.688 64.5057C413.207 64.5057 412.806 64.6136 412.484 64.8295C412.162 65.0417 412.001 65.3163 412.001 65.6534C412.001 65.9451 412.109 66.1799 412.324 66.358C412.54 66.536 412.889 66.6818 413.37 66.7955L414.756 67.1136C415.559 67.2992 416.158 67.5852 416.552 67.9716C416.946 68.358 417.143 68.8598 417.143 69.4773C417.143 70 416.991 70.4659 416.688 70.875C416.389 71.2803 415.97 71.5985 415.432 71.8295C414.898 72.0606 414.279 72.1761 413.574 72.1761C412.597 72.1761 411.8 71.9678 411.182 71.5511C410.565 71.1307 410.186 70.5341 410.046 69.7614L411.688 69.5114C411.79 69.9394 412.001 70.2633 412.319 70.483C412.637 70.6989 413.052 70.8068 413.563 70.8068C414.12 70.8068 414.565 70.6913 414.898 70.4602C415.232 70.2254 415.398 69.9394 415.398 69.6023C415.398 69.3295 415.296 69.1004 415.092 68.9148C414.891 68.7292 414.582 68.589 414.165 68.4943L412.688 68.1705C411.874 67.9848 411.271 67.6894 410.881 67.2841C410.495 66.8788 410.302 66.3655 410.302 65.7443C410.302 65.2292 410.446 64.7784 410.734 64.392C411.021 64.0057 411.419 63.7045 411.927 63.4886C412.434 63.2689 413.016 63.1591 413.671 63.1591C414.614 63.1591 415.357 63.3636 415.898 63.7727C416.44 64.178 416.798 64.7216 416.972 65.4034ZM418.835 75.2727V63.2727H420.494V64.6875H420.636C420.734 64.5057 420.876 64.2955 421.062 64.0568C421.247 63.8182 421.505 63.6098 421.835 63.4318C422.164 63.25 422.6 63.1591 423.141 63.1591C423.846 63.1591 424.475 63.3371 425.028 63.6932C425.581 64.0492 426.014 64.5625 426.329 65.233C426.647 65.9034 426.806 66.7102 426.806 67.6534C426.806 68.5966 426.649 69.4053 426.335 70.0795C426.02 70.75 425.588 71.267 425.039 71.6307C424.49 71.9905 423.863 72.1705 423.158 72.1705C422.628 72.1705 422.194 72.0814 421.857 71.9034C421.524 71.7254 421.263 71.517 421.073 71.2784C420.884 71.0398 420.738 70.8277 420.636 70.642H420.533V75.2727H418.835ZM420.499 67.6364C420.499 68.25 420.588 68.7879 420.766 69.25C420.944 69.7121 421.202 70.0739 421.539 70.3352C421.876 70.5928 422.289 70.7216 422.778 70.7216C423.285 70.7216 423.71 70.5871 424.05 70.3182C424.391 70.0455 424.649 69.6761 424.823 69.2102C425.001 68.7443 425.09 68.2197 425.09 67.6364C425.09 67.0606 425.003 66.5436 424.829 66.0852C424.658 65.6269 424.401 65.2652 424.056 65C423.715 64.7348 423.289 64.6023 422.778 64.6023C422.285 64.6023 421.869 64.7292 421.528 64.983C421.191 65.2367 420.935 65.5909 420.761 66.0455C420.586 66.5 420.499 67.0303 420.499 67.6364ZM432.295 72.1761C431.435 72.1761 430.695 71.9924 430.073 71.625C429.456 71.2538 428.979 70.733 428.642 70.0625C428.308 69.3883 428.142 68.5985 428.142 67.6932C428.142 66.7992 428.308 66.0114 428.642 65.3295C428.979 64.6477 429.448 64.1155 430.051 63.733C430.657 63.3504 431.365 63.1591 432.176 63.1591C432.668 63.1591 433.145 63.2405 433.607 63.4034C434.07 63.5663 434.484 63.822 434.852 64.1705C435.219 64.5189 435.509 64.9716 435.721 65.5284C435.933 66.0814 436.039 66.7538 436.039 67.5455V68.1477H429.102V66.875H434.374C434.374 66.428 434.284 66.0322 434.102 65.6875C433.92 65.339 433.664 65.0644 433.335 64.8636C433.009 64.6629 432.626 64.5625 432.187 64.5625C431.71 64.5625 431.293 64.6799 430.937 64.9148C430.585 65.1458 430.312 65.4489 430.119 65.8239C429.929 66.1951 429.835 66.5985 429.835 67.0341V68.0284C429.835 68.6117 429.937 69.108 430.142 69.517C430.35 69.9261 430.64 70.2386 431.011 70.4545C431.382 70.6667 431.816 70.7727 432.312 70.7727C432.634 70.7727 432.927 70.7273 433.193 70.6364C433.458 70.5417 433.687 70.4015 433.88 70.2159C434.073 70.0303 434.221 69.8011 434.323 69.5284L435.931 69.8182C435.802 70.2917 435.571 70.7064 435.238 71.0625C434.909 71.4148 434.494 71.6894 433.994 71.8864C433.498 72.0795 432.931 72.1761 432.295 72.1761ZM441.424 72.1761C440.58 72.1761 439.852 71.9848 439.242 71.6023C438.636 71.2159 438.171 70.6837 437.845 70.0057C437.519 69.3277 437.356 68.5511 437.356 67.6761C437.356 66.7898 437.523 66.0076 437.856 65.3295C438.189 64.6477 438.659 64.1155 439.265 63.733C439.871 63.3504 440.585 63.1591 441.407 63.1591C442.07 63.1591 442.661 63.2822 443.18 63.5284C443.699 63.7708 444.117 64.1117 444.436 64.5511C444.758 64.9905 444.949 65.5038 445.01 66.0909H443.356C443.265 65.6818 443.057 65.3295 442.731 65.0341C442.409 64.7386 441.977 64.5909 441.436 64.5909C440.962 64.5909 440.547 64.7159 440.191 64.9659C439.839 65.2121 439.564 65.5644 439.367 66.0227C439.171 66.4773 439.072 67.0152 439.072 67.6364C439.072 68.2727 439.169 68.822 439.362 69.2841C439.555 69.7462 439.828 70.1042 440.18 70.358C440.536 70.6117 440.955 70.7386 441.436 70.7386C441.758 70.7386 442.049 70.6799 442.311 70.5625C442.576 70.4413 442.797 70.2689 442.975 70.0455C443.157 69.822 443.284 69.553 443.356 69.2386H445.01C444.949 69.803 444.765 70.3068 444.458 70.75C444.152 71.1932 443.741 71.5417 443.225 71.7955C442.714 72.0492 442.114 72.1761 441.424 72.1761ZM450.724 63.2727V64.6364H445.957V63.2727H450.724ZM447.236 61.1818H448.934V69.4375C448.934 69.767 448.984 70.0152 449.082 70.1818C449.181 70.3447 449.307 70.4564 449.463 70.517C449.622 70.5739 449.794 70.6023 449.98 70.6023C450.116 70.6023 450.236 70.5928 450.338 70.5739C450.44 70.5549 450.52 70.5398 450.576 70.5284L450.883 71.9318C450.785 71.9697 450.645 72.0076 450.463 72.0455C450.281 72.0871 450.054 72.1098 449.781 72.1136C449.334 72.1212 448.917 72.0417 448.531 71.875C448.145 71.7083 447.832 71.4508 447.593 71.1023C447.355 70.7538 447.236 70.3163 447.236 69.7898V61.1818ZM452.427 72V63.2727H454.069V64.6591H454.16C454.319 64.1894 454.6 63.8201 455.001 63.5511C455.407 63.2784 455.865 63.142 456.376 63.142C456.482 63.142 456.607 63.1458 456.751 63.1534C456.899 63.161 457.015 63.1705 457.098 63.1818V64.8068C457.03 64.7879 456.908 64.767 456.734 64.7443C456.56 64.7178 456.386 64.7045 456.212 64.7045C455.81 64.7045 455.452 64.7898 455.138 64.9602C454.827 65.1269 454.581 65.3598 454.399 65.6591C454.217 65.9545 454.126 66.2917 454.126 66.6705V72H452.427ZM460.854 72.1932C460.301 72.1932 459.801 72.0909 459.354 71.8864C458.907 71.678 458.553 71.3769 458.291 70.983C458.034 70.589 457.905 70.1061 457.905 69.5341C457.905 69.0417 458 68.6364 458.189 68.3182C458.378 68 458.634 67.7481 458.956 67.5625C459.278 67.3769 459.638 67.2367 460.036 67.142C460.433 67.0473 460.839 66.9754 461.251 66.9261C461.774 66.8655 462.198 66.8163 462.524 66.7784C462.85 66.7367 463.087 66.6705 463.234 66.5795C463.382 66.4886 463.456 66.3409 463.456 66.1364V66.0966C463.456 65.6004 463.316 65.2159 463.036 64.9432C462.759 64.6705 462.346 64.5341 461.797 64.5341C461.225 64.5341 460.774 64.661 460.445 64.9148C460.119 65.1648 459.893 65.4432 459.768 65.75L458.172 65.3864C458.361 64.8561 458.638 64.428 459.001 64.1023C459.369 63.7727 459.791 63.5341 460.268 63.3864C460.746 63.2348 461.248 63.1591 461.774 63.1591C462.123 63.1591 462.492 63.2008 462.882 63.2841C463.276 63.3636 463.643 63.5114 463.984 63.7273C464.329 63.9432 464.611 64.2519 464.831 64.6534C465.051 65.0511 465.161 65.5682 465.161 66.2045V72H463.501V70.8068H463.433C463.323 71.0265 463.159 71.2424 462.939 71.4545C462.719 71.6667 462.437 71.8428 462.092 71.983C461.748 72.1231 461.335 72.1932 460.854 72.1932ZM461.223 70.8295C461.693 70.8295 462.094 70.7367 462.428 70.5511C462.765 70.3655 463.02 70.1231 463.195 69.8239C463.373 69.5208 463.462 69.197 463.462 68.8523V67.7273C463.401 67.7879 463.284 67.8447 463.109 67.8977C462.939 67.947 462.744 67.9905 462.524 68.0284C462.304 68.0625 462.09 68.0947 461.882 68.125C461.674 68.1515 461.5 68.1742 461.359 68.1932C461.03 68.2348 460.729 68.3049 460.456 68.4034C460.187 68.5019 459.971 68.6439 459.808 68.8295C459.649 69.0114 459.57 69.2538 459.57 69.5568C459.57 69.9773 459.725 70.2955 460.036 70.5114C460.346 70.7235 460.742 70.8295 461.223 70.8295ZM468.367 72.108C468.056 72.108 467.789 71.9981 467.565 71.7784C467.342 71.5549 467.23 71.286 467.23 70.9716C467.23 70.661 467.342 70.3958 467.565 70.1761C467.789 69.9527 468.056 69.8409 468.367 69.8409C468.677 69.8409 468.944 69.9527 469.168 70.1761C469.391 70.3958 469.503 70.661 469.503 70.9716C469.503 71.1799 469.45 71.3712 469.344 71.5455C469.242 71.7159 469.105 71.8523 468.935 71.9545C468.764 72.0568 468.575 72.108 468.367 72.108ZM475.364 72.1761C474.504 72.1761 473.764 71.9924 473.142 71.625C472.525 71.2538 472.048 70.733 471.71 70.0625C471.377 69.3883 471.21 68.5985 471.21 67.6932C471.21 66.7992 471.377 66.0114 471.71 65.3295C472.048 64.6477 472.517 64.1155 473.12 63.733C473.726 63.3504 474.434 63.1591 475.245 63.1591C475.737 63.1591 476.214 63.2405 476.676 63.4034C477.139 63.5663 477.553 63.822 477.921 64.1705C478.288 64.5189 478.578 64.9716 478.79 65.5284C479.002 66.0814 479.108 66.7538 479.108 67.5455V68.1477H472.171V66.875H477.443C477.443 66.428 477.353 66.0322 477.171 65.6875C476.989 65.339 476.733 65.0644 476.404 64.8636C476.078 64.6629 475.695 64.5625 475.256 64.5625C474.779 64.5625 474.362 64.6799 474.006 64.9148C473.654 65.1458 473.381 65.4489 473.188 65.8239C472.998 66.1951 472.904 66.5985 472.904 67.0341V68.0284C472.904 68.6117 473.006 69.108 473.21 69.517C473.419 69.9261 473.709 70.2386 474.08 70.4545C474.451 70.6667 474.885 70.7727 475.381 70.7727C475.703 70.7727 475.996 70.7273 476.262 70.6364C476.527 70.5417 476.756 70.4015 476.949 70.2159C477.142 70.0303 477.29 69.8011 477.392 69.5284L479 69.8182C478.871 70.2917 478.64 70.7064 478.307 71.0625C477.978 71.4148 477.563 71.6894 477.063 71.8864C476.567 72.0795 476 72.1761 475.364 72.1761ZM480.817 72V63.2727H482.448V64.6932H482.556C482.738 64.2121 483.035 63.8371 483.448 63.5682C483.861 63.2955 484.355 63.1591 484.931 63.1591C485.514 63.1591 486.003 63.2955 486.397 63.5682C486.794 63.8409 487.088 64.2159 487.277 64.6932H487.368C487.577 64.2273 487.908 63.8561 488.363 63.5795C488.817 63.2992 489.359 63.1591 489.988 63.1591C490.779 63.1591 491.425 63.4072 491.925 63.9034C492.429 64.3996 492.681 65.1477 492.681 66.1477V72H490.982V66.3068C490.982 65.7159 490.821 65.2879 490.499 65.0227C490.177 64.7576 489.793 64.625 489.346 64.625C488.793 64.625 488.363 64.7955 488.056 65.1364C487.749 65.4735 487.596 65.9072 487.596 66.4375V72H485.902V66.1989C485.902 65.7254 485.755 65.3447 485.459 65.0568C485.164 64.7689 484.779 64.625 484.306 64.625C483.984 64.625 483.686 64.7102 483.414 64.8807C483.145 65.0473 482.927 65.2803 482.76 65.5795C482.597 65.8788 482.516 66.2254 482.516 66.6193V72H480.817ZM494.918 72V60.3636H496.617V64.6875H496.719C496.818 64.5057 496.96 64.2955 497.145 64.0568C497.331 63.8182 497.589 63.6098 497.918 63.4318C498.248 63.25 498.683 63.1591 499.225 63.1591C499.93 63.1591 500.558 63.3371 501.111 63.6932C501.664 64.0492 502.098 64.5625 502.412 65.233C502.731 65.9034 502.89 66.7102 502.89 67.6534C502.89 68.5966 502.733 69.4053 502.418 70.0795C502.104 70.75 501.672 71.267 501.123 71.6307C500.573 71.9905 499.947 72.1705 499.242 72.1705C498.712 72.1705 498.278 72.0814 497.941 71.9034C497.608 71.7254 497.346 71.517 497.157 71.2784C496.967 71.0398 496.822 70.8277 496.719 70.642H496.577V72H494.918ZM496.583 67.6364C496.583 68.25 496.672 68.7879 496.85 69.25C497.028 69.7121 497.286 70.0739 497.623 70.3352C497.96 70.5928 498.373 70.7216 498.861 70.7216C499.369 70.7216 499.793 70.5871 500.134 70.3182C500.475 70.0455 500.733 69.6761 500.907 69.2102C501.085 68.7443 501.174 68.2197 501.174 67.6364C501.174 67.0606 501.087 66.5436 500.912 66.0852C500.742 65.6269 500.484 65.2652 500.14 65C499.799 64.7348 499.373 64.6023 498.861 64.6023C498.369 64.6023 497.952 64.7292 497.611 64.983C497.274 65.2367 497.019 65.5909 496.844 66.0455C496.67 66.5 496.583 67.0303 496.583 67.6364ZM508.383 72.1761C507.523 72.1761 506.782 71.9924 506.161 71.625C505.544 71.2538 505.066 70.733 504.729 70.0625C504.396 69.3883 504.229 68.5985 504.229 67.6932C504.229 66.7992 504.396 66.0114 504.729 65.3295C505.066 64.6477 505.536 64.1155 506.138 63.733C506.745 63.3504 507.453 63.1591 508.263 63.1591C508.756 63.1591 509.233 63.2405 509.695 63.4034C510.157 63.5663 510.572 63.822 510.94 64.1705C511.307 64.5189 511.597 64.9716 511.809 65.5284C512.021 66.0814 512.127 66.7538 512.127 67.5455V68.1477H505.19V66.875H510.462C510.462 66.428 510.371 66.0322 510.19 65.6875C510.008 65.339 509.752 65.0644 509.423 64.8636C509.097 64.6629 508.714 64.5625 508.275 64.5625C507.798 64.5625 507.381 64.6799 507.025 64.9148C506.673 65.1458 506.4 65.4489 506.207 65.8239C506.017 66.1951 505.923 66.5985 505.923 67.0341V68.0284C505.923 68.6117 506.025 69.108 506.229 69.517C506.438 69.9261 506.727 70.2386 507.099 70.4545C507.47 70.6667 507.904 70.7727 508.4 70.7727C508.722 70.7727 509.015 70.7273 509.281 70.6364C509.546 70.5417 509.775 70.4015 509.968 70.2159C510.161 70.0303 510.309 69.8011 510.411 69.5284L512.019 69.8182C511.89 70.2917 511.659 70.7064 511.326 71.0625C510.996 71.4148 510.582 71.6894 510.082 71.8864C509.585 72.0795 509.019 72.1761 508.383 72.1761ZM517.103 72.1705C516.399 72.1705 515.77 71.9905 515.217 71.6307C514.667 71.267 514.236 70.75 513.921 70.0795C513.611 69.4053 513.455 68.5966 513.455 67.6534C513.455 66.7102 513.613 65.9034 513.927 65.233C514.245 64.5625 514.681 64.0492 515.234 63.6932C515.787 63.3371 516.414 63.1591 517.114 63.1591C517.656 63.1591 518.092 63.25 518.421 63.4318C518.755 63.6098 519.012 63.8182 519.194 64.0568C519.38 64.2955 519.524 64.5057 519.626 64.6875H519.728V60.3636H521.427V72H519.768V70.642H519.626C519.524 70.8277 519.376 71.0398 519.183 71.2784C518.993 71.517 518.732 71.7254 518.399 71.9034C518.065 72.0814 517.633 72.1705 517.103 72.1705ZM517.478 70.7216C517.967 70.7216 518.38 70.5928 518.717 70.3352C519.058 70.0739 519.315 69.7121 519.489 69.25C519.667 68.7879 519.757 68.25 519.757 67.6364C519.757 67.0303 519.669 66.5 519.495 66.0455C519.321 65.5909 519.065 65.2367 518.728 64.983C518.391 64.7292 517.974 64.6023 517.478 64.6023C516.967 64.6023 516.541 64.7348 516.2 65C515.859 65.2652 515.601 65.6269 515.427 66.0852C515.257 66.5436 515.171 67.0606 515.171 67.6364C515.171 68.2197 515.258 68.7443 515.433 69.2102C515.607 69.6761 515.864 70.0455 516.205 70.3182C516.55 70.5871 516.974 70.7216 517.478 70.7216Z" fill="#1E1E1E"/>
</g>
<g id="Headless App">
<rect id="Shape_5" x="1058" y="114" width="224" height="128" rx="6" fill="white" stroke="#757575" stroke-width="4" stroke-linecap="round"/>
<path id="Text_5" d="M1119.19 184V172.364H1120.95V177.42H1126.75V172.364H1128.51V184H1126.75V178.926H1120.95V184H1119.19ZM1134.52 184.176C1133.66 184.176 1132.92 183.992 1132.29 183.625C1131.68 183.254 1131.2 182.733 1130.86 182.062C1130.53 181.388 1130.36 180.598 1130.36 179.693C1130.36 178.799 1130.53 178.011 1130.86 177.33C1131.2 176.648 1131.67 176.116 1132.27 175.733C1132.88 175.35 1133.59 175.159 1134.4 175.159C1134.89 175.159 1135.37 175.241 1135.83 175.403C1136.29 175.566 1136.71 175.822 1137.07 176.17C1137.44 176.519 1137.73 176.972 1137.94 177.528C1138.15 178.081 1138.26 178.754 1138.26 179.545V180.148H1131.32V178.875H1136.6C1136.6 178.428 1136.5 178.032 1136.32 177.688C1136.14 177.339 1135.89 177.064 1135.56 176.864C1135.23 176.663 1134.85 176.562 1134.41 176.562C1133.93 176.562 1133.51 176.68 1133.16 176.915C1132.81 177.146 1132.53 177.449 1132.34 177.824C1132.15 178.195 1132.06 178.598 1132.06 179.034V180.028C1132.06 180.612 1132.16 181.108 1132.36 181.517C1132.57 181.926 1132.86 182.239 1133.23 182.455C1133.6 182.667 1134.04 182.773 1134.53 182.773C1134.85 182.773 1135.15 182.727 1135.41 182.636C1135.68 182.542 1135.91 182.402 1136.1 182.216C1136.29 182.03 1136.44 181.801 1136.54 181.528L1138.15 181.818C1138.02 182.292 1137.79 182.706 1137.46 183.062C1137.13 183.415 1136.71 183.689 1136.21 183.886C1135.72 184.08 1135.15 184.176 1134.52 184.176ZM1142.51 184.193C1141.96 184.193 1141.46 184.091 1141.01 183.886C1140.56 183.678 1140.21 183.377 1139.95 182.983C1139.69 182.589 1139.56 182.106 1139.56 181.534C1139.56 181.042 1139.65 180.636 1139.84 180.318C1140.03 180 1140.29 179.748 1140.61 179.562C1140.93 179.377 1141.29 179.237 1141.69 179.142C1142.09 179.047 1142.49 178.975 1142.91 178.926C1143.43 178.866 1143.85 178.816 1144.18 178.778C1144.5 178.737 1144.74 178.67 1144.89 178.58C1145.04 178.489 1145.11 178.341 1145.11 178.136V178.097C1145.11 177.6 1144.97 177.216 1144.69 176.943C1144.41 176.67 1144 176.534 1143.45 176.534C1142.88 176.534 1142.43 176.661 1142.1 176.915C1141.77 177.165 1141.55 177.443 1141.42 177.75L1139.83 177.386C1140.02 176.856 1140.29 176.428 1140.66 176.102C1141.02 175.773 1141.45 175.534 1141.92 175.386C1142.4 175.235 1142.9 175.159 1143.43 175.159C1143.78 175.159 1144.15 175.201 1144.54 175.284C1144.93 175.364 1145.3 175.511 1145.64 175.727C1145.98 175.943 1146.27 176.252 1146.49 176.653C1146.71 177.051 1146.82 177.568 1146.82 178.205V184H1145.16V182.807H1145.09C1144.98 183.027 1144.81 183.242 1144.59 183.455C1144.37 183.667 1144.09 183.843 1143.75 183.983C1143.4 184.123 1142.99 184.193 1142.51 184.193ZM1142.88 182.83C1143.35 182.83 1143.75 182.737 1144.08 182.551C1144.42 182.366 1144.68 182.123 1144.85 181.824C1145.03 181.521 1145.12 181.197 1145.12 180.852V179.727C1145.06 179.788 1144.94 179.845 1144.76 179.898C1144.59 179.947 1144.4 179.991 1144.18 180.028C1143.96 180.062 1143.75 180.095 1143.54 180.125C1143.33 180.152 1143.15 180.174 1143.01 180.193C1142.68 180.235 1142.38 180.305 1142.11 180.403C1141.84 180.502 1141.63 180.644 1141.46 180.83C1141.3 181.011 1141.22 181.254 1141.22 181.557C1141.22 181.977 1141.38 182.295 1141.69 182.511C1142 182.723 1142.4 182.83 1142.88 182.83ZM1152.17 184.17C1151.46 184.17 1150.84 183.991 1150.28 183.631C1149.73 183.267 1149.3 182.75 1148.99 182.08C1148.68 181.405 1148.52 180.597 1148.52 179.653C1148.52 178.71 1148.68 177.903 1148.99 177.233C1149.31 176.562 1149.75 176.049 1150.3 175.693C1150.85 175.337 1151.48 175.159 1152.18 175.159C1152.72 175.159 1153.16 175.25 1153.49 175.432C1153.82 175.61 1154.08 175.818 1154.26 176.057C1154.45 176.295 1154.59 176.506 1154.69 176.688H1154.79V172.364H1156.49V184H1154.83V182.642H1154.69C1154.59 182.828 1154.44 183.04 1154.25 183.278C1154.06 183.517 1153.8 183.725 1153.46 183.903C1153.13 184.081 1152.7 184.17 1152.17 184.17ZM1152.54 182.722C1153.03 182.722 1153.45 182.593 1153.78 182.335C1154.12 182.074 1154.38 181.712 1154.56 181.25C1154.73 180.788 1154.82 180.25 1154.82 179.636C1154.82 179.03 1154.74 178.5 1154.56 178.045C1154.39 177.591 1154.13 177.237 1153.79 176.983C1153.46 176.729 1153.04 176.602 1152.54 176.602C1152.03 176.602 1151.61 176.735 1151.27 177C1150.93 177.265 1150.67 177.627 1150.49 178.085C1150.32 178.544 1150.24 179.061 1150.24 179.636C1150.24 180.22 1150.32 180.744 1150.5 181.21C1150.67 181.676 1150.93 182.045 1151.27 182.318C1151.62 182.587 1152.04 182.722 1152.54 182.722ZM1160.44 172.364V184H1158.74V172.364H1160.44ZM1166.31 184.176C1165.45 184.176 1164.71 183.992 1164.09 183.625C1163.47 183.254 1163 182.733 1162.66 182.062C1162.32 181.388 1162.16 180.598 1162.16 179.693C1162.16 178.799 1162.32 178.011 1162.66 177.33C1163 176.648 1163.47 176.116 1164.07 175.733C1164.67 175.35 1165.38 175.159 1166.19 175.159C1166.68 175.159 1167.16 175.241 1167.62 175.403C1168.09 175.566 1168.5 175.822 1168.87 176.17C1169.24 176.519 1169.53 176.972 1169.74 177.528C1169.95 178.081 1170.06 178.754 1170.06 179.545V180.148H1163.12V178.875H1168.39C1168.39 178.428 1168.3 178.032 1168.12 177.688C1167.94 177.339 1167.68 177.064 1167.35 176.864C1167.03 176.663 1166.64 176.562 1166.2 176.562C1165.73 176.562 1165.31 176.68 1164.95 176.915C1164.6 177.146 1164.33 177.449 1164.14 177.824C1163.95 178.195 1163.85 178.598 1163.85 179.034V180.028C1163.85 180.612 1163.95 181.108 1164.16 181.517C1164.37 181.926 1164.66 182.239 1165.03 182.455C1165.4 182.667 1165.83 182.773 1166.33 182.773C1166.65 182.773 1166.94 182.727 1167.21 182.636C1167.47 182.542 1167.7 182.402 1167.9 182.216C1168.09 182.03 1168.24 181.801 1168.34 181.528L1169.95 181.818C1169.82 182.292 1169.59 182.706 1169.25 183.062C1168.93 183.415 1168.51 183.689 1168.01 183.886C1167.51 184.08 1166.95 184.176 1166.31 184.176ZM1178.3 177.403L1176.76 177.676C1176.7 177.479 1176.6 177.292 1176.46 177.114C1176.32 176.936 1176.14 176.79 1175.9 176.676C1175.67 176.562 1175.37 176.506 1175.02 176.506C1174.54 176.506 1174.14 176.614 1173.82 176.83C1173.49 177.042 1173.33 177.316 1173.33 177.653C1173.33 177.945 1173.44 178.18 1173.66 178.358C1173.87 178.536 1174.22 178.682 1174.7 178.795L1176.09 179.114C1176.89 179.299 1177.49 179.585 1177.88 179.972C1178.28 180.358 1178.48 180.86 1178.48 181.477C1178.48 182 1178.32 182.466 1178.02 182.875C1177.72 183.28 1177.3 183.598 1176.76 183.83C1176.23 184.061 1175.61 184.176 1174.91 184.176C1173.93 184.176 1173.13 183.968 1172.51 183.551C1171.9 183.131 1171.52 182.534 1171.38 181.761L1173.02 181.511C1173.12 181.939 1173.33 182.263 1173.65 182.483C1173.97 182.699 1174.38 182.807 1174.9 182.807C1175.45 182.807 1175.9 182.691 1176.23 182.46C1176.56 182.225 1176.73 181.939 1176.73 181.602C1176.73 181.33 1176.63 181.1 1176.42 180.915C1176.22 180.729 1175.91 180.589 1175.5 180.494L1174.02 180.17C1173.21 179.985 1172.6 179.689 1172.21 179.284C1171.83 178.879 1171.63 178.366 1171.63 177.744C1171.63 177.229 1171.78 176.778 1172.07 176.392C1172.35 176.006 1172.75 175.705 1173.26 175.489C1173.77 175.269 1174.35 175.159 1175 175.159C1175.95 175.159 1176.69 175.364 1177.23 175.773C1177.77 176.178 1178.13 176.722 1178.3 177.403ZM1186.71 177.403L1185.17 177.676C1185.1 177.479 1185 177.292 1184.86 177.114C1184.72 176.936 1184.54 176.79 1184.3 176.676C1184.07 176.562 1183.78 176.506 1183.42 176.506C1182.94 176.506 1182.54 176.614 1182.22 176.83C1181.9 177.042 1181.74 177.316 1181.74 177.653C1181.74 177.945 1181.84 178.18 1182.06 178.358C1182.28 178.536 1182.62 178.682 1183.1 178.795L1184.49 179.114C1185.29 179.299 1185.89 179.585 1186.29 179.972C1186.68 180.358 1186.88 180.86 1186.88 181.477C1186.88 182 1186.73 182.466 1186.42 182.875C1186.12 183.28 1185.7 183.598 1185.17 183.83C1184.63 184.061 1184.01 184.176 1183.31 184.176C1182.33 184.176 1181.53 183.968 1180.92 183.551C1180.3 183.131 1179.92 182.534 1179.78 181.761L1181.42 181.511C1181.53 181.939 1181.74 182.263 1182.05 182.483C1182.37 182.699 1182.79 182.807 1183.3 182.807C1183.85 182.807 1184.3 182.691 1184.63 182.46C1184.97 182.225 1185.13 181.939 1185.13 181.602C1185.13 181.33 1185.03 181.1 1184.83 180.915C1184.63 180.729 1184.32 180.589 1183.9 180.494L1182.42 180.17C1181.61 179.985 1181.01 179.689 1180.62 179.284C1180.23 178.879 1180.04 178.366 1180.04 177.744C1180.04 177.229 1180.18 176.778 1180.47 176.392C1180.76 176.006 1181.15 175.705 1181.66 175.489C1182.17 175.269 1182.75 175.159 1183.41 175.159C1184.35 175.159 1185.09 175.364 1185.63 175.773C1186.17 176.178 1186.53 176.722 1186.71 177.403ZM1193.75 184H1191.88L1196.07 172.364H1198.1L1202.29 184H1200.42L1197.13 174.477H1197.04L1193.75 184ZM1194.06 179.443H1200.1V180.92H1194.06V179.443ZM1203.65 187.273V175.273H1205.31V176.688H1205.46C1205.55 176.506 1205.7 176.295 1205.88 176.057C1206.07 175.818 1206.33 175.61 1206.65 175.432C1206.98 175.25 1207.42 175.159 1207.96 175.159C1208.67 175.159 1209.29 175.337 1209.85 175.693C1210.4 176.049 1210.83 176.562 1211.15 177.233C1211.47 177.903 1211.63 178.71 1211.63 179.653C1211.63 180.597 1211.47 181.405 1211.15 182.08C1210.84 182.75 1210.41 183.267 1209.86 183.631C1209.31 183.991 1208.68 184.17 1207.98 184.17C1207.45 184.17 1207.01 184.081 1206.68 183.903C1206.34 183.725 1206.08 183.517 1205.89 183.278C1205.7 183.04 1205.56 182.828 1205.46 182.642H1205.35V187.273H1203.65ZM1205.32 179.636C1205.32 180.25 1205.41 180.788 1205.59 181.25C1205.76 181.712 1206.02 182.074 1206.36 182.335C1206.7 182.593 1207.11 182.722 1207.6 182.722C1208.11 182.722 1208.53 182.587 1208.87 182.318C1209.21 182.045 1209.47 181.676 1209.64 181.21C1209.82 180.744 1209.91 180.22 1209.91 179.636C1209.91 179.061 1209.82 178.544 1209.65 178.085C1209.48 177.627 1209.22 177.265 1208.88 177C1208.54 176.735 1208.11 176.602 1207.6 176.602C1207.11 176.602 1206.69 176.729 1206.35 176.983C1206.01 177.237 1205.76 177.591 1205.58 178.045C1205.41 178.5 1205.32 179.03 1205.32 179.636ZM1213.35 187.273V175.273H1215.01V176.688H1215.15C1215.25 176.506 1215.4 176.295 1215.58 176.057C1215.77 175.818 1216.02 175.61 1216.35 175.432C1216.68 175.25 1217.12 175.159 1217.66 175.159C1218.37 175.159 1218.99 175.337 1219.55 175.693C1220.1 176.049 1220.53 176.562 1220.85 177.233C1221.17 177.903 1221.33 178.71 1221.33 179.653C1221.33 180.597 1221.17 181.405 1220.85 182.08C1220.54 182.75 1220.11 183.267 1219.56 183.631C1219.01 183.991 1218.38 184.17 1217.68 184.17C1217.15 184.17 1216.71 184.081 1216.38 183.903C1216.04 183.725 1215.78 183.517 1215.59 183.278C1215.4 183.04 1215.26 182.828 1215.15 182.642H1215.05V187.273H1213.35ZM1215.02 179.636C1215.02 180.25 1215.11 180.788 1215.29 181.25C1215.46 181.712 1215.72 182.074 1216.06 182.335C1216.4 182.593 1216.81 182.722 1217.3 182.722C1217.8 182.722 1218.23 182.587 1218.57 182.318C1218.91 182.045 1219.17 181.676 1219.34 181.21C1219.52 180.744 1219.61 180.22 1219.61 179.636C1219.61 179.061 1219.52 178.544 1219.35 178.085C1219.18 177.627 1218.92 177.265 1218.58 177C1218.23 176.735 1217.81 176.602 1217.3 176.602C1216.8 176.602 1216.39 176.729 1216.05 176.983C1215.71 177.237 1215.45 177.591 1215.28 178.045C1215.11 178.5 1215.02 179.03 1215.02 179.636Z" fill="#1E1E1E"/>
</g>
<g id="VulkanBackend offscreen">
<rect id="Shape_6" x="1410" y="114" width="224" height="128" rx="6" fill="white" stroke="#757575" stroke-width="4" stroke-linecap="round"/>
<path id="Text_6" d="M1428.41 172.364L1431.65 181.841H1431.78L1435.02 172.364H1436.92L1432.73 184H1430.7L1426.51 172.364H1428.41ZM1443.81 180.381V175.273H1445.52V184H1443.85V182.489H1443.76C1443.56 182.955 1443.23 183.343 1442.79 183.653C1442.35 183.96 1441.8 184.114 1441.15 184.114C1440.59 184.114 1440.09 183.991 1439.66 183.744C1439.23 183.494 1438.89 183.125 1438.65 182.636C1438.41 182.148 1438.28 181.544 1438.28 180.824V175.273H1439.98V180.619C1439.98 181.214 1440.15 181.687 1440.48 182.04C1440.81 182.392 1441.24 182.568 1441.76 182.568C1442.08 182.568 1442.4 182.489 1442.71 182.33C1443.03 182.17 1443.29 181.93 1443.5 181.608C1443.71 181.286 1443.82 180.877 1443.81 180.381ZM1449.32 172.364V184H1447.62V172.364H1449.32ZM1453 181.04L1452.98 178.966H1453.28L1456.76 175.273H1458.79L1454.82 179.477H1454.56L1453 181.04ZM1451.43 184V172.364H1453.13V184H1451.43ZM1456.94 184L1453.82 179.852L1454.99 178.665L1459.03 184H1456.94ZM1462.7 184.193C1462.15 184.193 1461.65 184.091 1461.2 183.886C1460.76 183.678 1460.4 183.377 1460.14 182.983C1459.88 182.589 1459.75 182.106 1459.75 181.534C1459.75 181.042 1459.85 180.636 1460.04 180.318C1460.23 180 1460.48 179.748 1460.81 179.562C1461.13 179.377 1461.49 179.237 1461.88 179.142C1462.28 179.047 1462.69 178.975 1463.1 178.926C1463.62 178.866 1464.05 178.816 1464.37 178.778C1464.7 178.737 1464.94 178.67 1465.08 178.58C1465.23 178.489 1465.31 178.341 1465.31 178.136V178.097C1465.31 177.6 1465.17 177.216 1464.88 176.943C1464.61 176.67 1464.2 176.534 1463.65 176.534C1463.07 176.534 1462.62 176.661 1462.29 176.915C1461.97 177.165 1461.74 177.443 1461.62 177.75L1460.02 177.386C1460.21 176.856 1460.49 176.428 1460.85 176.102C1461.22 175.773 1461.64 175.534 1462.12 175.386C1462.59 175.235 1463.1 175.159 1463.62 175.159C1463.97 175.159 1464.34 175.201 1464.73 175.284C1465.13 175.364 1465.49 175.511 1465.83 175.727C1466.18 175.943 1466.46 176.252 1466.68 176.653C1466.9 177.051 1467.01 177.568 1467.01 178.205V184H1465.35V182.807H1465.28C1465.17 183.027 1465.01 183.242 1464.79 183.455C1464.57 183.667 1464.29 183.843 1463.94 183.983C1463.6 184.123 1463.18 184.193 1462.7 184.193ZM1463.07 182.83C1463.54 182.83 1463.94 182.737 1464.28 182.551C1464.61 182.366 1464.87 182.123 1465.04 181.824C1465.22 181.521 1465.31 181.197 1465.31 180.852V179.727C1465.25 179.788 1465.13 179.845 1464.96 179.898C1464.79 179.947 1464.59 179.991 1464.37 180.028C1464.15 180.062 1463.94 180.095 1463.73 180.125C1463.52 180.152 1463.35 180.174 1463.21 180.193C1462.88 180.235 1462.58 180.305 1462.31 180.403C1462.04 180.502 1461.82 180.644 1461.66 180.83C1461.5 181.011 1461.42 181.254 1461.42 181.557C1461.42 181.977 1461.57 182.295 1461.88 182.511C1462.2 182.723 1462.59 182.83 1463.07 182.83ZM1470.8 178.818V184H1469.1V175.273H1470.73V176.693H1470.84C1471.04 176.231 1471.35 175.86 1471.78 175.58C1472.21 175.299 1472.75 175.159 1473.41 175.159C1474 175.159 1474.52 175.284 1474.97 175.534C1475.42 175.78 1475.77 176.148 1476.01 176.636C1476.26 177.125 1476.38 177.729 1476.38 178.449V184H1474.68V178.653C1474.68 178.021 1474.52 177.527 1474.19 177.17C1473.86 176.811 1473.41 176.631 1472.83 176.631C1472.44 176.631 1472.09 176.716 1471.78 176.886C1471.48 177.057 1471.23 177.307 1471.06 177.636C1470.88 177.962 1470.8 178.356 1470.8 178.818ZM1478.62 184V172.364H1482.88C1483.71 172.364 1484.39 172.5 1484.93 172.773C1485.47 173.042 1485.88 173.407 1486.15 173.869C1486.42 174.328 1486.55 174.845 1486.55 175.42C1486.55 175.905 1486.46 176.314 1486.28 176.648C1486.11 176.977 1485.87 177.242 1485.57 177.443C1485.27 177.64 1484.95 177.784 1484.59 177.875V177.989C1484.98 178.008 1485.35 178.133 1485.72 178.364C1486.09 178.591 1486.4 178.915 1486.64 179.335C1486.88 179.756 1487.01 180.267 1487.01 180.869C1487.01 181.464 1486.87 181.998 1486.59 182.472C1486.31 182.941 1485.88 183.314 1485.3 183.591C1484.72 183.864 1483.98 184 1483.08 184H1478.62ZM1480.38 182.494H1482.91C1483.75 182.494 1484.35 182.331 1484.72 182.006C1485.08 181.68 1485.26 181.273 1485.26 180.784C1485.26 180.417 1485.17 180.08 1484.98 179.773C1484.8 179.466 1484.53 179.222 1484.19 179.04C1483.85 178.858 1483.44 178.767 1482.97 178.767H1480.38V182.494ZM1480.38 177.398H1482.73C1483.12 177.398 1483.48 177.322 1483.79 177.17C1484.11 177.019 1484.36 176.807 1484.55 176.534C1484.73 176.258 1484.83 175.932 1484.83 175.557C1484.83 175.076 1484.66 174.672 1484.32 174.347C1483.99 174.021 1483.47 173.858 1482.77 173.858H1480.38V177.398ZM1491.32 184.193C1490.76 184.193 1490.26 184.091 1489.82 183.886C1489.37 183.678 1489.01 183.377 1488.75 182.983C1488.5 182.589 1488.37 182.106 1488.37 181.534C1488.37 181.042 1488.46 180.636 1488.65 180.318C1488.84 180 1489.1 179.748 1489.42 179.562C1489.74 179.377 1490.1 179.237 1490.5 179.142C1490.9 179.047 1491.3 178.975 1491.71 178.926C1492.24 178.866 1492.66 178.816 1492.99 178.778C1493.31 178.737 1493.55 178.67 1493.7 178.58C1493.84 178.489 1493.92 178.341 1493.92 178.136V178.097C1493.92 177.6 1493.78 177.216 1493.5 176.943C1493.22 176.67 1492.81 176.534 1492.26 176.534C1491.69 176.534 1491.24 176.661 1490.91 176.915C1490.58 177.165 1490.36 177.443 1490.23 177.75L1488.63 177.386C1488.82 176.856 1489.1 176.428 1489.46 176.102C1489.83 175.773 1490.25 175.534 1490.73 175.386C1491.21 175.235 1491.71 175.159 1492.24 175.159C1492.58 175.159 1492.95 175.201 1493.34 175.284C1493.74 175.364 1494.11 175.511 1494.45 175.727C1494.79 175.943 1495.07 176.252 1495.29 176.653C1495.51 177.051 1495.62 177.568 1495.62 178.205V184H1493.96V182.807H1493.9C1493.79 183.027 1493.62 183.242 1493.4 183.455C1493.18 183.667 1492.9 183.843 1492.55 183.983C1492.21 184.123 1491.8 184.193 1491.32 184.193ZM1491.68 182.83C1492.15 182.83 1492.56 182.737 1492.89 182.551C1493.23 182.366 1493.48 182.123 1493.66 181.824C1493.83 181.521 1493.92 181.197 1493.92 180.852V179.727C1493.86 179.788 1493.75 179.845 1493.57 179.898C1493.4 179.947 1493.21 179.991 1492.99 180.028C1492.77 180.062 1492.55 180.095 1492.34 180.125C1492.14 180.152 1491.96 180.174 1491.82 180.193C1491.49 180.235 1491.19 180.305 1490.92 180.403C1490.65 180.502 1490.43 180.644 1490.27 180.83C1490.11 181.011 1490.03 181.254 1490.03 181.557C1490.03 181.977 1490.19 182.295 1490.5 182.511C1490.81 182.723 1491.2 182.83 1491.68 182.83ZM1501.39 184.176C1500.54 184.176 1499.81 183.985 1499.2 183.602C1498.6 183.216 1498.13 182.684 1497.81 182.006C1497.48 181.328 1497.32 180.551 1497.32 179.676C1497.32 178.79 1497.48 178.008 1497.82 177.33C1498.15 176.648 1498.62 176.116 1499.23 175.733C1499.83 175.35 1500.55 175.159 1501.37 175.159C1502.03 175.159 1502.62 175.282 1503.14 175.528C1503.66 175.771 1504.08 176.112 1504.4 176.551C1504.72 176.991 1504.91 177.504 1504.97 178.091H1503.32C1503.23 177.682 1503.02 177.33 1502.69 177.034C1502.37 176.739 1501.94 176.591 1501.4 176.591C1500.92 176.591 1500.51 176.716 1500.15 176.966C1499.8 177.212 1499.53 177.564 1499.33 178.023C1499.13 178.477 1499.03 179.015 1499.03 179.636C1499.03 180.273 1499.13 180.822 1499.32 181.284C1499.52 181.746 1499.79 182.104 1500.14 182.358C1500.5 182.612 1500.92 182.739 1501.4 182.739C1501.72 182.739 1502.01 182.68 1502.27 182.562C1502.54 182.441 1502.76 182.269 1502.94 182.045C1503.12 181.822 1503.25 181.553 1503.32 181.239H1504.97C1504.91 181.803 1504.73 182.307 1504.42 182.75C1504.11 183.193 1503.7 183.542 1503.19 183.795C1502.68 184.049 1502.07 184.176 1501.39 184.176ZM1508.17 181.04L1508.16 178.966H1508.46L1511.94 175.273H1513.97L1510 179.477H1509.74L1508.17 181.04ZM1506.61 184V172.364H1508.31V184H1506.61ZM1512.12 184L1509 179.852L1510.17 178.665L1514.21 184H1512.12ZM1518.74 184.176C1517.88 184.176 1517.14 183.992 1516.52 183.625C1515.9 183.254 1515.43 182.733 1515.09 182.062C1514.76 181.388 1514.59 180.598 1514.59 179.693C1514.59 178.799 1514.76 178.011 1515.09 177.33C1515.43 176.648 1515.9 176.116 1516.5 175.733C1517.11 175.35 1517.81 175.159 1518.62 175.159C1519.12 175.159 1519.59 175.241 1520.06 175.403C1520.52 175.566 1520.93 175.822 1521.3 176.17C1521.67 176.519 1521.96 176.972 1522.17 177.528C1522.38 178.081 1522.49 178.754 1522.49 179.545V180.148H1515.55V178.875H1520.82C1520.82 178.428 1520.73 178.032 1520.55 177.688C1520.37 177.339 1520.11 177.064 1519.78 176.864C1519.46 176.663 1519.07 176.562 1518.64 176.562C1518.16 176.562 1517.74 176.68 1517.39 176.915C1517.03 177.146 1516.76 177.449 1516.57 177.824C1516.38 178.195 1516.28 178.598 1516.28 179.034V180.028C1516.28 180.612 1516.39 181.108 1516.59 181.517C1516.8 181.926 1517.09 182.239 1517.46 182.455C1517.83 182.667 1518.26 182.773 1518.76 182.773C1519.08 182.773 1519.38 182.727 1519.64 182.636C1519.91 182.542 1520.14 182.402 1520.33 182.216C1520.52 182.03 1520.67 181.801 1520.77 181.528L1522.38 181.818C1522.25 182.292 1522.02 182.706 1521.69 183.062C1521.36 183.415 1520.94 183.689 1520.44 183.886C1519.95 184.08 1519.38 184.176 1518.74 184.176ZM1525.9 178.818V184H1524.2V175.273H1525.83V176.693H1525.94C1526.14 176.231 1526.45 175.86 1526.88 175.58C1527.31 175.299 1527.85 175.159 1528.51 175.159C1529.1 175.159 1529.62 175.284 1530.07 175.534C1530.52 175.78 1530.87 176.148 1531.11 176.636C1531.36 177.125 1531.48 177.729 1531.48 178.449V184H1529.78V178.653C1529.78 178.021 1529.62 177.527 1529.29 177.17C1528.96 176.811 1528.51 176.631 1527.93 176.631C1527.54 176.631 1527.19 176.716 1526.88 176.886C1526.58 177.057 1526.33 177.307 1526.16 177.636C1525.98 177.962 1525.9 178.356 1525.9 178.818ZM1536.85 184.17C1536.15 184.17 1535.52 183.991 1534.96 183.631C1534.41 183.267 1533.98 182.75 1533.67 182.08C1533.36 181.405 1533.2 180.597 1533.2 179.653C1533.2 178.71 1533.36 177.903 1533.67 177.233C1533.99 176.562 1534.43 176.049 1534.98 175.693C1535.53 175.337 1536.16 175.159 1536.86 175.159C1537.4 175.159 1537.84 175.25 1538.17 175.432C1538.5 175.61 1538.76 175.818 1538.94 176.057C1539.13 176.295 1539.27 176.506 1539.37 176.688H1539.48V172.364H1541.17V184H1539.52V182.642H1539.37C1539.27 182.828 1539.12 183.04 1538.93 183.278C1538.74 183.517 1538.48 183.725 1538.15 183.903C1537.81 184.081 1537.38 184.17 1536.85 184.17ZM1537.23 182.722C1537.71 182.722 1538.13 182.593 1538.46 182.335C1538.8 182.074 1539.06 181.712 1539.24 181.25C1539.41 180.788 1539.5 180.25 1539.5 179.636C1539.5 179.03 1539.42 178.5 1539.24 178.045C1539.07 177.591 1538.81 177.237 1538.48 176.983C1538.14 176.729 1537.72 176.602 1537.23 176.602C1536.71 176.602 1536.29 176.735 1535.95 177C1535.61 177.265 1535.35 177.627 1535.17 178.085C1535 178.544 1534.92 179.061 1534.92 179.636C1534.92 180.22 1535.01 180.744 1535.18 181.21C1535.35 181.676 1535.61 182.045 1535.95 182.318C1536.3 182.587 1536.72 182.722 1537.23 182.722ZM1551.16 184.176C1550.34 184.176 1549.63 183.989 1549.02 183.614C1548.41 183.239 1547.93 182.714 1547.59 182.04C1547.26 181.366 1547.09 180.578 1547.09 179.676C1547.09 178.771 1547.26 177.979 1547.59 177.301C1547.93 176.623 1548.41 176.097 1549.02 175.722C1549.63 175.347 1550.34 175.159 1551.16 175.159C1551.98 175.159 1552.69 175.347 1553.3 175.722C1553.91 176.097 1554.38 176.623 1554.72 177.301C1555.06 177.979 1555.23 178.771 1555.23 179.676C1555.23 180.578 1555.06 181.366 1554.72 182.04C1554.38 182.714 1553.91 183.239 1553.3 183.614C1552.69 183.989 1551.98 184.176 1551.16 184.176ZM1551.16 182.75C1551.69 182.75 1552.13 182.61 1552.48 182.33C1552.83 182.049 1553.09 181.676 1553.25 181.21C1553.42 180.744 1553.51 180.231 1553.51 179.67C1553.51 179.114 1553.42 178.602 1553.25 178.136C1553.09 177.667 1552.83 177.29 1552.48 177.006C1552.13 176.722 1551.69 176.58 1551.16 176.58C1550.63 176.58 1550.19 176.722 1549.83 177.006C1549.49 177.29 1549.23 177.667 1549.06 178.136C1548.89 178.602 1548.81 179.114 1548.81 179.67C1548.81 180.231 1548.89 180.744 1549.06 181.21C1549.23 181.676 1549.49 182.049 1549.83 182.33C1550.19 182.61 1550.63 182.75 1551.16 182.75ZM1561.1 175.273V176.636H1556.17V175.273H1561.1ZM1557.52 184V174.261C1557.52 173.716 1557.64 173.263 1557.88 172.903C1558.12 172.54 1558.43 172.269 1558.83 172.091C1559.22 171.909 1559.65 171.818 1560.11 171.818C1560.45 171.818 1560.74 171.847 1560.99 171.903C1561.23 171.956 1561.41 172.006 1561.53 172.051L1561.13 173.426C1561.05 173.403 1560.95 173.377 1560.82 173.347C1560.7 173.312 1560.54 173.295 1560.37 173.295C1559.95 173.295 1559.66 173.398 1559.48 173.602C1559.31 173.807 1559.22 174.102 1559.22 174.489V184H1557.52ZM1566.83 175.273V176.636H1561.9V175.273H1566.83ZM1563.25 184V174.261C1563.25 173.716 1563.37 173.263 1563.61 172.903C1563.85 172.54 1564.16 172.269 1564.56 172.091C1564.95 171.909 1565.38 171.818 1565.84 171.818C1566.18 171.818 1566.47 171.847 1566.72 171.903C1566.96 171.956 1567.14 172.006 1567.26 172.051L1566.86 173.426C1566.78 173.403 1566.68 173.377 1566.55 173.347C1566.43 173.312 1566.27 173.295 1566.1 173.295C1565.68 173.295 1565.39 173.398 1565.21 173.602C1565.04 173.807 1564.95 174.102 1564.95 174.489V184H1563.25ZM1574.62 177.403L1573.08 177.676C1573.01 177.479 1572.91 177.292 1572.77 177.114C1572.64 176.936 1572.45 176.79 1572.21 176.676C1571.98 176.562 1571.69 176.506 1571.33 176.506C1570.85 176.506 1570.45 176.614 1570.13 176.83C1569.81 177.042 1569.65 177.316 1569.65 177.653C1569.65 177.945 1569.75 178.18 1569.97 178.358C1570.19 178.536 1570.53 178.682 1571.02 178.795L1572.4 179.114C1573.21 179.299 1573.8 179.585 1574.2 179.972C1574.59 180.358 1574.79 180.86 1574.79 181.477C1574.79 182 1574.64 182.466 1574.33 182.875C1574.03 183.28 1573.62 183.598 1573.08 183.83C1572.54 184.061 1571.92 184.176 1571.22 184.176C1570.24 184.176 1569.45 183.968 1568.83 183.551C1568.21 183.131 1567.83 182.534 1567.69 181.761L1569.33 181.511C1569.44 181.939 1569.65 182.263 1569.96 182.483C1570.28 182.699 1570.7 182.807 1571.21 182.807C1571.77 182.807 1572.21 182.691 1572.54 182.46C1572.88 182.225 1573.04 181.939 1573.04 181.602C1573.04 181.33 1572.94 181.1 1572.74 180.915C1572.54 180.729 1572.23 180.589 1571.81 180.494L1570.33 180.17C1569.52 179.985 1568.92 179.689 1568.53 179.284C1568.14 178.879 1567.95 178.366 1567.95 177.744C1567.95 177.229 1568.09 176.778 1568.38 176.392C1568.67 176.006 1569.06 175.705 1569.57 175.489C1570.08 175.269 1570.66 175.159 1571.32 175.159C1572.26 175.159 1573 175.364 1573.54 175.773C1574.09 176.178 1574.44 176.722 1574.62 177.403ZM1580.16 184.176C1579.31 184.176 1578.58 183.985 1577.97 183.602C1577.37 183.216 1576.9 182.684 1576.58 182.006C1576.25 181.328 1576.09 180.551 1576.09 179.676C1576.09 178.79 1576.25 178.008 1576.59 177.33C1576.92 176.648 1577.39 176.116 1578 175.733C1578.6 175.35 1579.32 175.159 1580.14 175.159C1580.8 175.159 1581.39 175.282 1581.91 175.528C1582.43 175.771 1582.85 176.112 1583.17 176.551C1583.49 176.991 1583.68 177.504 1583.74 178.091H1582.09C1582 177.682 1581.79 177.33 1581.46 177.034C1581.14 176.739 1580.71 176.591 1580.17 176.591C1579.69 176.591 1579.28 176.716 1578.92 176.966C1578.57 177.212 1578.3 177.564 1578.1 178.023C1577.9 178.477 1577.8 179.015 1577.8 179.636C1577.8 180.273 1577.9 180.822 1578.09 181.284C1578.29 181.746 1578.56 182.104 1578.91 182.358C1579.27 182.612 1579.69 182.739 1580.17 182.739C1580.49 182.739 1580.78 182.68 1581.04 182.562C1581.31 182.441 1581.53 182.269 1581.71 182.045C1581.89 181.822 1582.02 181.553 1582.09 181.239H1583.74C1583.68 181.803 1583.5 182.307 1583.19 182.75C1582.88 183.193 1582.47 183.542 1581.96 183.795C1581.45 184.049 1580.85 184.176 1580.16 184.176ZM1585.38 184V175.273H1587.02V176.659H1587.12C1587.27 176.189 1587.55 175.82 1587.96 175.551C1588.36 175.278 1588.82 175.142 1589.33 175.142C1589.44 175.142 1589.56 175.146 1589.71 175.153C1589.85 175.161 1589.97 175.17 1590.05 175.182V176.807C1589.98 176.788 1589.86 176.767 1589.69 176.744C1589.52 176.718 1589.34 176.705 1589.17 176.705C1588.77 176.705 1588.41 176.79 1588.09 176.96C1587.78 177.127 1587.54 177.36 1587.35 177.659C1587.17 177.955 1587.08 178.292 1587.08 178.67V184H1585.38ZM1594.8 184.176C1593.94 184.176 1593.2 183.992 1592.57 183.625C1591.96 183.254 1591.48 182.733 1591.14 182.062C1590.81 181.388 1590.64 180.598 1590.64 179.693C1590.64 178.799 1590.81 178.011 1591.14 177.33C1591.48 176.648 1591.95 176.116 1592.55 175.733C1593.16 175.35 1593.87 175.159 1594.68 175.159C1595.17 175.159 1595.65 175.241 1596.11 175.403C1596.57 175.566 1596.99 175.822 1597.35 176.17C1597.72 176.519 1598.01 176.972 1598.22 177.528C1598.43 178.081 1598.54 178.754 1598.54 179.545V180.148H1591.6V178.875H1596.88C1596.88 178.428 1596.78 178.032 1596.6 177.688C1596.42 177.339 1596.17 177.064 1595.84 176.864C1595.51 176.663 1595.13 176.562 1594.69 176.562C1594.21 176.562 1593.79 176.68 1593.44 176.915C1593.09 177.146 1592.81 177.449 1592.62 177.824C1592.43 178.195 1592.34 178.598 1592.34 179.034V180.028C1592.34 180.612 1592.44 181.108 1592.64 181.517C1592.85 181.926 1593.14 182.239 1593.51 182.455C1593.88 182.667 1594.32 182.773 1594.81 182.773C1595.13 182.773 1595.43 182.727 1595.69 182.636C1595.96 182.542 1596.19 182.402 1596.38 182.216C1596.57 182.03 1596.72 181.801 1596.82 181.528L1598.43 181.818C1598.3 182.292 1598.07 182.706 1597.74 183.062C1597.41 183.415 1596.99 183.689 1596.49 183.886C1596 184.08 1595.43 184.176 1594.8 184.176ZM1604.01 184.176C1603.15 184.176 1602.41 183.992 1601.79 183.625C1601.17 183.254 1600.69 182.733 1600.36 182.062C1600.02 181.388 1599.86 180.598 1599.86 179.693C1599.86 178.799 1600.02 178.011 1600.36 177.33C1600.69 176.648 1601.16 176.116 1601.77 175.733C1602.37 175.35 1603.08 175.159 1603.89 175.159C1604.38 175.159 1604.86 175.241 1605.32 175.403C1605.79 175.566 1606.2 175.822 1606.57 176.17C1606.93 176.519 1607.22 176.972 1607.44 177.528C1607.65 178.081 1607.75 178.754 1607.75 179.545V180.148H1600.82V178.875H1606.09C1606.09 178.428 1606 178.032 1605.82 177.688C1605.64 177.339 1605.38 177.064 1605.05 176.864C1604.72 176.663 1604.34 176.562 1603.9 176.562C1603.43 176.562 1603.01 176.68 1602.65 176.915C1602.3 177.146 1602.03 177.449 1601.83 177.824C1601.65 178.195 1601.55 178.598 1601.55 179.034V180.028C1601.55 180.612 1601.65 181.108 1601.86 181.517C1602.07 181.926 1602.36 182.239 1602.73 182.455C1603.1 182.667 1603.53 182.773 1604.03 182.773C1604.35 182.773 1604.64 182.727 1604.91 182.636C1605.17 182.542 1605.4 182.402 1605.6 182.216C1605.79 182.03 1605.94 181.801 1606.04 181.528L1607.65 181.818C1607.52 182.292 1607.29 182.706 1606.95 183.062C1606.62 183.415 1606.21 183.689 1605.71 183.886C1605.21 184.08 1604.65 184.176 1604.01 184.176ZM1611.16 178.818V184H1609.46V175.273H1611.09V176.693H1611.2C1611.4 176.231 1611.72 175.86 1612.15 175.58C1612.58 175.299 1613.12 175.159 1613.78 175.159C1614.37 175.159 1614.89 175.284 1615.34 175.534C1615.79 175.78 1616.13 176.148 1616.38 176.636C1616.62 177.125 1616.75 177.729 1616.75 178.449V184H1615.05V178.653C1615.05 178.021 1614.88 177.527 1614.55 177.17C1614.23 176.811 1613.77 176.631 1613.2 176.631C1612.8 176.631 1612.45 176.716 1612.15 176.886C1611.84 177.057 1611.6 177.307 1611.42 177.636C1611.25 177.962 1611.16 178.356 1611.16 178.818Z" fill="#1E1E1E"/>
</g>
<g id="PNG bytes or file">
<rect id="Shape_7" x="1762" y="114" width="224" height="128" rx="6" fill="white" stroke="#757575" stroke-width="4" stroke-linecap="round"/>
<path id="Text_7" d="M1812.42 184V172.364H1816.57C1817.47 172.364 1818.22 172.528 1818.82 172.858C1819.41 173.187 1819.86 173.638 1820.15 174.21C1820.45 174.778 1820.6 175.419 1820.6 176.131C1820.6 176.847 1820.45 177.491 1820.15 178.062C1819.85 178.631 1819.41 179.081 1818.81 179.415C1818.21 179.744 1817.46 179.909 1816.56 179.909H1813.71V178.42H1816.4C1816.98 178.42 1817.44 178.322 1817.8 178.125C1818.15 177.924 1818.41 177.652 1818.58 177.307C1818.75 176.962 1818.83 176.57 1818.83 176.131C1818.83 175.691 1818.75 175.301 1818.58 174.96C1818.41 174.619 1818.15 174.352 1817.79 174.159C1817.43 173.966 1816.96 173.869 1816.38 173.869H1814.18V184H1812.42ZM1831.87 172.364V184H1830.26L1824.34 175.466H1824.23V184H1822.48V172.364H1824.1L1830.02 180.909H1830.13V172.364H1831.87ZM1842.13 176.04C1842.02 175.695 1841.87 175.386 1841.69 175.114C1841.51 174.837 1841.29 174.602 1841.03 174.409C1840.78 174.212 1840.49 174.062 1840.17 173.96C1839.84 173.858 1839.49 173.807 1839.1 173.807C1838.45 173.807 1837.86 173.975 1837.33 174.312C1836.8 174.65 1836.39 175.144 1836.08 175.795C1835.78 176.443 1835.63 177.237 1835.63 178.176C1835.63 179.119 1835.78 179.917 1836.09 180.568C1836.39 181.22 1836.81 181.714 1837.35 182.051C1837.88 182.388 1838.49 182.557 1839.17 182.557C1839.8 182.557 1840.35 182.428 1840.82 182.17C1841.3 181.913 1841.66 181.549 1841.92 181.08C1842.18 180.606 1842.31 180.049 1842.31 179.409L1842.77 179.494H1839.44V178.045H1844.01V179.369C1844.01 180.347 1843.8 181.195 1843.39 181.915C1842.97 182.631 1842.4 183.184 1841.67 183.574C1840.94 183.964 1840.11 184.159 1839.17 184.159C1838.12 184.159 1837.19 183.917 1836.4 183.432C1835.61 182.947 1834.99 182.259 1834.55 181.369C1834.1 180.475 1833.88 179.415 1833.88 178.188C1833.88 177.259 1834.01 176.426 1834.27 175.688C1834.53 174.949 1834.89 174.322 1835.35 173.807C1835.82 173.288 1836.37 172.892 1837.01 172.619C1837.64 172.343 1838.34 172.205 1839.09 172.205C1839.72 172.205 1840.31 172.297 1840.85 172.483C1841.39 172.669 1841.88 172.932 1842.3 173.273C1842.73 173.614 1843.08 174.019 1843.36 174.489C1843.64 174.955 1843.83 175.472 1843.93 176.04H1842.13ZM1850.12 184V172.364H1851.82V176.688H1851.92C1852.02 176.506 1852.16 176.295 1852.35 176.057C1852.54 175.818 1852.79 175.61 1853.12 175.432C1853.45 175.25 1853.89 175.159 1854.43 175.159C1855.13 175.159 1855.76 175.337 1856.32 175.693C1856.87 176.049 1857.3 176.562 1857.62 177.233C1857.94 177.903 1858.09 178.71 1858.09 179.653C1858.09 180.597 1857.94 181.405 1857.62 182.08C1857.31 182.75 1856.88 183.267 1856.33 183.631C1855.78 183.991 1855.15 184.17 1854.45 184.17C1853.92 184.17 1853.48 184.081 1853.15 183.903C1852.81 183.725 1852.55 183.517 1852.36 183.278C1852.17 183.04 1852.03 182.828 1851.92 182.642H1851.78V184H1850.12ZM1851.79 179.636C1851.79 180.25 1851.88 180.788 1852.05 181.25C1852.23 181.712 1852.49 182.074 1852.83 182.335C1853.16 182.593 1853.58 182.722 1854.07 182.722C1854.57 182.722 1855 182.587 1855.34 182.318C1855.68 182.045 1855.94 181.676 1856.11 181.21C1856.29 180.744 1856.38 180.22 1856.38 179.636C1856.38 179.061 1856.29 178.544 1856.12 178.085C1855.95 177.627 1855.69 177.265 1855.34 177C1855 176.735 1854.58 176.602 1854.07 176.602C1853.57 176.602 1853.16 176.729 1852.82 176.983C1852.48 177.237 1852.22 177.591 1852.05 178.045C1851.87 178.5 1851.79 179.03 1851.79 179.636ZM1860.6 187.273C1860.35 187.273 1860.12 187.252 1859.91 187.21C1859.7 187.172 1859.55 187.131 1859.44 187.085L1859.85 185.693C1860.16 185.777 1860.44 185.813 1860.68 185.801C1860.93 185.79 1861.14 185.699 1861.32 185.528C1861.51 185.358 1861.68 185.08 1861.82 184.693L1862.04 184.114L1858.84 175.273H1860.66L1862.87 182.045H1862.96L1865.17 175.273H1867L1863.4 185.165C1863.23 185.619 1863.02 186.004 1862.76 186.318C1862.5 186.636 1862.2 186.875 1861.84 187.034C1861.49 187.193 1861.07 187.273 1860.6 187.273ZM1872.49 175.273V176.636H1867.72V175.273H1872.49ZM1869 173.182H1870.7V181.438C1870.7 181.767 1870.75 182.015 1870.85 182.182C1870.95 182.345 1871.07 182.456 1871.23 182.517C1871.39 182.574 1871.56 182.602 1871.75 182.602C1871.88 182.602 1872 182.593 1872.1 182.574C1872.21 182.555 1872.29 182.54 1872.34 182.528L1872.65 183.932C1872.55 183.97 1872.41 184.008 1872.23 184.045C1872.05 184.087 1871.82 184.11 1871.55 184.114C1871.1 184.121 1870.68 184.042 1870.3 183.875C1869.91 183.708 1869.6 183.451 1869.36 183.102C1869.12 182.754 1869 182.316 1869 181.79V173.182ZM1877.86 184.176C1877 184.176 1876.26 183.992 1875.64 183.625C1875.02 183.254 1874.54 182.733 1874.21 182.062C1873.87 181.388 1873.71 180.598 1873.71 179.693C1873.71 178.799 1873.87 178.011 1874.21 177.33C1874.54 176.648 1875.01 176.116 1875.62 175.733C1876.22 175.35 1876.93 175.159 1877.74 175.159C1878.23 175.159 1878.71 175.241 1879.17 175.403C1879.64 175.566 1880.05 175.822 1880.42 176.17C1880.78 176.519 1881.07 176.972 1881.29 177.528C1881.5 178.081 1881.6 178.754 1881.6 179.545V180.148H1874.67V178.875H1879.94C1879.94 178.428 1879.85 178.032 1879.67 177.688C1879.49 177.339 1879.23 177.064 1878.9 176.864C1878.57 176.663 1878.19 176.562 1877.75 176.562C1877.28 176.562 1876.86 176.68 1876.5 176.915C1876.15 177.146 1875.88 177.449 1875.68 177.824C1875.5 178.195 1875.4 178.598 1875.4 179.034V180.028C1875.4 180.612 1875.5 181.108 1875.71 181.517C1875.92 181.926 1876.21 182.239 1876.58 182.455C1876.95 182.667 1877.38 182.773 1877.88 182.773C1878.2 182.773 1878.49 182.727 1878.76 182.636C1879.02 182.542 1879.25 182.402 1879.45 182.216C1879.64 182.03 1879.79 181.801 1879.89 181.528L1881.5 181.818C1881.37 182.292 1881.14 182.706 1880.8 183.062C1880.47 183.415 1880.06 183.689 1879.56 183.886C1879.06 184.08 1878.5 184.176 1877.86 184.176ZM1889.85 177.403L1888.31 177.676C1888.25 177.479 1888.15 177.292 1888.01 177.114C1887.87 176.936 1887.69 176.79 1887.45 176.676C1887.22 176.562 1886.92 176.506 1886.57 176.506C1886.09 176.506 1885.69 176.614 1885.37 176.83C1885.04 177.042 1884.88 177.316 1884.88 177.653C1884.88 177.945 1884.99 178.18 1885.21 178.358C1885.42 178.536 1885.77 178.682 1886.25 178.795L1887.64 179.114C1888.44 179.299 1889.04 179.585 1889.43 179.972C1889.83 180.358 1890.02 180.86 1890.02 181.477C1890.02 182 1889.87 182.466 1889.57 182.875C1889.27 183.28 1888.85 183.598 1888.31 183.83C1887.78 184.061 1887.16 184.176 1886.46 184.176C1885.48 184.176 1884.68 183.968 1884.06 183.551C1883.45 183.131 1883.07 182.534 1882.93 181.761L1884.57 181.511C1884.67 181.939 1884.88 182.263 1885.2 182.483C1885.52 182.699 1885.93 182.807 1886.44 182.807C1887 182.807 1887.45 182.691 1887.78 182.46C1888.11 182.225 1888.28 181.939 1888.28 181.602C1888.28 181.33 1888.18 181.1 1887.97 180.915C1887.77 180.729 1887.46 180.589 1887.05 180.494L1885.57 180.17C1884.76 179.985 1884.15 179.689 1883.76 179.284C1883.38 178.879 1883.18 178.366 1883.18 177.744C1883.18 177.229 1883.33 176.778 1883.62 176.392C1883.9 176.006 1884.3 175.705 1884.81 175.489C1885.32 175.269 1885.9 175.159 1886.55 175.159C1887.5 175.159 1888.24 175.364 1888.78 175.773C1889.32 176.178 1889.68 176.722 1889.85 177.403ZM1899.45 184.176C1898.63 184.176 1897.92 183.989 1897.31 183.614C1896.7 183.239 1896.23 182.714 1895.89 182.04C1895.55 181.366 1895.38 180.578 1895.38 179.676C1895.38 178.771 1895.55 177.979 1895.89 177.301C1896.23 176.623 1896.7 176.097 1897.31 175.722C1897.92 175.347 1898.63 175.159 1899.45 175.159C1900.27 175.159 1900.98 175.347 1901.59 175.722C1902.2 176.097 1902.68 176.623 1903.01 177.301C1903.35 177.979 1903.52 178.771 1903.52 179.676C1903.52 180.578 1903.35 181.366 1903.01 182.04C1902.68 182.714 1902.2 183.239 1901.59 183.614C1900.98 183.989 1900.27 184.176 1899.45 184.176ZM1899.46 182.75C1899.99 182.75 1900.43 182.61 1900.77 182.33C1901.12 182.049 1901.38 181.676 1901.55 181.21C1901.72 180.744 1901.8 180.231 1901.8 179.67C1901.8 179.114 1901.72 178.602 1901.55 178.136C1901.38 177.667 1901.12 177.29 1900.77 177.006C1900.43 176.722 1899.99 176.58 1899.46 176.58C1898.92 176.58 1898.48 176.722 1898.13 177.006C1897.78 177.29 1897.52 177.667 1897.35 178.136C1897.18 178.602 1897.1 179.114 1897.1 179.67C1897.1 180.231 1897.18 180.744 1897.35 181.21C1897.52 181.676 1897.78 182.049 1898.13 182.33C1898.48 182.61 1898.92 182.75 1899.46 182.75ZM1905.24 184V175.273H1906.88V176.659H1906.97C1907.13 176.189 1907.41 175.82 1907.81 175.551C1908.22 175.278 1908.68 175.142 1909.19 175.142C1909.29 175.142 1909.42 175.146 1909.56 175.153C1909.71 175.161 1909.83 175.17 1909.91 175.182V176.807C1909.84 176.788 1909.72 176.767 1909.55 176.744C1909.37 176.718 1909.2 176.705 1909.02 176.705C1908.62 176.705 1908.26 176.79 1907.95 176.96C1907.64 177.127 1907.39 177.36 1907.21 177.659C1907.03 177.955 1906.94 178.292 1906.94 178.67V184H1905.24ZM1919.42 175.273V176.636H1914.48V175.273H1919.42ZM1915.84 184V174.261C1915.84 173.716 1915.96 173.263 1916.19 172.903C1916.43 172.54 1916.75 172.269 1917.14 172.091C1917.54 171.909 1917.96 171.818 1918.43 171.818C1918.77 171.818 1919.06 171.847 1919.3 171.903C1919.54 171.956 1919.72 172.006 1919.84 172.051L1919.44 173.426C1919.36 173.403 1919.26 173.377 1919.14 173.347C1919.01 173.312 1918.86 173.295 1918.68 173.295C1918.27 173.295 1917.97 173.398 1917.8 173.602C1917.62 173.807 1917.53 174.102 1917.53 174.489V184H1915.84ZM1920.99 184V175.273H1922.69V184H1920.99ZM1921.85 173.926C1921.55 173.926 1921.3 173.828 1921.09 173.631C1920.88 173.43 1920.78 173.191 1920.78 172.915C1920.78 172.634 1920.88 172.396 1921.09 172.199C1921.3 171.998 1921.55 171.898 1921.85 171.898C1922.15 171.898 1922.4 171.998 1922.61 172.199C1922.82 172.396 1922.92 172.634 1922.92 172.915C1922.92 173.191 1922.82 173.43 1922.61 173.631C1922.4 173.828 1922.15 173.926 1921.85 173.926ZM1926.5 172.364V184H1924.8V172.364H1926.5ZM1932.37 184.176C1931.51 184.176 1930.77 183.992 1930.15 183.625C1929.53 183.254 1929.05 182.733 1928.72 182.062C1928.38 181.388 1928.22 180.598 1928.22 179.693C1928.22 178.799 1928.38 178.011 1928.72 177.33C1929.05 176.648 1929.52 176.116 1930.13 175.733C1930.73 175.35 1931.44 175.159 1932.25 175.159C1932.74 175.159 1933.22 175.241 1933.68 175.403C1934.15 175.566 1934.56 175.822 1934.93 176.17C1935.29 176.519 1935.58 176.972 1935.8 177.528C1936.01 178.081 1936.11 178.754 1936.11 179.545V180.148H1929.18V178.875H1934.45C1934.45 178.428 1934.36 178.032 1934.18 177.688C1934 177.339 1933.74 177.064 1933.41 176.864C1933.08 176.663 1932.7 176.562 1932.26 176.562C1931.79 176.562 1931.37 176.68 1931.01 176.915C1930.66 177.146 1930.39 177.449 1930.19 177.824C1930 178.195 1929.91 178.598 1929.91 179.034V180.028C1929.91 180.612 1930.01 181.108 1930.22 181.517C1930.43 181.926 1930.72 182.239 1931.09 182.455C1931.46 182.667 1931.89 182.773 1932.39 182.773C1932.71 182.773 1933 182.727 1933.27 182.636C1933.53 182.542 1933.76 182.402 1933.96 182.216C1934.15 182.03 1934.3 181.801 1934.4 181.528L1936.01 181.818C1935.88 182.292 1935.65 182.706 1935.31 183.062C1934.98 183.415 1934.57 183.689 1934.07 183.886C1933.57 184.08 1933.01 184.176 1932.37 184.176Z" fill="#1E1E1E"/>
</g>
<g id="Connector line">
<path id="Shape_8" d="M698.914 200.748C699.695 199.966 699.695 198.7 698.914 197.919L686.186 185.191C685.405 184.41 684.139 184.41 683.358 185.191C682.577 185.972 682.577 187.239 683.358 188.02L694.672 199.333L683.358 210.647C682.577 211.428 682.577 212.694 683.358 213.475C684.139 214.257 685.405 214.257 686.186 213.475L698.914 200.748ZM586 290V292H602V290V288H586V290ZM626 266H628V223.333H626H624V266H626ZM650 199.333V201.333H697.5V199.333V197.333H650V199.333ZM626 223.333H628C628 211.183 637.85 201.333 650 201.333V199.333V197.333C635.641 197.333 624 208.974 624 223.333H626ZM602 290V292C616.359 292 628 280.359 628 266H626H624C624 278.15 614.15 288 602 288V290Z" fill="#757575"/>
</g>
<g id="Connector line_2">
<path id="Shape_9" d="M346.914 67.4142C347.695 66.6332 347.695 65.3668 346.914 64.5858L334.186 51.8579C333.405 51.0768 332.139 51.0768 331.358 51.8579C330.577 52.6389 330.577 53.9052 331.358 54.6863L342.672 66L331.358 77.3137C330.577 78.0948 330.577 79.3611 331.358 80.1421C332.139 80.9232 333.405 80.9232 334.186 80.1421L346.914 67.4142ZM234 66V68H345.5V66V64H234V66Z" fill="#757575"/>
</g>
<g id="Connector line_3">
<path id="Shape_10" d="M698.914 158.081C699.695 157.3 699.695 156.034 698.914 155.252L686.186 142.525C685.405 141.743 684.139 141.743 683.358 142.525C682.577 143.306 682.577 144.572 683.358 145.353L694.672 156.667L683.358 167.98C682.577 168.761 682.577 170.028 683.358 170.809C684.139 171.59 685.405 171.59 686.186 170.809L698.914 158.081ZM586 66V68H602V66V64H586V66ZM626 90H624V132.667H626H628V90H626ZM650 156.667V158.667H697.5V156.667V154.667H650V156.667ZM626 132.667H624C624 147.026 635.641 158.667 650 158.667V156.667V154.667C637.85 154.667 628 144.817 628 132.667H626ZM602 66V68C614.15 68 624 77.8497 624 90H626H628C628 75.6406 616.359 64 602 64V66Z" fill="#757575"/>
</g>
<g id="Connector line_4">
<path id="Shape_11" d="M1050.91 179.414C1051.7 178.633 1051.7 177.367 1050.91 176.586L1038.19 163.858C1037.41 163.077 1036.14 163.077 1035.36 163.858C1034.58 164.639 1034.58 165.905 1035.36 166.686L1046.67 178L1035.36 189.314C1034.58 190.095 1034.58 191.361 1035.36 192.142C1036.14 192.923 1037.41 192.923 1038.19 192.142L1050.91 179.414ZM938 178V180H1049.5V178V176H938V178Z" fill="#757575"/>
</g>
<g id="Connector line_5">
<path id="Shape_12" d="M1402.91 179.414C1403.7 178.633 1403.7 177.367 1402.91 176.586L1390.19 163.858C1389.41 163.077 1388.14 163.077 1387.36 163.858C1386.58 164.639 1386.58 165.905 1387.36 166.686L1398.67 178L1387.36 189.314C1386.58 190.095 1386.58 191.361 1387.36 192.142C1388.14 192.923 1389.41 192.923 1390.19 192.142L1402.91 179.414ZM1290 178V180H1401.5V178V176H1290V178Z" fill="#757575"/>
</g>
<g id="Connector line_6">
<path id="Shape_13" d="M1754.91 179.414C1755.7 178.633 1755.7 177.367 1754.91 176.586L1742.19 163.858C1741.41 163.077 1740.14 163.077 1739.36 163.858C1738.58 164.639 1738.58 165.905 1739.36 166.686L1750.67 178L1739.36 189.314C1738.58 190.095 1738.58 191.361 1739.36 192.142C1740.14 192.923 1741.41 192.923 1742.19 192.142L1754.91 179.414ZM1642 178V180H1753.5V178V176H1642V178Z" fill="#757575"/>
</g>
</svg>
