<svg width="1636" height="580" viewBox="0 0 1636 580" fill="none" xmlns="http://www.w3.org/2000/svg">
<g id="Spectra C++ Core">
<rect id="Shape" x="2" y="236.667" width="224" height="128" rx="6" fill="white" stroke="#757575" stroke-width="4" stroke-linecap="round"/>
<path id="Text" d="M53.9762 298.087C53.9156 297.549 53.6656 297.133 53.2262 296.837C52.7869 296.538 52.2338 296.388 51.5672 296.388C51.0899 296.388 50.677 296.464 50.3285 296.616C49.98 296.763 49.7092 296.968 49.516 297.229C49.3266 297.487 49.2319 297.78 49.2319 298.11C49.2319 298.386 49.2963 298.625 49.4251 298.826C49.5577 299.027 49.73 299.195 49.9422 299.331C50.1581 299.464 50.3891 299.576 50.6353 299.667C50.8816 299.754 51.1183 299.826 51.3456 299.883L52.4819 300.178C52.8531 300.269 53.2338 300.392 53.624 300.547C54.0141 300.703 54.3759 300.907 54.7092 301.161C55.0425 301.415 55.3115 301.729 55.516 302.104C55.7244 302.479 55.8285 302.928 55.8285 303.451C55.8285 304.11 55.6581 304.695 55.3172 305.206C54.98 305.718 54.4895 306.121 53.8456 306.417C53.2054 306.712 52.4308 306.86 51.5217 306.86C50.6505 306.86 49.8967 306.722 49.2603 306.445C48.624 306.169 48.1259 305.777 47.766 305.269C47.4062 304.758 47.2073 304.152 47.1694 303.451H48.9308C48.9649 303.871 49.1012 304.222 49.3399 304.502C49.5823 304.778 49.891 304.985 50.266 305.121C50.6448 305.254 51.0596 305.32 51.5103 305.32C52.0066 305.32 52.4478 305.242 52.8342 305.087C53.2244 304.928 53.5312 304.708 53.7547 304.428C53.9781 304.144 54.0899 303.813 54.0899 303.434C54.0899 303.089 53.9914 302.807 53.7944 302.587C53.6013 302.367 53.338 302.186 53.0047 302.042C52.6751 301.898 52.302 301.771 51.8853 301.661L50.5103 301.286C49.5785 301.032 48.8399 300.659 48.2944 300.167C47.7528 299.674 47.4819 299.023 47.4819 298.212C47.4819 297.542 47.6637 296.956 48.0274 296.456C48.391 295.956 48.8834 295.568 49.5047 295.292C50.1259 295.011 50.8266 294.871 51.6069 294.871C52.3948 294.871 53.0899 295.009 53.6922 295.286C54.2982 295.563 54.7755 295.943 55.124 296.428C55.4725 296.909 55.6543 297.462 55.6694 298.087H53.9762ZM57.6142 309.939V297.939H59.2733V299.354H59.4153C59.5138 299.172 59.6558 298.962 59.8414 298.724C60.0271 298.485 60.2846 298.277 60.6142 298.099C60.9437 297.917 61.3793 297.826 61.921 297.826C62.6255 297.826 63.2543 298.004 63.8074 298.36C64.3604 298.716 64.7941 299.229 65.1085 299.9C65.4267 300.57 65.5858 301.377 65.5858 302.32C65.5858 303.263 65.4286 304.072 65.1142 304.746C64.7998 305.417 64.368 305.934 63.8187 306.297C63.2695 306.657 62.6426 306.837 61.938 306.837C61.4077 306.837 60.974 306.748 60.6369 306.57C60.3036 306.392 60.0422 306.184 59.8528 305.945C59.6634 305.706 59.5176 305.494 59.4153 305.309H59.313V309.939H57.6142ZM59.2789 302.303C59.2789 302.917 59.368 303.455 59.546 303.917C59.724 304.379 59.9816 304.741 60.3187 305.002C60.6558 305.259 61.0687 305.388 61.5574 305.388C62.0649 305.388 62.4892 305.254 62.8301 304.985C63.171 304.712 63.4286 304.343 63.6028 303.877C63.7808 303.411 63.8699 302.886 63.8699 302.303C63.8699 301.727 63.7827 301.21 63.6085 300.752C63.438 300.294 63.1805 299.932 62.8358 299.667C62.4949 299.402 62.0687 299.269 61.5574 299.269C61.0649 299.269 60.6483 299.396 60.3074 299.65C59.9702 299.903 59.7146 300.258 59.5403 300.712C59.3661 301.167 59.2789 301.697 59.2789 302.303ZM71.0745 306.843C70.2147 306.843 69.4742 306.659 68.8529 306.292C68.2355 305.92 67.7582 305.4 67.4211 304.729C67.0878 304.055 66.9211 303.265 66.9211 302.36C66.9211 301.466 67.0878 300.678 67.4211 299.996C67.7582 299.314 68.2279 298.782 68.8302 298.4C69.4363 298.017 70.1446 297.826 70.9552 297.826C71.4476 297.826 71.9249 297.907 72.387 298.07C72.8492 298.233 73.2639 298.489 73.6314 298.837C73.9988 299.186 74.2886 299.638 74.5007 300.195C74.7128 300.748 74.8189 301.42 74.8189 302.212V302.814H67.8814V301.542H73.1541C73.1541 301.095 73.0632 300.699 72.8814 300.354C72.6995 300.006 72.4439 299.731 72.1143 299.53C71.7886 299.33 71.406 299.229 70.9666 299.229C70.4893 299.229 70.0726 299.347 69.7166 299.581C69.3643 299.813 69.0916 300.116 68.8984 300.491C68.709 300.862 68.6143 301.265 68.6143 301.701V302.695C68.6143 303.278 68.7166 303.775 68.9211 304.184C69.1295 304.593 69.4192 304.905 69.7904 305.121C70.1617 305.333 70.5954 305.439 71.0916 305.439C71.4136 305.439 71.7071 305.394 71.9723 305.303C72.2374 305.208 72.4666 305.068 72.6598 304.883C72.8529 304.697 73.0007 304.468 73.1029 304.195L74.7109 304.485C74.5821 304.958 74.3511 305.373 74.0177 305.729C73.6882 306.081 73.2734 306.356 72.7734 306.553C72.2772 306.746 71.7109 306.843 71.0745 306.843ZM80.2039 306.843C79.3592 306.843 78.632 306.652 78.0221 306.269C77.4161 305.883 76.9501 305.35 76.6244 304.672C76.2986 303.994 76.1357 303.218 76.1357 302.343C76.1357 301.456 76.3024 300.674 76.6357 299.996C76.9691 299.314 77.4388 298.782 78.0448 298.4C78.6509 298.017 79.3649 297.826 80.1869 297.826C80.8498 297.826 81.4407 297.949 81.9596 298.195C82.4786 298.438 82.8971 298.778 83.2153 299.218C83.5373 299.657 83.7286 300.17 83.7892 300.758H82.1357C82.0448 300.349 81.8365 299.996 81.5107 299.701C81.1888 299.405 80.757 299.258 80.2153 299.258C79.7418 299.258 79.327 299.383 78.971 299.633C78.6187 299.879 78.3441 300.231 78.1471 300.689C77.9501 301.144 77.8517 301.682 77.8517 302.303C77.8517 302.939 77.9482 303.489 78.1414 303.951C78.3346 304.413 78.6073 304.771 78.9596 305.025C79.3157 305.278 79.7342 305.405 80.2153 305.405C80.5373 305.405 80.8289 305.347 81.0903 305.229C81.3554 305.108 81.577 304.936 81.7551 304.712C81.9369 304.489 82.0638 304.22 82.1357 303.905H83.7892C83.7286 304.47 83.5448 304.974 83.238 305.417C82.9312 305.86 82.5202 306.208 82.0051 306.462C81.4937 306.716 80.8933 306.843 80.2039 306.843ZM89.5038 297.939V299.303H84.7367V297.939H89.5038ZM86.0151 295.849H87.714V304.104C87.714 304.434 87.7633 304.682 87.8617 304.849C87.9602 305.011 88.0871 305.123 88.2424 305.184C88.4015 305.241 88.5739 305.269 88.7595 305.269C88.8958 305.269 89.0151 305.259 89.1174 305.241C89.2197 305.222 89.2992 305.206 89.3561 305.195L89.6629 306.599C89.5644 306.636 89.4242 306.674 89.2424 306.712C89.0606 306.754 88.8333 306.777 88.5606 306.78C88.1136 306.788 87.697 306.708 87.3106 306.542C86.9242 306.375 86.6117 306.117 86.3731 305.769C86.1345 305.42 86.0151 304.983 86.0151 304.456V295.849ZM91.207 306.667V297.939H92.8491V299.326H92.94C93.0991 298.856 93.3794 298.487 93.7809 298.218C94.1862 297.945 94.6445 297.809 95.1559 297.809C95.262 297.809 95.387 297.813 95.5309 297.82C95.6786 297.828 95.7942 297.837 95.8775 297.849V299.474C95.8093 299.455 95.6881 299.434 95.5139 299.411C95.3396 299.384 95.1654 299.371 94.9911 299.371C94.5896 299.371 94.2317 299.456 93.9173 299.627C93.6067 299.794 93.3605 300.027 93.1786 300.326C92.9968 300.621 92.9059 300.958 92.9059 301.337V306.667H91.207ZM99.6333 306.86C99.0803 306.86 98.5803 306.758 98.1333 306.553C97.6863 306.345 97.3322 306.044 97.0708 305.65C96.8132 305.256 96.6845 304.773 96.6845 304.201C96.6845 303.708 96.7792 303.303 96.9685 302.985C97.1579 302.667 97.4136 302.415 97.7356 302.229C98.0576 302.044 98.4174 301.903 98.8151 301.809C99.2129 301.714 99.6182 301.642 100.031 301.593C100.554 301.532 100.978 301.483 101.304 301.445C101.63 301.403 101.866 301.337 102.014 301.246C102.162 301.155 102.236 301.008 102.236 300.803V300.763C102.236 300.267 102.095 299.883 101.815 299.61C101.539 299.337 101.126 299.201 100.576 299.201C100.005 299.201 99.5538 299.328 99.2242 299.581C98.8985 299.831 98.6731 300.11 98.5481 300.417L96.9515 300.053C97.1409 299.523 97.4174 299.095 97.781 298.769C98.1485 298.439 98.5708 298.201 99.0481 298.053C99.5254 297.902 100.027 297.826 100.554 297.826C100.902 297.826 101.272 297.867 101.662 297.951C102.056 298.03 102.423 298.178 102.764 298.394C103.109 298.61 103.391 298.919 103.611 299.32C103.83 299.718 103.94 300.235 103.94 300.871V306.667H102.281V305.474H102.213C102.103 305.693 101.938 305.909 101.719 306.121C101.499 306.333 101.217 306.509 100.872 306.65C100.527 306.79 100.114 306.86 99.6333 306.86ZM100.003 305.496C100.472 305.496 100.874 305.403 101.207 305.218C101.544 305.032 101.8 304.79 101.974 304.491C102.152 304.188 102.241 303.864 102.241 303.519V302.394C102.181 302.455 102.063 302.511 101.889 302.564C101.719 302.614 101.523 302.657 101.304 302.695C101.084 302.729 100.87 302.761 100.662 302.792C100.453 302.818 100.279 302.841 100.139 302.86C99.8095 302.902 99.5083 302.972 99.2356 303.07C98.9667 303.169 98.7507 303.311 98.5879 303.496C98.4288 303.678 98.3492 303.92 98.3492 304.224C98.3492 304.644 98.5045 304.962 98.8151 305.178C99.1257 305.39 99.5216 305.496 100.003 305.496ZM119.886 298.814H118.114C118.046 298.436 117.919 298.102 117.733 297.814C117.547 297.527 117.32 297.282 117.051 297.081C116.782 296.881 116.481 296.729 116.148 296.627C115.818 296.525 115.468 296.474 115.097 296.474C114.426 296.474 113.826 296.642 113.296 296.979C112.769 297.316 112.352 297.811 112.046 298.462C111.742 299.114 111.591 299.909 111.591 300.849C111.591 301.795 111.742 302.595 112.046 303.246C112.352 303.898 112.771 304.39 113.301 304.724C113.832 305.057 114.428 305.224 115.091 305.224C115.458 305.224 115.807 305.174 116.136 305.076C116.47 304.974 116.771 304.824 117.04 304.627C117.309 304.43 117.536 304.189 117.722 303.905C117.911 303.617 118.042 303.288 118.114 302.917L119.886 302.922C119.792 303.494 119.608 304.021 119.335 304.502C119.066 304.979 118.72 305.392 118.296 305.741C117.875 306.085 117.394 306.352 116.852 306.542C116.311 306.731 115.72 306.826 115.08 306.826C114.072 306.826 113.174 306.587 112.386 306.11C111.599 305.629 110.977 304.941 110.523 304.047C110.072 303.153 109.847 302.087 109.847 300.849C109.847 299.606 110.074 298.54 110.528 297.65C110.983 296.756 111.604 296.07 112.392 295.593C113.18 295.112 114.076 294.871 115.08 294.871C115.697 294.871 116.273 294.96 116.807 295.138C117.345 295.313 117.828 295.57 118.256 295.911C118.684 296.248 119.038 296.661 119.318 297.15C119.599 297.634 119.788 298.189 119.886 298.814ZM125.095 304.712V297.03H126.624V304.712H125.095ZM122.022 301.633V300.11H129.703V301.633H122.022ZM135.576 304.712V297.03H137.104V304.712H135.576ZM132.502 301.633V300.11H140.184V301.633H132.502ZM156.495 298.814H154.722C154.654 298.436 154.527 298.102 154.342 297.814C154.156 297.527 153.929 297.282 153.66 297.081C153.391 296.881 153.09 296.729 152.756 296.627C152.427 296.525 152.076 296.474 151.705 296.474C151.035 296.474 150.434 296.642 149.904 296.979C149.378 297.316 148.961 297.811 148.654 298.462C148.351 299.114 148.199 299.909 148.199 300.849C148.199 301.795 148.351 302.595 148.654 303.246C148.961 303.898 149.379 304.39 149.91 304.724C150.44 305.057 151.037 305.224 151.699 305.224C152.067 305.224 152.415 305.174 152.745 305.076C153.078 304.974 153.379 304.824 153.648 304.627C153.917 304.43 154.145 304.189 154.33 303.905C154.52 303.617 154.65 303.288 154.722 302.917L156.495 302.922C156.4 303.494 156.217 304.021 155.944 304.502C155.675 304.979 155.328 305.392 154.904 305.741C154.484 306.085 154.003 306.352 153.461 306.542C152.919 306.731 152.328 306.826 151.688 306.826C150.681 306.826 149.783 306.587 148.995 306.11C148.207 305.629 147.586 304.941 147.131 304.047C146.681 303.153 146.455 302.087 146.455 300.849C146.455 299.606 146.682 298.54 147.137 297.65C147.592 296.756 148.213 296.07 149.001 295.593C149.788 295.112 150.684 294.871 151.688 294.871C152.306 294.871 152.881 294.96 153.415 295.138C153.953 295.313 154.436 295.57 154.864 295.911C155.292 296.248 155.646 296.661 155.927 297.15C156.207 297.634 156.396 298.189 156.495 298.814ZM161.96 306.843C161.141 306.843 160.427 306.655 159.818 306.28C159.208 305.905 158.734 305.381 158.397 304.706C158.06 304.032 157.891 303.244 157.891 302.343C157.891 301.438 158.06 300.646 158.397 299.968C158.734 299.29 159.208 298.763 159.818 298.388C160.427 298.013 161.141 297.826 161.96 297.826C162.778 297.826 163.492 298.013 164.102 298.388C164.711 298.763 165.185 299.29 165.522 299.968C165.859 300.646 166.028 301.438 166.028 302.343C166.028 303.244 165.859 304.032 165.522 304.706C165.185 305.381 164.711 305.905 164.102 306.28C163.492 306.655 162.778 306.843 161.96 306.843ZM161.965 305.417C162.496 305.417 162.935 305.277 163.283 304.996C163.632 304.716 163.889 304.343 164.056 303.877C164.227 303.411 164.312 302.898 164.312 302.337C164.312 301.78 164.227 301.269 164.056 300.803C163.889 300.333 163.632 299.956 163.283 299.672C162.935 299.388 162.496 299.246 161.965 299.246C161.431 299.246 160.988 299.388 160.636 299.672C160.287 299.956 160.028 300.333 159.857 300.803C159.691 301.269 159.607 301.78 159.607 302.337C159.607 302.898 159.691 303.411 159.857 303.877C160.028 304.343 160.287 304.716 160.636 304.996C160.988 305.277 161.431 305.417 161.965 305.417ZM167.748 306.667V297.939H169.39V299.326H169.481C169.64 298.856 169.92 298.487 170.322 298.218C170.727 297.945 171.186 297.809 171.697 297.809C171.803 297.809 171.928 297.813 172.072 297.82C172.22 297.828 172.335 297.837 172.419 297.849V299.474C172.35 299.455 172.229 299.434 172.055 299.411C171.881 299.384 171.706 299.371 171.532 299.371C171.131 299.371 170.773 299.456 170.458 299.627C170.148 299.794 169.901 300.027 169.72 300.326C169.538 300.621 169.447 300.958 169.447 301.337V306.667H167.748ZM177.162 306.843C176.302 306.843 175.561 306.659 174.94 306.292C174.323 305.92 173.845 305.4 173.508 304.729C173.175 304.055 173.008 303.265 173.008 302.36C173.008 301.466 173.175 300.678 173.508 299.996C173.845 299.314 174.315 298.782 174.917 298.4C175.523 298.017 176.232 297.826 177.042 297.826C177.535 297.826 178.012 297.907 178.474 298.07C178.936 298.233 179.351 298.489 179.718 298.837C180.086 299.186 180.376 299.638 180.588 300.195C180.8 300.748 180.906 301.42 180.906 302.212V302.814H173.968V301.542H179.241C179.241 301.095 179.15 300.699 178.968 300.354C178.787 300.006 178.531 299.731 178.201 299.53C177.876 299.33 177.493 299.229 177.054 299.229C176.576 299.229 176.16 299.347 175.804 299.581C175.451 299.813 175.179 300.116 174.985 300.491C174.796 300.862 174.701 301.265 174.701 301.701V302.695C174.701 303.278 174.804 303.775 175.008 304.184C175.216 304.593 175.506 304.905 175.877 305.121C176.249 305.333 176.682 305.439 177.179 305.439C177.501 305.439 177.794 305.394 178.059 305.303C178.324 305.208 178.554 305.068 178.747 304.883C178.94 304.697 179.088 304.468 179.19 304.195L180.798 304.485C180.669 304.958 180.438 305.373 180.105 305.729C179.775 306.081 179.36 306.356 178.86 306.553C178.364 306.746 177.798 306.843 177.162 306.843Z" fill="#1E1E1E"/>
</g>
<g id="Backend Interface">
<rect id="Shape_2" x="354" y="236.667" width="224" height="128" rx="6" fill="white" stroke="#757575" stroke-width="4" stroke-linecap="round"/>
<path id="Text_2" d="M398.983 306.667V295.03H403.245C404.07 295.03 404.754 295.167 405.296 295.439C405.837 295.708 406.243 296.074 406.512 296.536C406.781 296.994 406.915 297.511 406.915 298.087C406.915 298.572 406.826 298.981 406.648 299.314C406.47 299.644 406.231 299.909 405.932 300.11C405.637 300.307 405.311 300.451 404.955 300.542V300.655C405.341 300.674 405.718 300.799 406.086 301.03C406.457 301.258 406.764 301.581 407.006 302.002C407.248 302.422 407.37 302.934 407.37 303.536C407.37 304.131 407.229 304.665 406.949 305.138C406.673 305.608 406.245 305.981 405.665 306.258C405.086 306.53 404.345 306.667 403.444 306.667H398.983ZM400.739 305.161H403.273C404.114 305.161 404.716 304.998 405.08 304.672C405.444 304.347 405.625 303.939 405.625 303.451C405.625 303.083 405.533 302.746 405.347 302.439C405.161 302.133 404.896 301.888 404.551 301.706C404.211 301.525 403.805 301.434 403.336 301.434H400.739V305.161ZM400.739 300.064H403.091C403.485 300.064 403.839 299.989 404.154 299.837C404.472 299.686 404.724 299.474 404.909 299.201C405.099 298.924 405.194 298.599 405.194 298.224C405.194 297.742 405.025 297.339 404.688 297.013C404.351 296.688 403.834 296.525 403.137 296.525H400.739V300.064ZM411.679 306.86C411.126 306.86 410.626 306.758 410.179 306.553C409.732 306.345 409.378 306.044 409.117 305.65C408.859 305.256 408.731 304.773 408.731 304.201C408.731 303.708 408.825 303.303 409.015 302.985C409.204 302.667 409.46 302.415 409.782 302.229C410.104 302.044 410.464 301.903 410.861 301.809C411.259 301.714 411.664 301.642 412.077 301.593C412.6 301.532 413.024 301.483 413.35 301.445C413.676 301.403 413.912 301.337 414.06 301.246C414.208 301.155 414.282 301.008 414.282 300.803V300.763C414.282 300.267 414.142 299.883 413.861 299.61C413.585 299.337 413.172 299.201 412.623 299.201C412.051 299.201 411.6 299.328 411.27 299.581C410.945 299.831 410.719 300.11 410.594 300.417L408.998 300.053C409.187 299.523 409.464 299.095 409.827 298.769C410.195 298.439 410.617 298.201 411.094 298.053C411.571 297.902 412.073 297.826 412.6 297.826C412.948 297.826 413.318 297.867 413.708 297.951C414.102 298.03 414.469 298.178 414.81 298.394C415.155 298.61 415.437 298.919 415.657 299.32C415.876 299.718 415.986 300.235 415.986 300.871V306.667H414.327V305.474H414.259C414.149 305.693 413.984 305.909 413.765 306.121C413.545 306.333 413.263 306.509 412.918 306.65C412.573 306.79 412.161 306.86 411.679 306.86ZM412.049 305.496C412.518 305.496 412.92 305.403 413.253 305.218C413.59 305.032 413.846 304.79 414.02 304.491C414.198 304.188 414.287 303.864 414.287 303.519V302.394C414.227 302.455 414.109 302.511 413.935 302.564C413.765 302.614 413.57 302.657 413.35 302.695C413.13 302.729 412.916 302.761 412.708 302.792C412.5 302.818 412.325 302.841 412.185 302.86C411.856 302.902 411.554 302.972 411.282 303.07C411.013 303.169 410.797 303.311 410.634 303.496C410.475 303.678 410.395 303.92 410.395 304.224C410.395 304.644 410.551 304.962 410.861 305.178C411.172 305.39 411.568 305.496 412.049 305.496ZM421.749 306.843C420.904 306.843 420.177 306.652 419.567 306.269C418.961 305.883 418.495 305.35 418.17 304.672C417.844 303.994 417.681 303.218 417.681 302.343C417.681 301.456 417.848 300.674 418.181 299.996C418.514 299.314 418.984 298.782 419.59 298.4C420.196 298.017 420.91 297.826 421.732 297.826C422.395 297.826 422.986 297.949 423.505 298.195C424.024 298.438 424.442 298.778 424.761 299.218C425.083 299.657 425.274 300.17 425.334 300.758H423.681C423.59 300.349 423.382 299.996 423.056 299.701C422.734 299.405 422.302 299.258 421.761 299.258C421.287 299.258 420.872 299.383 420.516 299.633C420.164 299.879 419.889 300.231 419.692 300.689C419.495 301.144 419.397 301.682 419.397 302.303C419.397 302.939 419.493 303.489 419.687 303.951C419.88 304.413 420.153 304.771 420.505 305.025C420.861 305.278 421.279 305.405 421.761 305.405C422.083 305.405 422.374 305.347 422.636 305.229C422.901 305.108 423.122 304.936 423.3 304.712C423.482 304.489 423.609 304.22 423.681 303.905H425.334C425.274 304.47 425.09 304.974 424.783 305.417C424.476 305.86 424.065 306.208 423.55 306.462C423.039 306.716 422.439 306.843 421.749 306.843ZM428.538 303.706L428.526 301.633H428.822L432.299 297.939H434.333L430.367 302.144H430.1L428.538 303.706ZM426.975 306.667V295.03H428.674V306.667H426.975ZM432.487 306.667L429.362 302.519L430.532 301.331L434.572 306.667H432.487ZM439.107 306.843C438.248 306.843 437.507 306.659 436.886 306.292C436.268 305.92 435.791 305.4 435.454 304.729C435.121 304.055 434.954 303.265 434.954 302.36C434.954 301.466 435.121 300.678 435.454 299.996C435.791 299.314 436.261 298.782 436.863 298.4C437.469 298.017 438.177 297.826 438.988 297.826C439.481 297.826 439.958 297.907 440.42 298.07C440.882 298.233 441.297 298.489 441.664 298.837C442.032 299.186 442.321 299.638 442.534 300.195C442.746 300.748 442.852 301.42 442.852 302.212V302.814H435.914V301.542H441.187C441.187 301.095 441.096 300.699 440.914 300.354C440.732 300.006 440.477 299.731 440.147 299.53C439.821 299.33 439.439 299.229 438.999 299.229C438.522 299.229 438.106 299.347 437.749 299.581C437.397 299.813 437.124 300.116 436.931 300.491C436.742 300.862 436.647 301.265 436.647 301.701V302.695C436.647 303.278 436.749 303.775 436.954 304.184C437.162 304.593 437.452 304.905 437.823 305.121C438.195 305.333 438.628 305.439 439.124 305.439C439.446 305.439 439.74 305.394 440.005 305.303C440.27 305.208 440.499 305.068 440.693 304.883C440.886 304.697 441.034 304.468 441.136 304.195L442.744 304.485C442.615 304.958 442.384 305.373 442.051 305.729C441.721 306.081 441.306 306.356 440.806 306.553C440.31 306.746 439.744 306.843 439.107 306.843ZM446.26 301.485V306.667H444.561V297.939H446.191V299.36H446.299C446.5 298.898 446.814 298.527 447.242 298.246C447.674 297.966 448.218 297.826 448.873 297.826C449.468 297.826 449.989 297.951 450.436 298.201C450.883 298.447 451.229 298.814 451.475 299.303C451.722 299.792 451.845 300.396 451.845 301.116V306.667H450.146V301.32C450.146 300.688 449.981 300.193 449.652 299.837C449.322 299.477 448.869 299.297 448.294 299.297C447.9 299.297 447.549 299.383 447.242 299.553C446.939 299.724 446.699 299.974 446.521 300.303C446.347 300.629 446.26 301.023 446.26 301.485ZM457.214 306.837C456.51 306.837 455.881 306.657 455.328 306.297C454.779 305.934 454.347 305.417 454.032 304.746C453.722 304.072 453.566 303.263 453.566 302.32C453.566 301.377 453.724 300.57 454.038 299.9C454.356 299.229 454.792 298.716 455.345 298.36C455.898 298.004 456.525 297.826 457.226 297.826C457.767 297.826 458.203 297.917 458.532 298.099C458.866 298.277 459.123 298.485 459.305 298.724C459.491 298.962 459.635 299.172 459.737 299.354H459.839V295.03H461.538V306.667H459.879V305.309H459.737C459.635 305.494 459.487 305.706 459.294 305.945C459.104 306.184 458.843 306.392 458.51 306.57C458.176 306.748 457.745 306.837 457.214 306.837ZM457.589 305.388C458.078 305.388 458.491 305.259 458.828 305.002C459.169 304.741 459.426 304.379 459.601 303.917C459.779 303.455 459.868 302.917 459.868 302.303C459.868 301.697 459.781 301.167 459.606 300.712C459.432 300.258 459.176 299.903 458.839 299.65C458.502 299.396 458.085 299.269 457.589 299.269C457.078 299.269 456.652 299.402 456.311 299.667C455.97 299.932 455.712 300.294 455.538 300.752C455.368 301.21 455.282 301.727 455.282 302.303C455.282 302.886 455.37 303.411 455.544 303.877C455.718 304.343 455.976 304.712 456.316 304.985C456.661 305.254 457.085 305.388 457.589 305.388ZM469.737 295.03V306.667H467.982V295.03H469.737ZM473.681 301.485V306.667H471.982V297.939H473.612V299.36H473.72C473.921 298.898 474.235 298.527 474.663 298.246C475.095 297.966 475.639 297.826 476.294 297.826C476.889 297.826 477.41 297.951 477.857 298.201C478.304 298.447 478.65 298.814 478.896 299.303C479.143 299.792 479.266 300.396 479.266 301.116V306.667H477.567V301.32C477.567 300.688 477.402 300.193 477.073 299.837C476.743 299.477 476.29 299.297 475.715 299.297C475.321 299.297 474.97 299.383 474.663 299.553C474.36 299.724 474.12 299.974 473.942 300.303C473.768 300.629 473.681 301.023 473.681 301.485ZM485.442 297.939V299.303H480.675V297.939H485.442ZM481.953 295.849H483.652V304.104C483.652 304.434 483.701 304.682 483.8 304.849C483.898 305.011 484.025 305.123 484.181 305.184C484.34 305.241 484.512 305.269 484.698 305.269C484.834 305.269 484.953 305.259 485.056 305.241C485.158 305.222 485.237 305.206 485.294 305.195L485.601 306.599C485.503 306.636 485.362 306.674 485.181 306.712C484.999 306.754 484.772 306.777 484.499 306.78C484.052 306.788 483.635 306.708 483.249 306.542C482.862 306.375 482.55 306.117 482.311 305.769C482.073 305.42 481.953 304.983 481.953 304.456V295.849ZM490.813 306.843C489.953 306.843 489.213 306.659 488.591 306.292C487.974 305.92 487.497 305.4 487.16 304.729C486.826 304.055 486.66 303.265 486.66 302.36C486.66 301.466 486.826 300.678 487.16 299.996C487.497 299.314 487.966 298.782 488.569 298.4C489.175 298.017 489.883 297.826 490.694 297.826C491.186 297.826 491.663 297.907 492.125 298.07C492.588 298.233 493.002 298.489 493.37 298.837C493.737 299.186 494.027 299.638 494.239 300.195C494.451 300.748 494.557 301.42 494.557 302.212V302.814H487.62V301.542H492.892C492.892 301.095 492.802 300.699 492.62 300.354C492.438 300.006 492.182 299.731 491.853 299.53C491.527 299.33 491.144 299.229 490.705 299.229C490.228 299.229 489.811 299.347 489.455 299.581C489.103 299.813 488.83 300.116 488.637 300.491C488.447 300.862 488.353 301.265 488.353 301.701V302.695C488.353 303.278 488.455 303.775 488.66 304.184C488.868 304.593 489.158 304.905 489.529 305.121C489.9 305.333 490.334 305.439 490.83 305.439C491.152 305.439 491.445 305.394 491.711 305.303C491.976 305.208 492.205 305.068 492.398 304.883C492.591 304.697 492.739 304.468 492.841 304.195L494.449 304.485C494.32 304.958 494.089 305.373 493.756 305.729C493.427 306.081 493.012 306.356 492.512 306.553C492.016 306.746 491.449 306.843 490.813 306.843ZM496.266 306.667V297.939H497.908V299.326H497.999C498.158 298.856 498.439 298.487 498.84 298.218C499.245 297.945 499.704 297.809 500.215 297.809C500.321 297.809 500.446 297.813 500.59 297.82C500.738 297.828 500.853 297.837 500.937 297.849V299.474C500.868 299.455 500.747 299.434 500.573 299.411C500.399 299.384 500.225 299.371 500.05 299.371C499.649 299.371 499.291 299.456 498.976 299.627C498.666 299.794 498.42 300.027 498.238 300.326C498.056 300.621 497.965 300.958 497.965 301.337V306.667H496.266ZM506.9 297.939V299.303H501.968V297.939H506.9ZM503.32 306.667V296.928C503.32 296.383 503.44 295.93 503.678 295.57C503.917 295.206 504.233 294.936 504.627 294.758C505.021 294.576 505.449 294.485 505.911 294.485C506.252 294.485 506.544 294.513 506.786 294.57C507.029 294.623 507.209 294.672 507.326 294.718L506.928 296.093C506.849 296.07 506.746 296.044 506.621 296.013C506.496 295.979 506.345 295.962 506.167 295.962C505.754 295.962 505.459 296.064 505.281 296.269C505.106 296.474 505.019 296.769 505.019 297.155V306.667H503.32ZM510.751 306.86C510.198 306.86 509.698 306.758 509.251 306.553C508.804 306.345 508.45 306.044 508.188 305.65C507.931 305.256 507.802 304.773 507.802 304.201C507.802 303.708 507.897 303.303 508.086 302.985C508.275 302.667 508.531 302.415 508.853 302.229C509.175 302.044 509.535 301.903 509.933 301.809C510.33 301.714 510.736 301.642 511.149 301.593C511.671 301.532 512.096 301.483 512.421 301.445C512.747 301.403 512.984 301.337 513.132 301.246C513.279 301.155 513.353 301.008 513.353 300.803V300.763C513.353 300.267 513.213 299.883 512.933 299.61C512.656 299.337 512.243 299.201 511.694 299.201C511.122 299.201 510.671 299.328 510.342 299.581C510.016 299.831 509.791 300.11 509.666 300.417L508.069 300.053C508.258 299.523 508.535 299.095 508.899 298.769C509.266 298.439 509.688 298.201 510.166 298.053C510.643 297.902 511.145 297.826 511.671 297.826C512.02 297.826 512.389 297.867 512.779 297.951C513.173 298.03 513.541 298.178 513.882 298.394C514.226 298.61 514.508 298.919 514.728 299.32C514.948 299.718 515.058 300.235 515.058 300.871V306.667H513.399V305.474H513.33C513.221 305.693 513.056 305.909 512.836 306.121C512.616 306.333 512.334 306.509 511.989 306.65C511.645 306.79 511.232 306.86 510.751 306.86ZM511.12 305.496C511.59 305.496 511.991 305.403 512.325 305.218C512.662 305.032 512.917 304.79 513.092 304.491C513.27 304.188 513.359 303.864 513.359 303.519V302.394C513.298 302.455 513.181 302.511 513.007 302.564C512.836 302.614 512.641 302.657 512.421 302.695C512.202 302.729 511.988 302.761 511.779 302.792C511.571 302.818 511.397 302.841 511.257 302.86C510.927 302.902 510.626 302.972 510.353 303.07C510.084 303.169 509.868 303.311 509.705 303.496C509.546 303.678 509.467 303.92 509.467 304.224C509.467 304.644 509.622 304.962 509.933 305.178C510.243 305.39 510.639 305.496 511.12 305.496ZM520.821 306.843C519.976 306.843 519.249 306.652 518.639 306.269C518.033 305.883 517.567 305.35 517.241 304.672C516.915 303.994 516.752 303.218 516.752 302.343C516.752 301.456 516.919 300.674 517.252 299.996C517.586 299.314 518.055 298.782 518.661 298.4C519.268 298.017 519.982 297.826 520.804 297.826C521.466 297.826 522.057 297.949 522.576 298.195C523.095 298.438 523.514 298.778 523.832 299.218C524.154 299.657 524.345 300.17 524.406 300.758H522.752C522.661 300.349 522.453 299.996 522.127 299.701C521.805 299.405 521.374 299.258 520.832 299.258C520.358 299.258 519.944 299.383 519.588 299.633C519.235 299.879 518.961 300.231 518.764 300.689C518.567 301.144 518.468 301.682 518.468 302.303C518.468 302.939 518.565 303.489 518.758 303.951C518.951 304.413 519.224 304.771 519.576 305.025C519.932 305.278 520.351 305.405 520.832 305.405C521.154 305.405 521.446 305.347 521.707 305.229C521.972 305.108 522.194 304.936 522.372 304.712C522.554 304.489 522.68 304.22 522.752 303.905H524.406C524.345 304.47 524.161 304.974 523.855 305.417C523.548 305.86 523.137 306.208 522.622 306.462C522.11 306.716 521.51 306.843 520.821 306.843ZM529.808 306.843C528.948 306.843 528.208 306.659 527.586 306.292C526.969 305.92 526.492 305.4 526.154 304.729C525.821 304.055 525.654 303.265 525.654 302.36C525.654 301.466 525.821 300.678 526.154 299.996C526.492 299.314 526.961 298.782 527.564 298.4C528.17 298.017 528.878 297.826 529.689 297.826C530.181 297.826 530.658 297.907 531.12 298.07C531.583 298.233 531.997 298.489 532.365 298.837C532.732 299.186 533.022 299.638 533.234 300.195C533.446 300.748 533.552 301.42 533.552 302.212V302.814H526.615V301.542H531.887C531.887 301.095 531.797 300.699 531.615 300.354C531.433 300.006 531.177 299.731 530.848 299.53C530.522 299.33 530.139 299.229 529.7 299.229C529.223 299.229 528.806 299.347 528.45 299.581C528.098 299.813 527.825 300.116 527.632 300.491C527.442 300.862 527.348 301.265 527.348 301.701V302.695C527.348 303.278 527.45 303.775 527.654 304.184C527.863 304.593 528.153 304.905 528.524 305.121C528.895 305.333 529.329 305.439 529.825 305.439C530.147 305.439 530.44 305.394 530.706 305.303C530.971 305.208 531.2 305.068 531.393 304.883C531.586 304.697 531.734 304.468 531.836 304.195L533.444 304.485C533.315 304.958 533.084 305.373 532.751 305.729C532.422 306.081 532.007 306.356 531.507 306.553C531.011 306.746 530.444 306.843 529.808 306.843Z" fill="#1E1E1E"/>
</g>
<g id="VulkanBackend">
<rect id="Shape_3" x="706" y="450" width="224" height="128" rx="6" fill="white" stroke="#757575" stroke-width="4" stroke-linecap="round"/>
<path id="Text_3" d="M762.125 508.364L765.364 517.841H765.494L768.733 508.364H770.631L766.443 520H764.415L760.227 508.364H762.125ZM777.527 516.381V511.273H779.232V520H777.561V518.489H777.47C777.269 518.955 776.947 519.343 776.504 519.653C776.065 519.96 775.518 520.114 774.862 520.114C774.302 520.114 773.805 519.991 773.374 519.744C772.946 519.494 772.608 519.125 772.362 518.636C772.12 518.148 771.999 517.544 771.999 516.824V511.273H773.697V516.619C773.697 517.214 773.862 517.687 774.192 518.04C774.521 518.392 774.949 518.568 775.476 518.568C775.794 518.568 776.11 518.489 776.425 518.33C776.743 518.17 777.006 517.93 777.215 517.608C777.427 517.286 777.531 516.877 777.527 516.381ZM783.037 508.364V520H781.338V508.364H783.037ZM786.709 517.04L786.698 514.966H786.993L790.47 511.273H792.505L788.539 515.477H788.272L786.709 517.04ZM785.147 520V508.364H786.845V520H785.147ZM790.658 520L787.533 515.852L788.703 514.665L792.743 520H790.658ZM796.417 520.193C795.864 520.193 795.364 520.091 794.917 519.886C794.47 519.678 794.115 519.377 793.854 518.983C793.597 518.589 793.468 518.106 793.468 517.534C793.468 517.042 793.562 516.636 793.752 516.318C793.941 516 794.197 515.748 794.519 515.562C794.841 515.377 795.201 515.237 795.598 515.142C795.996 515.047 796.401 514.975 796.814 514.926C797.337 514.866 797.761 514.816 798.087 514.778C798.413 514.737 798.65 514.67 798.797 514.58C798.945 514.489 799.019 514.341 799.019 514.136V514.097C799.019 513.6 798.879 513.216 798.598 512.943C798.322 512.67 797.909 512.534 797.36 512.534C796.788 512.534 796.337 512.661 796.008 512.915C795.682 513.165 795.456 513.443 795.331 513.75L793.735 513.386C793.924 512.856 794.201 512.428 794.564 512.102C794.932 511.773 795.354 511.534 795.831 511.386C796.309 511.235 796.811 511.159 797.337 511.159C797.686 511.159 798.055 511.201 798.445 511.284C798.839 511.364 799.206 511.511 799.547 511.727C799.892 511.943 800.174 512.252 800.394 512.653C800.614 513.051 800.723 513.568 800.723 514.205V520H799.064V518.807H798.996C798.886 519.027 798.722 519.242 798.502 519.455C798.282 519.667 798 519.843 797.655 519.983C797.311 520.123 796.898 520.193 796.417 520.193ZM796.786 518.83C797.256 518.83 797.657 518.737 797.99 518.551C798.328 518.366 798.583 518.123 798.758 517.824C798.936 517.521 799.025 517.197 799.025 516.852V515.727C798.964 515.788 798.847 515.845 798.672 515.898C798.502 515.947 798.307 515.991 798.087 516.028C797.867 516.062 797.653 516.095 797.445 516.125C797.237 516.152 797.062 516.174 796.922 516.193C796.593 516.235 796.292 516.305 796.019 516.403C795.75 516.502 795.534 516.644 795.371 516.83C795.212 517.011 795.133 517.254 795.133 517.557C795.133 517.977 795.288 518.295 795.598 518.511C795.909 518.723 796.305 518.83 796.786 518.83ZM804.509 514.818V520H802.81V511.273H804.441V512.693H804.549C804.75 512.231 805.064 511.86 805.492 511.58C805.924 511.299 806.467 511.159 807.123 511.159C807.717 511.159 808.238 511.284 808.685 511.534C809.132 511.78 809.479 512.148 809.725 512.636C809.971 513.125 810.094 513.729 810.094 514.449V520H808.395V514.653C808.395 514.021 808.231 513.527 807.901 513.17C807.572 512.811 807.119 512.631 806.543 512.631C806.149 512.631 805.799 512.716 805.492 512.886C805.189 513.057 804.948 513.307 804.77 513.636C804.596 513.962 804.509 514.356 804.509 514.818ZM812.333 520V508.364H816.594C817.42 508.364 818.104 508.5 818.646 508.773C819.187 509.042 819.593 509.407 819.862 509.869C820.13 510.328 820.265 510.845 820.265 511.42C820.265 511.905 820.176 512.314 819.998 512.648C819.82 512.977 819.581 513.242 819.282 513.443C818.987 513.64 818.661 513.784 818.305 513.875V513.989C818.691 514.008 819.068 514.133 819.435 514.364C819.807 514.591 820.113 514.915 820.356 515.335C820.598 515.756 820.719 516.267 820.719 516.869C820.719 517.464 820.579 517.998 820.299 518.472C820.022 518.941 819.594 519.314 819.015 519.591C818.435 519.864 817.695 520 816.793 520H812.333ZM814.089 518.494H816.623C817.464 518.494 818.066 518.331 818.43 518.006C818.793 517.68 818.975 517.273 818.975 516.784C818.975 516.417 818.882 516.08 818.697 515.773C818.511 515.466 818.246 515.222 817.901 515.04C817.56 514.858 817.155 514.767 816.685 514.767H814.089V518.494ZM814.089 513.398H816.441C816.835 513.398 817.189 513.322 817.504 513.17C817.822 513.019 818.074 512.807 818.259 512.534C818.449 512.258 818.543 511.932 818.543 511.557C818.543 511.076 818.375 510.672 818.038 510.347C817.701 510.021 817.183 509.858 816.487 509.858H814.089V513.398ZM825.029 520.193C824.476 520.193 823.976 520.091 823.529 519.886C823.082 519.678 822.728 519.377 822.467 518.983C822.209 518.589 822.08 518.106 822.08 517.534C822.08 517.042 822.175 516.636 822.364 516.318C822.554 516 822.81 515.748 823.132 515.562C823.454 515.377 823.813 515.237 824.211 515.142C824.609 515.047 825.014 514.975 825.427 514.926C825.95 514.866 826.374 514.816 826.7 514.778C827.025 514.737 827.262 514.67 827.41 514.58C827.558 514.489 827.632 514.341 827.632 514.136V514.097C827.632 513.6 827.491 513.216 827.211 512.943C826.935 512.67 826.522 512.534 825.972 512.534C825.4 512.534 824.95 512.661 824.62 512.915C824.294 513.165 824.069 513.443 823.944 513.75L822.347 513.386C822.537 512.856 822.813 512.428 823.177 512.102C823.544 511.773 823.967 511.534 824.444 511.386C824.921 511.235 825.423 511.159 825.95 511.159C826.298 511.159 826.668 511.201 827.058 511.284C827.452 511.364 827.819 511.511 828.16 511.727C828.505 511.943 828.787 512.252 829.007 512.653C829.226 513.051 829.336 513.568 829.336 514.205V520H827.677V518.807H827.609C827.499 519.027 827.334 519.242 827.114 519.455C826.895 519.667 826.613 519.843 826.268 519.983C825.923 520.123 825.51 520.193 825.029 520.193ZM825.399 518.83C825.868 518.83 826.27 518.737 826.603 518.551C826.94 518.366 827.196 518.123 827.37 517.824C827.548 517.521 827.637 517.197 827.637 516.852V515.727C827.577 515.788 827.459 515.845 827.285 515.898C827.114 515.947 826.919 515.991 826.7 516.028C826.48 516.062 826.266 516.095 826.058 516.125C825.849 516.152 825.675 516.174 825.535 516.193C825.205 516.235 824.904 516.305 824.632 516.403C824.363 516.502 824.147 516.644 823.984 516.83C823.825 517.011 823.745 517.254 823.745 517.557C823.745 517.977 823.9 518.295 824.211 518.511C824.522 518.723 824.918 518.83 825.399 518.83ZM835.099 520.176C834.254 520.176 833.527 519.985 832.917 519.602C832.311 519.216 831.845 518.684 831.519 518.006C831.194 517.328 831.031 516.551 831.031 515.676C831.031 514.79 831.197 514.008 831.531 513.33C831.864 512.648 832.334 512.116 832.94 511.733C833.546 511.35 834.26 511.159 835.082 511.159C835.745 511.159 836.336 511.282 836.855 511.528C837.374 511.771 837.792 512.112 838.11 512.551C838.432 512.991 838.624 513.504 838.684 514.091H837.031C836.94 513.682 836.732 513.33 836.406 513.034C836.084 512.739 835.652 512.591 835.11 512.591C834.637 512.591 834.222 512.716 833.866 512.966C833.514 513.212 833.239 513.564 833.042 514.023C832.845 514.477 832.747 515.015 832.747 515.636C832.747 516.273 832.843 516.822 833.036 517.284C833.23 517.746 833.502 518.104 833.855 518.358C834.211 518.612 834.629 518.739 835.11 518.739C835.432 518.739 835.724 518.68 835.985 518.562C836.251 518.441 836.472 518.269 836.65 518.045C836.832 517.822 836.959 517.553 837.031 517.239H838.684C838.624 517.803 838.44 518.307 838.133 518.75C837.826 519.193 837.415 519.542 836.9 519.795C836.389 520.049 835.788 520.176 835.099 520.176ZM841.887 517.04L841.876 514.966H842.172L845.649 511.273H847.683L843.717 515.477H843.45L841.887 517.04ZM840.325 520V508.364H842.024V520H840.325ZM845.836 520L842.711 515.852L843.882 514.665L847.922 520H845.836ZM852.457 520.176C851.597 520.176 850.857 519.992 850.236 519.625C849.618 519.254 849.141 518.733 848.804 518.062C848.47 517.388 848.304 516.598 848.304 515.693C848.304 514.799 848.47 514.011 848.804 513.33C849.141 512.648 849.611 512.116 850.213 511.733C850.819 511.35 851.527 511.159 852.338 511.159C852.83 511.159 853.308 511.241 853.77 511.403C854.232 511.566 854.647 511.822 855.014 512.17C855.381 512.519 855.671 512.972 855.883 513.528C856.095 514.081 856.202 514.754 856.202 515.545V516.148H849.264V514.875H854.537C854.537 514.428 854.446 514.032 854.264 513.688C854.082 513.339 853.827 513.064 853.497 512.864C853.171 512.663 852.789 512.562 852.349 512.562C851.872 512.562 851.455 512.68 851.099 512.915C850.747 513.146 850.474 513.449 850.281 513.824C850.092 514.195 849.997 514.598 849.997 515.034V516.028C849.997 516.612 850.099 517.108 850.304 517.517C850.512 517.926 850.802 518.239 851.173 518.455C851.544 518.667 851.978 518.773 852.474 518.773C852.796 518.773 853.09 518.727 853.355 518.636C853.62 518.542 853.849 518.402 854.042 518.216C854.236 518.03 854.383 517.801 854.486 517.528L856.094 517.818C855.965 518.292 855.734 518.706 855.4 519.062C855.071 519.415 854.656 519.689 854.156 519.886C853.66 520.08 853.094 520.176 852.457 520.176ZM859.609 514.818V520H857.91V511.273H859.541V512.693H859.649C859.85 512.231 860.164 511.86 860.592 511.58C861.024 511.299 861.568 511.159 862.223 511.159C862.818 511.159 863.339 511.284 863.785 511.534C864.232 511.78 864.579 512.148 864.825 512.636C865.071 513.125 865.195 513.729 865.195 514.449V520H863.496V514.653C863.496 514.021 863.331 513.527 863.001 513.17C862.672 512.811 862.219 512.631 861.643 512.631C861.249 512.631 860.899 512.716 860.592 512.886C860.289 513.057 860.049 513.307 859.871 513.636C859.696 513.962 859.609 514.356 859.609 514.818ZM870.564 520.17C869.859 520.17 869.231 519.991 868.678 519.631C868.128 519.267 867.697 518.75 867.382 518.08C867.072 517.405 866.916 516.597 866.916 515.653C866.916 514.71 867.073 513.903 867.388 513.233C867.706 512.562 868.142 512.049 868.695 511.693C869.248 511.337 869.875 511.159 870.575 511.159C871.117 511.159 871.553 511.25 871.882 511.432C872.216 511.61 872.473 511.818 872.655 512.057C872.841 512.295 872.984 512.506 873.087 512.688H873.189V508.364H874.888V520H873.229V518.642H873.087C872.984 518.828 872.837 519.04 872.644 519.278C872.454 519.517 872.193 519.725 871.859 519.903C871.526 520.081 871.094 520.17 870.564 520.17ZM870.939 518.722C871.428 518.722 871.841 518.593 872.178 518.335C872.519 518.074 872.776 517.712 872.95 517.25C873.128 516.788 873.217 516.25 873.217 515.636C873.217 515.03 873.13 514.5 872.956 514.045C872.782 513.591 872.526 513.237 872.189 512.983C871.852 512.729 871.435 512.602 870.939 512.602C870.428 512.602 870.002 512.735 869.661 513C869.32 513.265 869.062 513.627 868.888 514.085C868.717 514.544 868.632 515.061 868.632 515.636C868.632 516.22 868.719 516.744 868.894 517.21C869.068 517.676 869.325 518.045 869.666 518.318C870.011 518.587 870.435 518.722 870.939 518.722Z" fill="#1E1E1E"/>
</g>
<g id="WebGPUBackend">
<rect id="Shape_4" x="706" y="114" width="224" height="128" rx="6" fill="white" stroke="#757575" stroke-width="4" stroke-linecap="round"/>
<path id="Text_4" d="M755.425 184L752.198 172.364H754.045L756.312 181.375H756.42L758.778 172.364H760.607L762.965 181.381H763.073L765.334 172.364H767.187L763.954 184H762.187L759.738 175.284H759.647L757.198 184H755.425ZM771.377 184.176C770.517 184.176 769.777 183.992 769.156 183.625C768.538 183.254 768.061 182.733 767.724 182.062C767.39 181.388 767.224 180.598 767.224 179.693C767.224 178.799 767.39 178.011 767.724 177.33C768.061 176.648 768.531 176.116 769.133 175.733C769.739 175.35 770.447 175.159 771.258 175.159C771.75 175.159 772.228 175.241 772.69 175.403C773.152 175.566 773.567 175.822 773.934 176.17C774.301 176.519 774.591 176.972 774.803 177.528C775.015 178.081 775.121 178.754 775.121 179.545V180.148H768.184V178.875H773.457C773.457 178.428 773.366 178.032 773.184 177.688C773.002 177.339 772.746 177.064 772.417 176.864C772.091 176.663 771.709 176.562 771.269 176.562C770.792 176.562 770.375 176.68 770.019 176.915C769.667 177.146 769.394 177.449 769.201 177.824C769.012 178.195 768.917 178.598 768.917 179.034V180.028C768.917 180.612 769.019 181.108 769.224 181.517C769.432 181.926 769.722 182.239 770.093 182.455C770.464 182.667 770.898 182.773 771.394 182.773C771.716 182.773 772.01 182.727 772.275 182.636C772.54 182.542 772.769 182.402 772.962 182.216C773.156 182.03 773.303 181.801 773.406 181.528L775.014 181.818C774.885 182.292 774.654 182.706 774.32 183.062C773.991 183.415 773.576 183.689 773.076 183.886C772.58 184.08 772.014 184.176 771.377 184.176ZM776.967 184V172.364H778.666V176.688H778.768C778.866 176.506 779.008 176.295 779.194 176.057C779.38 175.818 779.637 175.61 779.967 175.432C780.296 175.25 780.732 175.159 781.274 175.159C781.978 175.159 782.607 175.337 783.16 175.693C783.713 176.049 784.147 176.562 784.461 177.233C784.779 177.903 784.938 178.71 784.938 179.653C784.938 180.597 784.781 181.405 784.467 182.08C784.152 182.75 783.721 183.267 783.171 183.631C782.622 183.991 781.995 184.17 781.291 184.17C780.76 184.17 780.327 184.081 779.99 183.903C779.656 183.725 779.395 183.517 779.205 183.278C779.016 183.04 778.87 182.828 778.768 182.642H778.626V184H776.967ZM778.632 179.636C778.632 180.25 778.721 180.788 778.899 181.25C779.077 181.712 779.334 182.074 779.671 182.335C780.008 182.593 780.421 182.722 780.91 182.722C781.418 182.722 781.842 182.587 782.183 182.318C782.524 182.045 782.781 181.676 782.955 181.21C783.133 180.744 783.222 180.22 783.222 179.636C783.222 179.061 783.135 178.544 782.961 178.085C782.791 177.627 782.533 177.265 782.188 177C781.847 176.735 781.421 176.602 780.91 176.602C780.418 176.602 780.001 176.729 779.66 176.983C779.323 177.237 779.067 177.591 778.893 178.045C778.719 178.5 778.632 179.03 778.632 179.636ZM794.681 176.04C794.572 175.695 794.424 175.386 794.238 175.114C794.056 174.837 793.839 174.602 793.585 174.409C793.331 174.212 793.041 174.062 792.715 173.96C792.394 173.858 792.039 173.807 791.653 173.807C790.998 173.807 790.407 173.975 789.88 174.312C789.354 174.65 788.937 175.144 788.63 175.795C788.327 176.443 788.176 177.237 788.176 178.176C788.176 179.119 788.329 179.917 788.636 180.568C788.943 181.22 789.363 181.714 789.897 182.051C790.431 182.388 791.039 182.557 791.721 182.557C792.354 182.557 792.905 182.428 793.375 182.17C793.848 181.913 794.214 181.549 794.471 181.08C794.733 180.606 794.863 180.049 794.863 179.409L795.318 179.494H791.988V178.045H796.562V179.369C796.562 180.347 796.354 181.195 795.937 181.915C795.524 182.631 794.952 183.184 794.221 183.574C793.494 183.964 792.661 184.159 791.721 184.159C790.668 184.159 789.744 183.917 788.948 183.432C788.157 182.947 787.539 182.259 787.096 181.369C786.653 180.475 786.431 179.415 786.431 178.188C786.431 177.259 786.56 176.426 786.818 175.688C787.075 174.949 787.437 174.322 787.903 173.807C788.373 173.288 788.924 172.892 789.556 172.619C790.193 172.343 790.888 172.205 791.642 172.205C792.27 172.205 792.856 172.297 793.397 172.483C793.943 172.669 794.428 172.932 794.852 173.273C795.28 173.614 795.634 174.019 795.914 174.489C796.195 174.955 796.384 175.472 796.483 176.04H794.681ZM798.615 184V172.364H802.763C803.668 172.364 804.418 172.528 805.013 172.858C805.607 173.187 806.052 173.638 806.348 174.21C806.643 174.778 806.791 175.419 806.791 176.131C806.791 176.847 806.641 177.491 806.342 178.062C806.047 178.631 805.6 179.081 805.001 179.415C804.406 179.744 803.658 179.909 802.757 179.909H799.905V178.42H802.598C803.17 178.42 803.634 178.322 803.99 178.125C804.346 177.924 804.607 177.652 804.774 177.307C804.941 176.962 805.024 176.57 805.024 176.131C805.024 175.691 804.941 175.301 804.774 174.96C804.607 174.619 804.344 174.352 803.984 174.159C803.628 173.966 803.158 173.869 802.575 173.869H800.37V184H798.615ZM816.156 172.364H817.917V180.017C817.917 180.831 817.726 181.553 817.344 182.182C816.961 182.807 816.423 183.299 815.73 183.659C815.037 184.015 814.224 184.193 813.292 184.193C812.364 184.193 811.554 184.015 810.861 183.659C810.167 183.299 809.63 182.807 809.247 182.182C808.864 181.553 808.673 180.831 808.673 180.017V172.364H810.429V179.875C810.429 180.402 810.544 180.869 810.775 181.278C811.01 181.688 811.342 182.009 811.77 182.244C812.198 182.475 812.705 182.591 813.292 182.591C813.883 182.591 814.393 182.475 814.821 182.244C815.253 182.009 815.582 181.688 815.81 181.278C816.041 180.869 816.156 180.402 816.156 179.875V172.364ZM820.294 184V172.364H824.555C825.381 172.364 826.065 172.5 826.607 172.773C827.148 173.042 827.554 173.407 827.822 173.869C828.091 174.328 828.226 174.845 828.226 175.42C828.226 175.905 828.137 176.314 827.959 176.648C827.781 176.977 827.542 177.242 827.243 177.443C826.947 177.64 826.622 177.784 826.266 177.875V177.989C826.652 178.008 827.029 178.133 827.396 178.364C827.768 178.591 828.074 178.915 828.317 179.335C828.559 179.756 828.68 180.267 828.68 180.869C828.68 181.464 828.54 181.998 828.26 182.472C827.983 182.941 827.555 183.314 826.976 183.591C826.396 183.864 825.656 184 824.754 184H820.294ZM822.05 182.494H824.584C825.425 182.494 826.027 182.331 826.391 182.006C826.754 181.68 826.936 181.273 826.936 180.784C826.936 180.417 826.843 180.08 826.658 179.773C826.472 179.466 826.207 179.222 825.862 179.04C825.521 178.858 825.116 178.767 824.646 178.767H822.05V182.494ZM822.05 177.398H824.402C824.796 177.398 825.15 177.322 825.464 177.17C825.783 177.019 826.035 176.807 826.22 176.534C826.41 176.258 826.504 175.932 826.504 175.557C826.504 175.076 826.336 174.672 825.999 174.347C825.661 174.021 825.144 173.858 824.447 173.858H822.05V177.398ZM832.99 184.193C832.437 184.193 831.937 184.091 831.49 183.886C831.043 183.678 830.689 183.377 830.428 182.983C830.17 182.589 830.041 182.106 830.041 181.534C830.041 181.042 830.136 180.636 830.325 180.318C830.515 180 830.77 179.748 831.092 179.562C831.414 179.377 831.774 179.237 832.172 179.142C832.57 179.047 832.975 178.975 833.388 178.926C833.911 178.866 834.335 178.816 834.661 178.778C834.986 178.737 835.223 178.67 835.371 178.58C835.519 178.489 835.592 178.341 835.592 178.136V178.097C835.592 177.6 835.452 177.216 835.172 176.943C834.895 176.67 834.483 176.534 833.933 176.534C833.361 176.534 832.911 176.661 832.581 176.915C832.255 177.165 832.03 177.443 831.905 177.75L830.308 177.386C830.498 176.856 830.774 176.428 831.138 176.102C831.505 175.773 831.928 175.534 832.405 175.386C832.882 175.235 833.384 175.159 833.911 175.159C834.259 175.159 834.628 175.201 835.019 175.284C835.413 175.364 835.78 175.511 836.121 175.727C836.466 175.943 836.748 176.252 836.967 176.653C837.187 177.051 837.297 177.568 837.297 178.205V184H835.638V182.807H835.57C835.46 183.027 835.295 183.242 835.075 183.455C834.856 183.667 834.574 183.843 834.229 183.983C833.884 184.123 833.471 184.193 832.99 184.193ZM833.36 182.83C833.829 182.83 834.231 182.737 834.564 182.551C834.901 182.366 835.157 182.123 835.331 181.824C835.509 181.521 835.598 181.197 835.598 180.852V179.727C835.538 179.788 835.42 179.845 835.246 179.898C835.075 179.947 834.88 179.991 834.661 180.028C834.441 180.062 834.227 180.095 834.019 180.125C833.81 180.152 833.636 180.174 833.496 180.193C833.166 180.235 832.865 180.305 832.592 180.403C832.324 180.502 832.108 180.644 831.945 180.83C831.786 181.011 831.706 181.254 831.706 181.557C831.706 181.977 831.861 182.295 832.172 182.511C832.483 182.723 832.878 182.83 833.36 182.83ZM843.06 184.176C842.215 184.176 841.488 183.985 840.878 183.602C840.272 183.216 839.806 182.684 839.48 182.006C839.155 181.328 838.992 180.551 838.992 179.676C838.992 178.79 839.158 178.008 839.492 177.33C839.825 176.648 840.295 176.116 840.901 175.733C841.507 175.35 842.221 175.159 843.043 175.159C843.706 175.159 844.297 175.282 844.816 175.528C845.335 175.771 845.753 176.112 846.071 176.551C846.393 176.991 846.585 177.504 846.645 178.091H844.992C844.901 177.682 844.693 177.33 844.367 177.034C844.045 176.739 843.613 176.591 843.071 176.591C842.598 176.591 842.183 176.716 841.827 176.966C841.475 177.212 841.2 177.564 841.003 178.023C840.806 178.477 840.708 179.015 840.708 179.636C840.708 180.273 840.804 180.822 840.997 181.284C841.191 181.746 841.463 182.104 841.816 182.358C842.172 182.612 842.59 182.739 843.071 182.739C843.393 182.739 843.685 182.68 843.946 182.562C844.211 182.441 844.433 182.269 844.611 182.045C844.793 181.822 844.92 181.553 844.992 181.239H846.645C846.585 181.803 846.401 182.307 846.094 182.75C845.787 183.193 845.376 183.542 844.861 183.795C844.35 184.049 843.749 184.176 843.06 184.176ZM849.848 181.04L849.837 178.966H850.133L853.61 175.273H855.644L851.678 179.477H851.411L849.848 181.04ZM848.286 184V172.364H849.985V184H848.286ZM853.797 184L850.672 179.852L851.843 178.665L855.883 184H853.797ZM860.418 184.176C859.558 184.176 858.818 183.992 858.197 183.625C857.579 183.254 857.102 182.733 856.765 182.062C856.431 181.388 856.265 180.598 856.265 179.693C856.265 178.799 856.431 178.011 856.765 177.33C857.102 176.648 857.572 176.116 858.174 175.733C858.78 175.35 859.488 175.159 860.299 175.159C860.791 175.159 861.269 175.241 861.731 175.403C862.193 175.566 862.608 175.822 862.975 176.17C863.342 176.519 863.632 176.972 863.844 177.528C864.056 178.081 864.162 178.754 864.162 179.545V180.148H857.225V178.875H862.498C862.498 178.428 862.407 178.032 862.225 177.688C862.043 177.339 861.787 177.064 861.458 176.864C861.132 176.663 860.75 176.562 860.31 176.562C859.833 176.562 859.416 176.68 859.06 176.915C858.708 177.146 858.435 177.449 858.242 177.824C858.053 178.195 857.958 178.598 857.958 179.034V180.028C857.958 180.612 858.06 181.108 858.265 181.517C858.473 181.926 858.763 182.239 859.134 182.455C859.505 182.667 859.939 182.773 860.435 182.773C860.757 182.773 861.051 182.727 861.316 182.636C861.581 182.542 861.81 182.402 862.003 182.216C862.197 182.03 862.344 181.801 862.447 181.528L864.055 181.818C863.926 182.292 863.695 182.706 863.361 183.062C863.032 183.415 862.617 183.689 862.117 183.886C861.621 184.08 861.055 184.176 860.418 184.176ZM867.57 178.818V184H865.871V175.273H867.502V176.693H867.61C867.811 176.231 868.125 175.86 868.553 175.58C868.985 175.299 869.529 175.159 870.184 175.159C870.779 175.159 871.299 175.284 871.746 175.534C872.193 175.78 872.54 176.148 872.786 176.636C873.032 177.125 873.156 177.729 873.156 178.449V184H871.457V178.653C871.457 178.021 871.292 177.527 870.962 177.17C870.633 176.811 870.18 176.631 869.604 176.631C869.21 176.631 868.86 176.716 868.553 176.886C868.25 177.057 868.01 177.307 867.832 177.636C867.657 177.962 867.57 178.356 867.57 178.818ZM878.525 184.17C877.82 184.17 877.192 183.991 876.639 183.631C876.089 183.267 875.658 182.75 875.343 182.08C875.033 181.405 874.877 180.597 874.877 179.653C874.877 178.71 875.034 177.903 875.349 177.233C875.667 176.562 876.103 176.049 876.656 175.693C877.209 175.337 877.836 175.159 878.536 175.159C879.078 175.159 879.514 175.25 879.843 175.432C880.176 175.61 880.434 175.818 880.616 176.057C880.801 176.295 880.945 176.506 881.048 176.688H881.15V172.364H882.849V184H881.19V182.642H881.048C880.945 182.828 880.798 183.04 880.605 183.278C880.415 183.517 880.154 183.725 879.82 183.903C879.487 184.081 879.055 184.17 878.525 184.17ZM878.9 182.722C879.389 182.722 879.801 182.593 880.139 182.335C880.48 182.074 880.737 181.712 880.911 181.25C881.089 180.788 881.178 180.25 881.178 179.636C881.178 179.03 881.091 178.5 880.917 178.045C880.743 177.591 880.487 177.237 880.15 176.983C879.813 176.729 879.396 176.602 878.9 176.602C878.389 176.602 877.962 176.735 877.622 177C877.281 177.265 877.023 177.627 876.849 178.085C876.678 178.544 876.593 179.061 876.593 179.636C876.593 180.22 876.68 180.744 876.855 181.21C877.029 181.676 877.286 182.045 877.627 182.318C877.972 182.587 878.396 182.722 878.9 182.722Z" fill="#1E1E1E"/>
</g>
<g id="Native Vulkan GPU">
<rect id="Shape_5" x="1058" y="450" width="224" height="128" rx="6" fill="white" stroke="#757575" stroke-width="4" stroke-linecap="round"/>
<path id="Text_5" d="M1110.12 508.364V520H1108.5L1102.59 511.466H1102.48V520H1100.73V508.364H1102.35L1108.27 516.909H1108.38V508.364H1110.12ZM1114.91 520.193C1114.35 520.193 1113.85 520.091 1113.41 519.886C1112.96 519.678 1112.6 519.377 1112.34 518.983C1112.09 518.589 1111.96 518.106 1111.96 517.534C1111.96 517.042 1112.05 516.636 1112.24 516.318C1112.43 516 1112.69 515.748 1113.01 515.562C1113.33 515.377 1113.69 515.237 1114.09 515.142C1114.49 515.047 1114.89 514.975 1115.3 514.926C1115.83 514.866 1116.25 514.816 1116.58 514.778C1116.9 514.737 1117.14 514.67 1117.29 514.58C1117.43 514.489 1117.51 514.341 1117.51 514.136V514.097C1117.51 513.6 1117.37 513.216 1117.09 512.943C1116.81 512.67 1116.4 512.534 1115.85 512.534C1115.28 512.534 1114.83 512.661 1114.5 512.915C1114.17 513.165 1113.95 513.443 1113.82 513.75L1112.22 513.386C1112.41 512.856 1112.69 512.428 1113.05 512.102C1113.42 511.773 1113.84 511.534 1114.32 511.386C1114.8 511.235 1115.3 511.159 1115.83 511.159C1116.17 511.159 1116.54 511.201 1116.93 511.284C1117.33 511.364 1117.7 511.511 1118.04 511.727C1118.38 511.943 1118.66 512.252 1118.88 512.653C1119.1 513.051 1119.21 513.568 1119.21 514.205V520H1117.55V518.807H1117.49C1117.38 519.027 1117.21 519.242 1116.99 519.455C1116.77 519.667 1116.49 519.843 1116.14 519.983C1115.8 520.123 1115.39 520.193 1114.91 520.193ZM1115.28 518.83C1115.75 518.83 1116.15 518.737 1116.48 518.551C1116.82 518.366 1117.07 518.123 1117.25 517.824C1117.42 517.521 1117.51 517.197 1117.51 516.852V515.727C1117.45 515.788 1117.34 515.845 1117.16 515.898C1116.99 515.947 1116.8 515.991 1116.58 516.028C1116.36 516.062 1116.14 516.095 1115.93 516.125C1115.73 516.152 1115.55 516.174 1115.41 516.193C1115.08 516.235 1114.78 516.305 1114.51 516.403C1114.24 516.502 1114.02 516.644 1113.86 516.83C1113.7 517.011 1113.62 517.254 1113.62 517.557C1113.62 517.977 1113.78 518.295 1114.09 518.511C1114.4 518.723 1114.79 518.83 1115.28 518.83ZM1125.37 511.273V512.636H1120.61V511.273H1125.37ZM1121.88 509.182H1123.58V517.438C1123.58 517.767 1123.63 518.015 1123.73 518.182C1123.83 518.345 1123.96 518.456 1124.11 518.517C1124.27 518.574 1124.44 518.602 1124.63 518.602C1124.77 518.602 1124.88 518.593 1124.99 518.574C1125.09 518.555 1125.17 518.54 1125.23 518.528L1125.53 519.932C1125.43 519.97 1125.29 520.008 1125.11 520.045C1124.93 520.087 1124.7 520.11 1124.43 520.114C1123.98 520.121 1123.57 520.042 1123.18 519.875C1122.79 519.708 1122.48 519.451 1122.24 519.102C1122 518.754 1121.88 518.316 1121.88 517.79V509.182ZM1127.08 520V511.273H1128.78V520H1127.08ZM1127.93 509.926C1127.64 509.926 1127.39 509.828 1127.17 509.631C1126.96 509.43 1126.86 509.191 1126.86 508.915C1126.86 508.634 1126.96 508.396 1127.17 508.199C1127.39 507.998 1127.64 507.898 1127.93 507.898C1128.23 507.898 1128.48 507.998 1128.69 508.199C1128.9 508.396 1129.01 508.634 1129.01 508.915C1129.01 509.191 1128.9 509.43 1128.69 509.631C1128.48 509.828 1128.23 509.926 1127.93 509.926ZM1138.35 511.273L1135.19 520H1133.37L1130.2 511.273H1132.02L1134.23 517.989H1134.32L1136.53 511.273H1138.35ZM1143.24 520.176C1142.38 520.176 1141.64 519.992 1141.01 519.625C1140.4 519.254 1139.92 518.733 1139.58 518.062C1139.25 517.388 1139.08 516.598 1139.08 515.693C1139.08 514.799 1139.25 514.011 1139.58 513.33C1139.92 512.648 1140.39 512.116 1140.99 511.733C1141.6 511.35 1142.31 511.159 1143.12 511.159C1143.61 511.159 1144.09 511.241 1144.55 511.403C1145.01 511.566 1145.43 511.822 1145.79 512.17C1146.16 512.519 1146.45 512.972 1146.66 513.528C1146.87 514.081 1146.98 514.754 1146.98 515.545V516.148H1140.04V514.875H1145.32C1145.32 514.428 1145.22 514.032 1145.04 513.688C1144.86 513.339 1144.61 513.064 1144.28 512.864C1143.95 512.663 1143.57 512.562 1143.13 512.562C1142.65 512.562 1142.23 512.68 1141.88 512.915C1141.53 513.146 1141.25 513.449 1141.06 513.824C1140.87 514.195 1140.78 514.598 1140.78 515.034V516.028C1140.78 516.612 1140.88 517.108 1141.08 517.517C1141.29 517.926 1141.58 518.239 1141.95 518.455C1142.32 518.667 1142.76 518.773 1143.25 518.773C1143.58 518.773 1143.87 518.727 1144.13 518.636C1144.4 518.542 1144.63 518.402 1144.82 518.216C1145.01 518.03 1145.16 517.801 1145.26 517.528L1146.87 517.818C1146.74 518.292 1146.51 518.706 1146.18 519.062C1145.85 519.415 1145.43 519.689 1144.93 519.886C1144.44 520.08 1143.87 520.176 1143.24 520.176ZM1153.9 508.364L1157.14 517.841H1157.27L1160.51 508.364H1162.41L1158.22 520H1156.19L1152 508.364H1153.9ZM1169.3 516.381V511.273H1171.01V520H1169.34V518.489H1169.25C1169.05 518.955 1168.72 519.343 1168.28 519.653C1167.84 519.96 1167.29 520.114 1166.64 520.114C1166.08 520.114 1165.58 519.991 1165.15 519.744C1164.72 519.494 1164.38 519.125 1164.14 518.636C1163.9 518.148 1163.77 517.544 1163.77 516.824V511.273H1165.47V516.619C1165.47 517.214 1165.64 517.687 1165.97 518.04C1166.3 518.392 1166.73 518.568 1167.25 518.568C1167.57 518.568 1167.89 518.489 1168.2 518.33C1168.52 518.17 1168.78 517.93 1168.99 517.608C1169.2 517.286 1169.31 516.877 1169.3 516.381ZM1174.81 508.364V520H1173.11V508.364H1174.81ZM1178.49 517.04L1178.47 514.966H1178.77L1182.25 511.273H1184.28L1180.31 515.477H1180.05L1178.49 517.04ZM1176.92 520V508.364H1178.62V520H1176.92ZM1182.43 520L1179.31 515.852L1180.48 514.665L1184.52 520H1182.43ZM1188.19 520.193C1187.64 520.193 1187.14 520.091 1186.69 519.886C1186.25 519.678 1185.89 519.377 1185.63 518.983C1185.37 518.589 1185.24 518.106 1185.24 517.534C1185.24 517.042 1185.34 516.636 1185.53 516.318C1185.72 516 1185.97 515.748 1186.3 515.562C1186.62 515.377 1186.98 515.237 1187.37 515.142C1187.77 515.047 1188.18 514.975 1188.59 514.926C1189.11 514.866 1189.54 514.816 1189.86 514.778C1190.19 514.737 1190.43 514.67 1190.57 514.58C1190.72 514.489 1190.8 514.341 1190.8 514.136V514.097C1190.8 513.6 1190.66 513.216 1190.37 512.943C1190.1 512.67 1189.69 512.534 1189.14 512.534C1188.56 512.534 1188.11 512.661 1187.78 512.915C1187.46 513.165 1187.23 513.443 1187.11 513.75L1185.51 513.386C1185.7 512.856 1185.98 512.428 1186.34 512.102C1186.71 511.773 1187.13 511.534 1187.61 511.386C1188.08 511.235 1188.59 511.159 1189.11 511.159C1189.46 511.159 1189.83 511.201 1190.22 511.284C1190.62 511.364 1190.98 511.511 1191.32 511.727C1191.67 511.943 1191.95 512.252 1192.17 512.653C1192.39 513.051 1192.5 513.568 1192.5 514.205V520H1190.84V518.807H1190.77C1190.66 519.027 1190.5 519.242 1190.28 519.455C1190.06 519.667 1189.78 519.843 1189.43 519.983C1189.09 520.123 1188.67 520.193 1188.19 520.193ZM1188.56 518.83C1189.03 518.83 1189.43 518.737 1189.77 518.551C1190.1 518.366 1190.36 518.123 1190.53 517.824C1190.71 517.521 1190.8 517.197 1190.8 516.852V515.727C1190.74 515.788 1190.62 515.845 1190.45 515.898C1190.28 515.947 1190.08 515.991 1189.86 516.028C1189.64 516.062 1189.43 516.095 1189.22 516.125C1189.01 516.152 1188.84 516.174 1188.7 516.193C1188.37 516.235 1188.07 516.305 1187.8 516.403C1187.53 516.502 1187.31 516.644 1187.15 516.83C1186.99 517.011 1186.91 517.254 1186.91 517.557C1186.91 517.977 1187.06 518.295 1187.37 518.511C1187.69 518.723 1188.08 518.83 1188.56 518.83ZM1196.29 514.818V520H1194.59V511.273H1196.22V512.693H1196.33C1196.53 512.231 1196.84 511.86 1197.27 511.58C1197.7 511.299 1198.24 511.159 1198.9 511.159C1199.49 511.159 1200.01 511.284 1200.46 511.534C1200.91 511.78 1201.26 512.148 1201.5 512.636C1201.75 513.125 1201.87 513.729 1201.87 514.449V520H1200.17V514.653C1200.17 514.021 1200.01 513.527 1199.68 513.17C1199.35 512.811 1198.9 512.631 1198.32 512.631C1197.93 512.631 1197.58 512.716 1197.27 512.886C1196.97 513.057 1196.72 513.307 1196.55 513.636C1196.37 513.962 1196.29 514.356 1196.29 514.818ZM1216.04 512.04C1215.93 511.695 1215.79 511.386 1215.6 511.114C1215.42 510.837 1215.2 510.602 1214.95 510.409C1214.69 510.212 1214.4 510.062 1214.08 509.96C1213.75 509.858 1213.4 509.807 1213.01 509.807C1212.36 509.807 1211.77 509.975 1211.24 510.312C1210.72 510.65 1210.3 511.144 1209.99 511.795C1209.69 512.443 1209.54 513.237 1209.54 514.176C1209.54 515.119 1209.69 515.917 1210 516.568C1210.3 517.22 1210.72 517.714 1211.26 518.051C1211.79 518.388 1212.4 518.557 1213.08 518.557C1213.72 518.557 1214.27 518.428 1214.74 518.17C1215.21 517.913 1215.57 517.549 1215.83 517.08C1216.09 516.606 1216.22 516.049 1216.22 515.409L1216.68 515.494H1213.35V514.045H1217.92V515.369C1217.92 516.347 1217.72 517.195 1217.3 517.915C1216.89 518.631 1216.31 519.184 1215.58 519.574C1214.86 519.964 1214.02 520.159 1213.08 520.159C1212.03 520.159 1211.11 519.917 1210.31 519.432C1209.52 518.947 1208.9 518.259 1208.46 517.369C1208.01 516.475 1207.79 515.415 1207.79 514.188C1207.79 513.259 1207.92 512.426 1208.18 511.688C1208.44 510.949 1208.8 510.322 1209.26 509.807C1209.73 509.288 1210.29 508.892 1210.92 508.619C1211.55 508.343 1212.25 508.205 1213 508.205C1213.63 508.205 1214.22 508.297 1214.76 508.483C1215.3 508.669 1215.79 508.932 1216.21 509.273C1216.64 509.614 1217 510.019 1217.28 510.489C1217.56 510.955 1217.75 511.472 1217.84 512.04H1216.04ZM1219.98 520V508.364H1224.12C1225.03 508.364 1225.78 508.528 1226.37 508.858C1226.97 509.187 1227.41 509.638 1227.71 510.21C1228 510.778 1228.15 511.419 1228.15 512.131C1228.15 512.847 1228 513.491 1227.7 514.062C1227.41 514.631 1226.96 515.081 1226.36 515.415C1225.77 515.744 1225.02 515.909 1224.12 515.909H1221.27V514.42H1223.96C1224.53 514.42 1225 514.322 1225.35 514.125C1225.71 513.924 1225.97 513.652 1226.14 513.307C1226.3 512.962 1226.39 512.57 1226.39 512.131C1226.39 511.691 1226.3 511.301 1226.14 510.96C1225.97 510.619 1225.71 510.352 1225.35 510.159C1224.99 509.966 1224.52 509.869 1223.94 509.869H1221.73V520H1219.98ZM1237.52 508.364H1239.28V516.017C1239.28 516.831 1239.09 517.553 1238.7 518.182C1238.32 518.807 1237.78 519.299 1237.09 519.659C1236.4 520.015 1235.59 520.193 1234.65 520.193C1233.73 520.193 1232.92 520.015 1232.22 519.659C1231.53 519.299 1230.99 518.807 1230.61 518.182C1230.23 517.553 1230.03 516.831 1230.03 516.017V508.364H1231.79V515.875C1231.79 516.402 1231.91 516.869 1232.14 517.278C1232.37 517.688 1232.7 518.009 1233.13 518.244C1233.56 518.475 1234.07 518.591 1234.65 518.591C1235.24 518.591 1235.75 518.475 1236.18 518.244C1236.61 518.009 1236.94 517.688 1237.17 517.278C1237.4 516.869 1237.52 516.402 1237.52 515.875V508.364Z" fill="#1E1E1E"/>
</g>
<g id="Dawn native">
<rect id="Shape_6" x="1058" y="2" width="224" height="128" rx="6" fill="white" stroke="#757575" stroke-width="4" stroke-linecap="round"/>
<path id="Text_6" d="M1128.71 72H1124.95V60.3636H1128.83C1129.97 60.3636 1130.95 60.5966 1131.77 61.0625C1132.59 61.5246 1133.22 62.1894 1133.65 63.0568C1134.09 63.9205 1134.31 64.9564 1134.31 66.1648C1134.31 67.3769 1134.09 68.4186 1133.65 69.2898C1133.21 70.161 1132.57 70.8314 1131.74 71.3011C1130.9 71.767 1129.9 72 1128.71 72ZM1126.7 70.4659H1128.62C1129.5 70.4659 1130.24 70.2992 1130.83 69.9659C1131.42 69.6288 1131.85 69.142 1132.15 68.5057C1132.44 67.8655 1132.58 67.0852 1132.58 66.1648C1132.58 65.2519 1132.44 64.4773 1132.15 63.8409C1131.86 63.2045 1131.43 62.7216 1130.86 62.392C1130.28 62.0625 1129.57 61.8977 1128.73 61.8977H1126.7V70.4659ZM1138.72 72.1932C1138.17 72.1932 1137.67 72.0909 1137.22 71.8864C1136.77 71.678 1136.42 71.3769 1136.16 70.983C1135.9 70.589 1135.77 70.1061 1135.77 69.5341C1135.77 69.0417 1135.87 68.6364 1136.06 68.3182C1136.25 68 1136.5 67.7481 1136.82 67.5625C1137.15 67.3769 1137.51 67.2367 1137.9 67.142C1138.3 67.0473 1138.71 66.9754 1139.12 66.9261C1139.64 66.8655 1140.07 66.8163 1140.39 66.7784C1140.72 66.7367 1140.95 66.6705 1141.1 66.5795C1141.25 66.4886 1141.32 66.3409 1141.32 66.1364V66.0966C1141.32 65.6004 1141.18 65.2159 1140.9 64.9432C1140.63 64.6705 1140.21 64.5341 1139.66 64.5341C1139.09 64.5341 1138.64 64.661 1138.31 64.9148C1137.99 65.1648 1137.76 65.4432 1137.64 65.75L1136.04 65.3864C1136.23 64.8561 1136.51 64.428 1136.87 64.1023C1137.24 63.7727 1137.66 63.5341 1138.14 63.3864C1138.61 63.2348 1139.12 63.1591 1139.64 63.1591C1139.99 63.1591 1140.36 63.2008 1140.75 63.2841C1141.14 63.3636 1141.51 63.5114 1141.85 63.7273C1142.2 63.9432 1142.48 64.2519 1142.7 64.6534C1142.92 65.0511 1143.03 65.5682 1143.03 66.2045V72H1141.37V70.8068H1141.3C1141.19 71.0265 1141.03 71.2424 1140.81 71.4545C1140.59 71.6667 1140.31 71.8428 1139.96 71.983C1139.62 72.1231 1139.2 72.1932 1138.72 72.1932ZM1139.09 70.8295C1139.56 70.8295 1139.96 70.7367 1140.3 70.5511C1140.63 70.3655 1140.89 70.1231 1141.06 69.8239C1141.24 69.5208 1141.33 69.197 1141.33 68.8523V67.7273C1141.27 67.7879 1141.15 67.8447 1140.98 67.8977C1140.81 67.947 1140.61 67.9905 1140.39 68.0284C1140.17 68.0625 1139.96 68.0947 1139.75 68.125C1139.54 68.1515 1139.37 68.1742 1139.23 68.1932C1138.9 68.2348 1138.6 68.3049 1138.32 68.4034C1138.06 68.5019 1137.84 68.6439 1137.68 68.8295C1137.52 69.0114 1137.44 69.2538 1137.44 69.5568C1137.44 69.9773 1137.59 70.2955 1137.9 70.5114C1138.21 70.7235 1138.61 70.8295 1139.09 70.8295ZM1147.01 72L1144.44 63.2727H1146.19L1147.91 69.6818H1147.99L1149.71 63.2727H1151.46L1153.17 69.6534H1153.25L1154.95 63.2727H1156.71L1154.14 72H1152.41L1150.64 65.6989H1150.51L1148.73 72H1147.01ZM1159.84 66.8182V72H1158.14V63.2727H1159.77V64.6932H1159.88C1160.08 64.2311 1160.4 63.8598 1160.82 63.5795C1161.26 63.2992 1161.8 63.1591 1162.45 63.1591C1163.05 63.1591 1163.57 63.2841 1164.02 63.5341C1164.46 63.7803 1164.81 64.1477 1165.06 64.6364C1165.3 65.125 1165.43 65.7292 1165.43 66.4489V72H1163.73V66.6534C1163.73 66.0208 1163.56 65.5265 1163.23 65.1705C1162.9 64.8106 1162.45 64.6307 1161.88 64.6307C1161.48 64.6307 1161.13 64.7159 1160.82 64.8864C1160.52 65.0568 1160.28 65.3068 1160.1 65.6364C1159.93 65.9621 1159.84 66.3561 1159.84 66.8182ZM1173.29 66.8182V72H1171.59V63.2727H1173.22V64.6932H1173.33C1173.53 64.2311 1173.84 63.8598 1174.27 63.5795C1174.7 63.2992 1175.24 63.1591 1175.9 63.1591C1176.49 63.1591 1177.02 63.2841 1177.46 63.5341C1177.91 63.7803 1178.26 64.1477 1178.5 64.6364C1178.75 65.125 1178.87 65.7292 1178.87 66.4489V72H1177.17V66.6534C1177.17 66.0208 1177.01 65.5265 1176.68 65.1705C1176.35 64.8106 1175.9 64.6307 1175.32 64.6307C1174.93 64.6307 1174.58 64.7159 1174.27 64.8864C1173.97 65.0568 1173.73 65.3068 1173.55 65.6364C1173.37 65.9621 1173.29 66.3561 1173.29 66.8182ZM1183.51 72.1932C1182.96 72.1932 1182.46 72.0909 1182.01 71.8864C1181.57 71.678 1181.21 71.3769 1180.95 70.983C1180.69 70.589 1180.56 70.1061 1180.56 69.5341C1180.56 69.0417 1180.66 68.6364 1180.85 68.3182C1181.04 68 1181.29 67.7481 1181.62 67.5625C1181.94 67.3769 1182.3 67.2367 1182.7 67.142C1183.09 67.0473 1183.5 66.9754 1183.91 66.9261C1184.43 66.8655 1184.86 66.8163 1185.18 66.7784C1185.51 66.7367 1185.75 66.6705 1185.89 66.5795C1186.04 66.4886 1186.12 66.3409 1186.12 66.1364V66.0966C1186.12 65.6004 1185.98 65.2159 1185.7 64.9432C1185.42 64.6705 1185.01 64.5341 1184.46 64.5341C1183.88 64.5341 1183.43 64.661 1183.1 64.9148C1182.78 65.1648 1182.55 65.4432 1182.43 65.75L1180.83 65.3864C1181.02 64.8561 1181.3 64.428 1181.66 64.1023C1182.03 63.7727 1182.45 63.5341 1182.93 63.3864C1183.41 63.2348 1183.91 63.1591 1184.43 63.1591C1184.78 63.1591 1185.15 63.2008 1185.54 63.2841C1185.94 63.3636 1186.3 63.5114 1186.64 63.7273C1186.99 63.9432 1187.27 64.2519 1187.49 64.6534C1187.71 65.0511 1187.82 65.5682 1187.82 66.2045V72H1186.16V70.8068H1186.09C1185.98 71.0265 1185.82 71.2424 1185.6 71.4545C1185.38 71.6667 1185.1 71.8428 1184.75 71.983C1184.41 72.1231 1183.99 72.1932 1183.51 72.1932ZM1183.88 70.8295C1184.35 70.8295 1184.75 70.7367 1185.09 70.5511C1185.42 70.3655 1185.68 70.1231 1185.85 69.8239C1186.03 69.5208 1186.12 69.197 1186.12 68.8523V67.7273C1186.06 67.7879 1185.94 67.8447 1185.77 67.8977C1185.6 67.947 1185.4 67.9905 1185.18 68.0284C1184.96 68.0625 1184.75 68.0947 1184.54 68.125C1184.33 68.1515 1184.16 68.1742 1184.02 68.1932C1183.69 68.2348 1183.39 68.3049 1183.12 68.4034C1182.85 68.5019 1182.63 68.6439 1182.47 68.8295C1182.31 69.0114 1182.23 69.2538 1182.23 69.5568C1182.23 69.9773 1182.38 70.2955 1182.7 70.5114C1183.01 70.7235 1183.4 70.8295 1183.88 70.8295ZM1193.98 63.2727V64.6364H1189.21V63.2727H1193.98ZM1190.49 61.1818H1192.19V69.4375C1192.19 69.767 1192.24 70.0152 1192.34 70.1818C1192.44 70.3447 1192.56 70.4564 1192.72 70.517C1192.88 70.5739 1193.05 70.6023 1193.24 70.6023C1193.37 70.6023 1193.49 70.5928 1193.59 70.5739C1193.7 70.5549 1193.78 70.5398 1193.83 70.5284L1194.14 71.9318C1194.04 71.9697 1193.9 72.0076 1193.72 72.0455C1193.54 72.0871 1193.31 72.1098 1193.04 72.1136C1192.59 72.1212 1192.17 72.0417 1191.79 71.875C1191.4 71.7083 1191.09 71.4508 1190.85 71.1023C1190.61 70.7538 1190.49 70.3163 1190.49 69.7898V61.1818ZM1195.68 72V63.2727H1197.38V72H1195.68ZM1196.54 61.9261C1196.25 61.9261 1195.99 61.8277 1195.78 61.6307C1195.57 61.4299 1195.47 61.1913 1195.47 60.9148C1195.47 60.6345 1195.57 60.3958 1195.78 60.1989C1195.99 59.9981 1196.25 59.8977 1196.54 59.8977C1196.84 59.8977 1197.09 59.9981 1197.3 60.1989C1197.51 60.3958 1197.62 60.6345 1197.62 60.9148C1197.62 61.1913 1197.51 61.4299 1197.3 61.6307C1197.09 61.8277 1196.84 61.9261 1196.54 61.9261ZM1206.96 63.2727L1203.79 72H1201.98L1198.81 63.2727H1200.63L1202.84 69.9886H1202.93L1205.13 63.2727H1206.96ZM1211.84 72.1761C1210.98 72.1761 1210.24 71.9924 1209.62 71.625C1209 71.2538 1208.53 70.733 1208.19 70.0625C1207.86 69.3883 1207.69 68.5985 1207.69 67.6932C1207.69 66.7992 1207.86 66.0114 1208.19 65.3295C1208.53 64.6477 1209 64.1155 1209.6 63.733C1210.21 63.3504 1210.91 63.1591 1211.72 63.1591C1212.22 63.1591 1212.69 63.2405 1213.16 63.4034C1213.62 63.5663 1214.03 63.822 1214.4 64.1705C1214.77 64.5189 1215.06 64.9716 1215.27 65.5284C1215.48 66.0814 1215.59 66.7538 1215.59 67.5455V68.1477H1208.65V66.875H1213.92C1213.92 66.428 1213.83 66.0322 1213.65 65.6875C1213.47 65.339 1213.21 65.0644 1212.88 64.8636C1212.56 64.6629 1212.18 64.5625 1211.74 64.5625C1211.26 64.5625 1210.84 64.6799 1210.49 64.9148C1210.13 65.1458 1209.86 65.4489 1209.67 65.8239C1209.48 66.1951 1209.38 66.5985 1209.38 67.0341V68.0284C1209.38 68.6117 1209.49 69.108 1209.69 69.517C1209.9 69.9261 1210.19 70.2386 1210.56 70.4545C1210.93 70.6667 1211.36 70.7727 1211.86 70.7727C1212.18 70.7727 1212.48 70.7273 1212.74 70.6364C1213.01 70.5417 1213.24 70.4015 1213.43 70.2159C1213.62 70.0303 1213.77 69.8011 1213.87 69.5284L1215.48 69.8182C1215.35 70.2917 1215.12 70.7064 1214.79 71.0625C1214.46 71.4148 1214.04 71.6894 1213.54 71.8864C1213.05 72.0795 1212.48 72.1761 1211.84 72.1761Z" fill="#1E1E1E"/>
</g>
<g id="Emscripten WASM">
<rect id="Shape_7" x="1058" y="226" width="224" height="128" rx="6" fill="white" stroke="#757575" stroke-width="4" stroke-linecap="round"/>
<path id="Text_7" d="M1102.07 296V284.364H1109.36V285.875H1103.82V289.42H1108.98V290.926H1103.82V294.489H1109.43V296H1102.07ZM1111.39 296V287.273H1113.02V288.693H1113.13C1113.31 288.212 1113.61 287.837 1114.02 287.568C1114.44 287.295 1114.93 287.159 1115.51 287.159C1116.09 287.159 1116.58 287.295 1116.97 287.568C1117.37 287.841 1117.66 288.216 1117.85 288.693H1117.94C1118.15 288.227 1118.48 287.856 1118.94 287.58C1119.39 287.299 1119.94 287.159 1120.56 287.159C1121.36 287.159 1122 287.407 1122.5 287.903C1123.01 288.4 1123.26 289.148 1123.26 290.148V296H1121.56V290.307C1121.56 289.716 1121.4 289.288 1121.08 289.023C1120.75 288.758 1120.37 288.625 1119.92 288.625C1119.37 288.625 1118.94 288.795 1118.63 289.136C1118.33 289.473 1118.17 289.907 1118.17 290.438V296H1116.48V290.199C1116.48 289.725 1116.33 289.345 1116.04 289.057C1115.74 288.769 1115.36 288.625 1114.88 288.625C1114.56 288.625 1114.26 288.71 1113.99 288.881C1113.72 289.047 1113.5 289.28 1113.34 289.58C1113.17 289.879 1113.09 290.225 1113.09 290.619V296H1111.39ZM1131.9 289.403L1130.36 289.676C1130.29 289.479 1130.19 289.292 1130.05 289.114C1129.91 288.936 1129.73 288.79 1129.49 288.676C1129.26 288.562 1128.97 288.506 1128.61 288.506C1128.13 288.506 1127.73 288.614 1127.41 288.83C1127.09 289.042 1126.93 289.316 1126.93 289.653C1126.93 289.945 1127.03 290.18 1127.25 290.358C1127.47 290.536 1127.81 290.682 1128.3 290.795L1129.68 291.114C1130.48 291.299 1131.08 291.585 1131.48 291.972C1131.87 292.358 1132.07 292.86 1132.07 293.477C1132.07 294 1131.92 294.466 1131.61 294.875C1131.31 295.28 1130.9 295.598 1130.36 295.83C1129.82 296.061 1129.2 296.176 1128.5 296.176C1127.52 296.176 1126.73 295.968 1126.11 295.551C1125.49 295.131 1125.11 294.534 1124.97 293.761L1126.61 293.511C1126.72 293.939 1126.93 294.263 1127.24 294.483C1127.56 294.699 1127.98 294.807 1128.49 294.807C1129.05 294.807 1129.49 294.691 1129.82 294.46C1130.16 294.225 1130.32 293.939 1130.32 293.602C1130.32 293.33 1130.22 293.1 1130.02 292.915C1129.82 292.729 1129.51 292.589 1129.09 292.494L1127.61 292.17C1126.8 291.985 1126.2 291.689 1125.81 291.284C1125.42 290.879 1125.23 290.366 1125.23 289.744C1125.23 289.229 1125.37 288.778 1125.66 288.392C1125.95 288.006 1126.34 287.705 1126.85 287.489C1127.36 287.269 1127.94 287.159 1128.6 287.159C1129.54 287.159 1130.28 287.364 1130.82 287.773C1131.37 288.178 1131.72 288.722 1131.9 289.403ZM1137.44 296.176C1136.59 296.176 1135.86 295.985 1135.25 295.602C1134.65 295.216 1134.18 294.684 1133.86 294.006C1133.53 293.328 1133.37 292.551 1133.37 291.676C1133.37 290.79 1133.53 290.008 1133.87 289.33C1134.2 288.648 1134.67 288.116 1135.28 287.733C1135.88 287.35 1136.6 287.159 1137.42 287.159C1138.08 287.159 1138.67 287.282 1139.19 287.528C1139.71 287.771 1140.13 288.112 1140.45 288.551C1140.77 288.991 1140.96 289.504 1141.02 290.091H1139.37C1139.28 289.682 1139.07 289.33 1138.74 289.034C1138.42 288.739 1137.99 288.591 1137.45 288.591C1136.97 288.591 1136.56 288.716 1136.2 288.966C1135.85 289.212 1135.58 289.564 1135.38 290.023C1135.18 290.477 1135.08 291.015 1135.08 291.636C1135.08 292.273 1135.18 292.822 1135.37 293.284C1135.57 293.746 1135.84 294.104 1136.19 294.358C1136.55 294.612 1136.97 294.739 1137.45 294.739C1137.77 294.739 1138.06 294.68 1138.32 294.562C1138.59 294.441 1138.81 294.269 1138.99 294.045C1139.17 293.822 1139.3 293.553 1139.37 293.239H1141.02C1140.96 293.803 1140.78 294.307 1140.47 294.75C1140.16 295.193 1139.75 295.542 1139.24 295.795C1138.73 296.049 1138.13 296.176 1137.44 296.176ZM1142.66 296V287.273H1144.3V288.659H1144.4C1144.55 288.189 1144.83 287.82 1145.24 287.551C1145.64 287.278 1146.1 287.142 1146.61 287.142C1146.72 287.142 1146.84 287.146 1146.99 287.153C1147.13 287.161 1147.25 287.17 1147.33 287.182V288.807C1147.26 288.788 1147.14 288.767 1146.97 288.744C1146.79 288.718 1146.62 288.705 1146.45 288.705C1146.04 288.705 1145.69 288.79 1145.37 288.96C1145.06 289.127 1144.82 289.36 1144.63 289.659C1144.45 289.955 1144.36 290.292 1144.36 290.67V296H1142.66ZM1148.63 296V287.273H1150.33V296H1148.63ZM1149.48 285.926C1149.19 285.926 1148.94 285.828 1148.72 285.631C1148.52 285.43 1148.41 285.191 1148.41 284.915C1148.41 284.634 1148.52 284.396 1148.72 284.199C1148.94 283.998 1149.19 283.898 1149.48 283.898C1149.78 283.898 1150.03 283.998 1150.24 284.199C1150.45 284.396 1150.56 284.634 1150.56 284.915C1150.56 285.191 1150.45 285.43 1150.24 285.631C1150.03 285.828 1149.78 285.926 1149.48 285.926ZM1152.44 299.273V287.273H1154.09V288.688H1154.24C1154.33 288.506 1154.48 288.295 1154.66 288.057C1154.85 287.818 1155.11 287.61 1155.44 287.432C1155.76 287.25 1156.2 287.159 1156.74 287.159C1157.45 287.159 1158.08 287.337 1158.63 287.693C1159.18 288.049 1159.62 288.562 1159.93 289.233C1160.25 289.903 1160.41 290.71 1160.41 291.653C1160.41 292.597 1160.25 293.405 1159.94 294.08C1159.62 294.75 1159.19 295.267 1158.64 295.631C1158.09 295.991 1157.46 296.17 1156.76 296.17C1156.23 296.17 1155.8 296.081 1155.46 295.903C1155.12 295.725 1154.86 295.517 1154.67 295.278C1154.48 295.04 1154.34 294.828 1154.24 294.642H1154.13V299.273H1152.44ZM1154.1 291.636C1154.1 292.25 1154.19 292.788 1154.37 293.25C1154.55 293.712 1154.8 294.074 1155.14 294.335C1155.48 294.593 1155.89 294.722 1156.38 294.722C1156.89 294.722 1157.31 294.587 1157.65 294.318C1157.99 294.045 1158.25 293.676 1158.42 293.21C1158.6 292.744 1158.69 292.22 1158.69 291.636C1158.69 291.061 1158.6 290.544 1158.43 290.085C1158.26 289.627 1158 289.265 1157.66 289C1157.32 288.735 1156.89 288.602 1156.38 288.602C1155.89 288.602 1155.47 288.729 1155.13 288.983C1154.79 289.237 1154.54 289.591 1154.36 290.045C1154.19 290.5 1154.1 291.03 1154.1 291.636ZM1166.21 287.273V288.636H1161.44V287.273H1166.21ZM1162.72 285.182H1164.42V293.438C1164.42 293.767 1164.47 294.015 1164.57 294.182C1164.66 294.345 1164.79 294.456 1164.95 294.517C1165.11 294.574 1165.28 294.602 1165.46 294.602C1165.6 294.602 1165.72 294.593 1165.82 294.574C1165.92 294.555 1166 294.54 1166.06 294.528L1166.37 295.932C1166.27 295.97 1166.13 296.008 1165.95 296.045C1165.76 296.087 1165.54 296.11 1165.26 296.114C1164.82 296.121 1164.4 296.042 1164.01 295.875C1163.63 295.708 1163.32 295.451 1163.08 295.102C1162.84 294.754 1162.72 294.316 1162.72 293.79V285.182ZM1171.58 296.176C1170.72 296.176 1169.98 295.992 1169.36 295.625C1168.74 295.254 1168.26 294.733 1167.93 294.062C1167.59 293.388 1167.43 292.598 1167.43 291.693C1167.43 290.799 1167.59 290.011 1167.93 289.33C1168.26 288.648 1168.73 288.116 1169.33 287.733C1169.94 287.35 1170.65 287.159 1171.46 287.159C1171.95 287.159 1172.43 287.241 1172.89 287.403C1173.35 287.566 1173.77 287.822 1174.14 288.17C1174.5 288.519 1174.79 288.972 1175.01 289.528C1175.22 290.081 1175.32 290.754 1175.32 291.545V292.148H1168.39V290.875H1173.66C1173.66 290.428 1173.57 290.032 1173.39 289.688C1173.2 289.339 1172.95 289.064 1172.62 288.864C1172.29 288.663 1171.91 288.562 1171.47 288.562C1170.99 288.562 1170.58 288.68 1170.22 288.915C1169.87 289.146 1169.6 289.449 1169.4 289.824C1169.21 290.195 1169.12 290.598 1169.12 291.034V292.028C1169.12 292.612 1169.22 293.108 1169.43 293.517C1169.63 293.926 1169.92 294.239 1170.29 294.455C1170.67 294.667 1171.1 294.773 1171.6 294.773C1171.92 294.773 1172.21 294.727 1172.48 294.636C1172.74 294.542 1172.97 294.402 1173.16 294.216C1173.36 294.03 1173.51 293.801 1173.61 293.528L1175.22 293.818C1175.09 294.292 1174.86 294.706 1174.52 295.062C1174.19 295.415 1173.78 295.689 1173.28 295.886C1172.78 296.08 1172.22 296.176 1171.58 296.176ZM1178.73 290.818V296H1177.03V287.273H1178.66V288.693H1178.77C1178.97 288.231 1179.29 287.86 1179.71 287.58C1180.15 287.299 1180.69 287.159 1181.34 287.159C1181.94 287.159 1182.46 287.284 1182.91 287.534C1183.35 287.78 1183.7 288.148 1183.95 288.636C1184.19 289.125 1184.32 289.729 1184.32 290.449V296H1182.62V290.653C1182.62 290.021 1182.45 289.527 1182.12 289.17C1181.79 288.811 1181.34 288.631 1180.77 288.631C1180.37 288.631 1180.02 288.716 1179.71 288.886C1179.41 289.057 1179.17 289.307 1178.99 289.636C1178.82 289.962 1178.73 290.356 1178.73 290.818ZM1192.89 296L1189.66 284.364H1191.51L1193.78 293.375H1193.89L1196.24 284.364H1198.07L1200.43 293.381H1200.54L1202.8 284.364H1204.65L1201.42 296H1199.65L1197.2 287.284H1197.11L1194.66 296H1192.89ZM1206.06 296H1204.2L1208.38 284.364H1210.41L1214.6 296H1212.74L1209.45 286.477H1209.36L1206.06 296ZM1206.37 291.443H1212.42V292.92H1206.37V291.443ZM1222.36 287.42C1222.3 286.883 1222.05 286.466 1221.61 286.17C1221.17 285.871 1220.62 285.722 1219.95 285.722C1219.47 285.722 1219.06 285.797 1218.71 285.949C1218.36 286.097 1218.09 286.301 1217.9 286.562C1217.71 286.82 1217.61 287.114 1217.61 287.443C1217.61 287.72 1217.68 287.958 1217.81 288.159C1217.94 288.36 1218.11 288.528 1218.32 288.665C1218.54 288.797 1218.77 288.909 1219.02 289C1219.26 289.087 1219.5 289.159 1219.73 289.216L1220.86 289.511C1221.23 289.602 1221.62 289.725 1222.01 289.881C1222.4 290.036 1222.76 290.241 1223.09 290.494C1223.42 290.748 1223.69 291.062 1223.9 291.438C1224.11 291.812 1224.21 292.261 1224.21 292.784C1224.21 293.443 1224.04 294.028 1223.7 294.54C1223.36 295.051 1222.87 295.455 1222.23 295.75C1221.59 296.045 1220.81 296.193 1219.9 296.193C1219.03 296.193 1218.28 296.055 1217.64 295.778C1217.01 295.502 1216.51 295.11 1216.15 294.602C1215.79 294.091 1215.59 293.485 1215.55 292.784H1217.31C1217.35 293.205 1217.48 293.555 1217.72 293.835C1217.96 294.112 1218.27 294.318 1218.65 294.455C1219.03 294.587 1219.44 294.653 1219.89 294.653C1220.39 294.653 1220.83 294.576 1221.22 294.42C1221.61 294.261 1221.91 294.042 1222.14 293.761C1222.36 293.477 1222.47 293.146 1222.47 292.767C1222.47 292.422 1222.37 292.14 1222.18 291.92C1221.98 291.701 1221.72 291.519 1221.39 291.375C1221.06 291.231 1220.68 291.104 1220.27 290.994L1218.89 290.619C1217.96 290.366 1217.22 289.992 1216.68 289.5C1216.13 289.008 1215.86 288.356 1215.86 287.545C1215.86 286.875 1216.05 286.29 1216.41 285.79C1216.77 285.29 1217.27 284.902 1217.89 284.625C1218.51 284.345 1219.21 284.205 1219.99 284.205C1220.78 284.205 1221.47 284.343 1222.07 284.619C1222.68 284.896 1223.16 285.277 1223.51 285.761C1223.85 286.242 1224.04 286.795 1224.05 287.42H1222.36ZM1226.13 284.364H1228.26L1231.97 293.409H1232.1L1235.81 284.364H1237.94V296H1236.27V287.58H1236.16L1232.73 295.983H1231.34L1227.91 287.574H1227.8V296H1226.13V284.364Z" fill="#1E1E1E"/>
</g>
<g id="Browser WebGPU">
<rect id="Shape_8" x="1410" y="226" width="224" height="128" rx="6" fill="white" stroke="#757575" stroke-width="4" stroke-linecap="round"/>
<path id="Text_8" d="M1456.71 296V284.364H1460.97C1461.8 284.364 1462.48 284.5 1463.02 284.773C1463.57 285.042 1463.97 285.407 1464.24 285.869C1464.51 286.328 1464.64 286.845 1464.64 287.42C1464.64 287.905 1464.55 288.314 1464.38 288.648C1464.2 288.977 1463.96 289.242 1463.66 289.443C1463.36 289.64 1463.04 289.784 1462.68 289.875V289.989C1463.07 290.008 1463.45 290.133 1463.81 290.364C1464.18 290.591 1464.49 290.915 1464.73 291.335C1464.98 291.756 1465.1 292.267 1465.1 292.869C1465.1 293.464 1464.96 293.998 1464.68 294.472C1464.4 294.941 1463.97 295.314 1463.39 295.591C1462.81 295.864 1462.07 296 1461.17 296H1456.71ZM1458.47 294.494H1461C1461.84 294.494 1462.44 294.331 1462.81 294.006C1463.17 293.68 1463.35 293.273 1463.35 292.784C1463.35 292.417 1463.26 292.08 1463.08 291.773C1462.89 291.466 1462.62 291.222 1462.28 291.04C1461.94 290.858 1461.53 290.767 1461.06 290.767H1458.47V294.494ZM1458.47 289.398H1460.82C1461.21 289.398 1461.57 289.322 1461.88 289.17C1462.2 289.019 1462.45 288.807 1462.64 288.534C1462.83 288.258 1462.92 287.932 1462.92 287.557C1462.92 287.076 1462.75 286.672 1462.42 286.347C1462.08 286.021 1461.56 285.858 1460.86 285.858H1458.47V289.398ZM1466.87 296V287.273H1468.51V288.659H1468.6C1468.76 288.189 1469.04 287.82 1469.44 287.551C1469.85 287.278 1470.31 287.142 1470.82 287.142C1470.92 287.142 1471.05 287.146 1471.19 287.153C1471.34 287.161 1471.45 287.17 1471.54 287.182V288.807C1471.47 288.788 1471.35 288.767 1471.17 288.744C1471 288.718 1470.83 288.705 1470.65 288.705C1470.25 288.705 1469.89 288.79 1469.58 288.96C1469.27 289.127 1469.02 289.36 1468.84 289.659C1468.66 289.955 1468.57 290.292 1468.57 290.67V296H1466.87ZM1476.2 296.176C1475.38 296.176 1474.66 295.989 1474.05 295.614C1473.44 295.239 1472.97 294.714 1472.63 294.04C1472.3 293.366 1472.13 292.578 1472.13 291.676C1472.13 290.771 1472.3 289.979 1472.63 289.301C1472.97 288.623 1473.44 288.097 1474.05 287.722C1474.66 287.347 1475.38 287.159 1476.2 287.159C1477.01 287.159 1477.73 287.347 1478.34 287.722C1478.95 288.097 1479.42 288.623 1479.76 289.301C1480.1 289.979 1480.26 290.771 1480.26 291.676C1480.26 292.578 1480.1 293.366 1479.76 294.04C1479.42 294.714 1478.95 295.239 1478.34 295.614C1477.73 295.989 1477.01 296.176 1476.2 296.176ZM1476.2 294.75C1476.73 294.75 1477.17 294.61 1477.52 294.33C1477.87 294.049 1478.13 293.676 1478.29 293.21C1478.46 292.744 1478.55 292.231 1478.55 291.67C1478.55 291.114 1478.46 290.602 1478.29 290.136C1478.13 289.667 1477.87 289.29 1477.52 289.006C1477.17 288.722 1476.73 288.58 1476.2 288.58C1475.67 288.58 1475.22 288.722 1474.87 289.006C1474.52 289.29 1474.26 289.667 1474.09 290.136C1473.93 290.602 1473.84 291.114 1473.84 291.67C1473.84 292.231 1473.93 292.744 1474.09 293.21C1474.26 293.676 1474.52 294.049 1474.87 294.33C1475.22 294.61 1475.67 294.75 1476.2 294.75ZM1483.61 296L1481.04 287.273H1482.8L1484.51 293.682H1484.59L1486.31 287.273H1488.07L1489.77 293.653H1489.86L1491.55 287.273H1493.31L1490.75 296H1489.01L1487.24 289.699H1487.11L1485.34 296H1483.61ZM1501.29 289.403L1499.75 289.676C1499.68 289.479 1499.58 289.292 1499.44 289.114C1499.3 288.936 1499.12 288.79 1498.88 288.676C1498.65 288.562 1498.35 288.506 1498 288.506C1497.52 288.506 1497.12 288.614 1496.8 288.83C1496.48 289.042 1496.31 289.316 1496.31 289.653C1496.31 289.945 1496.42 290.18 1496.64 290.358C1496.85 290.536 1497.2 290.682 1497.68 290.795L1499.07 291.114C1499.87 291.299 1500.47 291.585 1500.87 291.972C1501.26 292.358 1501.46 292.86 1501.46 293.477C1501.46 294 1501.3 294.466 1501 294.875C1500.7 295.28 1500.28 295.598 1499.75 295.83C1499.21 296.061 1498.59 296.176 1497.89 296.176C1496.91 296.176 1496.11 295.968 1495.5 295.551C1494.88 295.131 1494.5 294.534 1494.36 293.761L1496 293.511C1496.1 293.939 1496.31 294.263 1496.63 294.483C1496.95 294.699 1497.37 294.807 1497.88 294.807C1498.43 294.807 1498.88 294.691 1499.21 294.46C1499.55 294.225 1499.71 293.939 1499.71 293.602C1499.71 293.33 1499.61 293.1 1499.41 292.915C1499.2 292.729 1498.9 292.589 1498.48 292.494L1497 292.17C1496.19 291.985 1495.59 291.689 1495.19 291.284C1494.81 290.879 1494.62 290.366 1494.62 289.744C1494.62 289.229 1494.76 288.778 1495.05 288.392C1495.34 288.006 1495.73 287.705 1496.24 287.489C1496.75 287.269 1497.33 287.159 1497.98 287.159C1498.93 287.159 1499.67 287.364 1500.21 287.773C1500.75 288.178 1501.11 288.722 1501.29 289.403ZM1506.91 296.176C1506.05 296.176 1505.31 295.992 1504.69 295.625C1504.07 295.254 1503.59 294.733 1503.26 294.062C1502.92 293.388 1502.76 292.598 1502.76 291.693C1502.76 290.799 1502.92 290.011 1503.26 289.33C1503.59 288.648 1504.06 288.116 1504.67 287.733C1505.27 287.35 1505.98 287.159 1506.79 287.159C1507.28 287.159 1507.76 287.241 1508.22 287.403C1508.68 287.566 1509.1 287.822 1509.47 288.17C1509.83 288.519 1510.12 288.972 1510.34 289.528C1510.55 290.081 1510.65 290.754 1510.65 291.545V292.148H1503.72V290.875H1508.99C1508.99 290.428 1508.9 290.032 1508.72 289.688C1508.53 289.339 1508.28 289.064 1507.95 288.864C1507.62 288.663 1507.24 288.562 1506.8 288.562C1506.32 288.562 1505.91 288.68 1505.55 288.915C1505.2 289.146 1504.93 289.449 1504.73 289.824C1504.54 290.195 1504.45 290.598 1504.45 291.034V292.028C1504.45 292.612 1504.55 293.108 1504.76 293.517C1504.96 293.926 1505.25 294.239 1505.63 294.455C1506 294.667 1506.43 294.773 1506.93 294.773C1507.25 294.773 1507.54 294.727 1507.81 294.636C1508.07 294.542 1508.3 294.402 1508.49 294.216C1508.69 294.03 1508.84 293.801 1508.94 293.528L1510.55 293.818C1510.42 294.292 1510.19 294.706 1509.85 295.062C1509.52 295.415 1509.11 295.689 1508.61 295.886C1508.11 296.08 1507.55 296.176 1506.91 296.176ZM1512.36 296V287.273H1514V288.659H1514.1C1514.25 288.189 1514.54 287.82 1514.94 287.551C1515.34 287.278 1515.8 287.142 1516.31 287.142C1516.42 287.142 1516.54 287.146 1516.69 287.153C1516.83 287.161 1516.95 287.17 1517.03 287.182V288.807C1516.97 288.788 1516.84 288.767 1516.67 288.744C1516.5 288.718 1516.32 288.705 1516.15 288.705C1515.75 288.705 1515.39 288.79 1515.07 288.96C1514.76 289.127 1514.52 289.36 1514.33 289.659C1514.15 289.955 1514.06 290.292 1514.06 290.67V296H1512.36ZM1524.8 296L1521.57 284.364H1523.42L1525.69 293.375H1525.79L1528.15 284.364H1529.98L1532.34 293.381H1532.45L1534.71 284.364H1536.56L1533.33 296H1531.56L1529.11 287.284H1529.02L1526.57 296H1524.8ZM1540.75 296.176C1539.89 296.176 1539.15 295.992 1538.53 295.625C1537.91 295.254 1537.44 294.733 1537.1 294.062C1536.77 293.388 1536.6 292.598 1536.6 291.693C1536.6 290.799 1536.77 290.011 1537.1 289.33C1537.44 288.648 1537.91 288.116 1538.51 287.733C1539.11 287.35 1539.82 287.159 1540.63 287.159C1541.13 287.159 1541.6 287.241 1542.06 287.403C1542.53 287.566 1542.94 287.822 1543.31 288.17C1543.68 288.519 1543.97 288.972 1544.18 289.528C1544.39 290.081 1544.5 290.754 1544.5 291.545V292.148H1537.56V290.875H1542.83C1542.83 290.428 1542.74 290.032 1542.56 289.688C1542.38 289.339 1542.12 289.064 1541.79 288.864C1541.47 288.663 1541.08 288.562 1540.64 288.562C1540.17 288.562 1539.75 288.68 1539.39 288.915C1539.04 289.146 1538.77 289.449 1538.58 289.824C1538.39 290.195 1538.29 290.598 1538.29 291.034V292.028C1538.29 292.612 1538.39 293.108 1538.6 293.517C1538.81 293.926 1539.1 294.239 1539.47 294.455C1539.84 294.667 1540.27 294.773 1540.77 294.773C1541.09 294.773 1541.39 294.727 1541.65 294.636C1541.92 294.542 1542.14 294.402 1542.34 294.216C1542.53 294.03 1542.68 293.801 1542.78 293.528L1544.39 293.818C1544.26 294.292 1544.03 294.706 1543.7 295.062C1543.37 295.415 1542.95 295.689 1542.45 295.886C1541.96 296.08 1541.39 296.176 1540.75 296.176ZM1546.34 296V284.364H1548.04V288.688H1548.14C1548.24 288.506 1548.38 288.295 1548.57 288.057C1548.75 287.818 1549.01 287.61 1549.34 287.432C1549.67 287.25 1550.11 287.159 1550.65 287.159C1551.35 287.159 1551.98 287.337 1552.54 287.693C1553.09 288.049 1553.52 288.562 1553.84 289.233C1554.15 289.903 1554.31 290.71 1554.31 291.653C1554.31 292.597 1554.16 293.405 1553.84 294.08C1553.53 294.75 1553.1 295.267 1552.55 295.631C1552 295.991 1551.37 296.17 1550.67 296.17C1550.14 296.17 1549.7 296.081 1549.36 295.903C1549.03 295.725 1548.77 295.517 1548.58 295.278C1548.39 295.04 1548.25 294.828 1548.14 294.642H1548V296H1546.34ZM1548.01 291.636C1548.01 292.25 1548.1 292.788 1548.27 293.25C1548.45 293.712 1548.71 294.074 1549.05 294.335C1549.38 294.593 1549.8 294.722 1550.29 294.722C1550.79 294.722 1551.22 294.587 1551.56 294.318C1551.9 294.045 1552.16 293.676 1552.33 293.21C1552.51 292.744 1552.6 292.22 1552.6 291.636C1552.6 291.061 1552.51 290.544 1552.34 290.085C1552.17 289.627 1551.91 289.265 1551.56 289C1551.22 288.735 1550.8 288.602 1550.29 288.602C1549.79 288.602 1549.38 288.729 1549.04 288.983C1548.7 289.237 1548.44 289.591 1548.27 290.045C1548.09 290.5 1548.01 291.03 1548.01 291.636ZM1564.06 288.04C1563.95 287.695 1563.8 287.386 1563.61 287.114C1563.43 286.837 1563.21 286.602 1562.96 286.409C1562.71 286.212 1562.42 286.062 1562.09 285.96C1561.77 285.858 1561.41 285.807 1561.03 285.807C1560.37 285.807 1559.78 285.975 1559.26 286.312C1558.73 286.65 1558.31 287.144 1558.01 287.795C1557.7 288.443 1557.55 289.237 1557.55 290.176C1557.55 291.119 1557.7 291.917 1558.01 292.568C1558.32 293.22 1558.74 293.714 1559.27 294.051C1559.81 294.388 1560.41 294.557 1561.1 294.557C1561.73 294.557 1562.28 294.428 1562.75 294.17C1563.22 293.913 1563.59 293.549 1563.85 293.08C1564.11 292.606 1564.24 292.049 1564.24 291.409L1564.69 291.494H1561.36V290.045H1565.94V291.369C1565.94 292.347 1565.73 293.195 1565.31 293.915C1564.9 294.631 1564.33 295.184 1563.6 295.574C1562.87 295.964 1562.04 296.159 1561.1 296.159C1560.04 296.159 1559.12 295.917 1558.32 295.432C1557.53 294.947 1556.91 294.259 1556.47 293.369C1556.03 292.475 1555.81 291.415 1555.81 290.188C1555.81 289.259 1555.94 288.426 1556.19 287.688C1556.45 286.949 1556.81 286.322 1557.28 285.807C1557.75 285.288 1558.3 284.892 1558.93 284.619C1559.57 284.343 1560.26 284.205 1561.02 284.205C1561.65 284.205 1562.23 284.297 1562.77 284.483C1563.32 284.669 1563.8 284.932 1564.23 285.273C1564.66 285.614 1565.01 286.019 1565.29 286.489C1565.57 286.955 1565.76 287.472 1565.86 288.04H1564.06ZM1567.99 296V284.364H1572.14C1573.04 284.364 1573.79 284.528 1574.39 284.858C1574.98 285.187 1575.43 285.638 1575.72 286.21C1576.02 286.778 1576.17 287.419 1576.17 288.131C1576.17 288.847 1576.02 289.491 1575.72 290.062C1575.42 290.631 1574.97 291.081 1574.38 291.415C1573.78 291.744 1573.03 291.909 1572.13 291.909H1569.28V290.42H1571.97C1572.55 290.42 1573.01 290.322 1573.37 290.125C1573.72 289.924 1573.98 289.652 1574.15 289.307C1574.32 288.962 1574.4 288.57 1574.4 288.131C1574.4 287.691 1574.32 287.301 1574.15 286.96C1573.98 286.619 1573.72 286.352 1573.36 286.159C1573 285.966 1572.53 285.869 1571.95 285.869H1569.75V296H1567.99ZM1585.53 284.364H1587.29V292.017C1587.29 292.831 1587.1 293.553 1586.72 294.182C1586.34 294.807 1585.8 295.299 1585.11 295.659C1584.41 296.015 1583.6 296.193 1582.67 296.193C1581.74 296.193 1580.93 296.015 1580.24 295.659C1579.54 295.299 1579 294.807 1578.62 294.182C1578.24 293.553 1578.05 292.831 1578.05 292.017V284.364H1579.8V291.875C1579.8 292.402 1579.92 292.869 1580.15 293.278C1580.39 293.688 1580.72 294.009 1581.15 294.244C1581.57 294.475 1582.08 294.591 1582.67 294.591C1583.26 294.591 1583.77 294.475 1584.2 294.244C1584.63 294.009 1584.96 293.688 1585.18 293.278C1585.42 292.869 1585.53 292.402 1585.53 291.875V284.364Z" fill="#1E1E1E"/>
</g>
<g id="Connector line">
<path id="Shape_9" d="M346.914 302.081C347.695 301.3 347.695 300.034 346.914 299.252L334.186 286.525C333.405 285.744 332.139 285.744 331.358 286.525C330.577 287.306 330.577 288.572 331.358 289.353L342.672 300.667L331.358 311.98C330.577 312.761 330.577 314.028 331.358 314.809C332.139 315.59 333.405 315.59 334.186 314.809L346.914 302.081ZM234 300.667V302.667H345.5V300.667V298.667H234V300.667Z" fill="#757575"/>
</g>
<g id="Connector line_2">
<path id="Shape_10" d="M698.914 515.414C699.695 514.633 699.695 513.367 698.914 512.586L686.186 499.858C685.405 499.077 684.139 499.077 683.358 499.858C682.577 500.639 682.577 501.905 683.358 502.686L694.672 514L683.358 525.314C682.577 526.095 682.577 527.361 683.358 528.142C684.139 528.923 685.405 528.923 686.186 528.142L698.914 515.414ZM586 322V324H602V322V320H586V322ZM626 346H624V490H626H628V346H626ZM650 514V516H697.5V514V512H650V514ZM626 490H624C624 504.359 635.641 516 650 516V514V512C637.85 512 628 502.15 628 490H626ZM602 322V324C614.15 324 624 333.85 624 346H626H628C628 331.641 616.359 320 602 320V322Z" fill="#757575"/>
</g>
<g id="Connector line_3">
<path id="Shape_11" d="M698.914 179.414C699.695 178.633 699.695 177.367 698.914 176.586L686.186 163.858C685.405 163.077 684.139 163.077 683.358 163.858C682.577 164.639 682.577 165.905 683.358 166.686L694.672 178L683.358 189.314C682.577 190.095 682.577 191.361 683.358 192.142C684.139 192.923 685.405 192.923 686.186 192.142L698.914 179.414ZM586 279.333V281.333H602V279.333V277.333H586V279.333ZM626 255.333H628V202H626H624V255.333H626ZM650 178V180H697.5V178V176H650V178ZM626 202H628C628 189.85 637.85 180 650 180V178V176C635.641 176 624 187.641 624 202H626ZM602 279.333V281.333C616.359 281.333 628 269.693 628 255.333H626H624C624 267.484 614.15 277.333 602 277.333V279.333Z" fill="#757575"/>
</g>
<g id="Connector line_4">
<path id="Shape_12" d="M1050.91 515.414C1051.7 514.633 1051.7 513.367 1050.91 512.586L1038.19 499.858C1037.41 499.077 1036.14 499.077 1035.36 499.858C1034.58 500.639 1034.58 501.905 1035.36 502.686L1046.67 514L1035.36 525.314C1034.58 526.095 1034.58 527.361 1035.36 528.142C1036.14 528.923 1037.41 528.923 1038.19 528.142L1050.91 515.414ZM938 514V516H1049.5V514V512H938V514Z" fill="#757575"/>
</g>
<g id="Connector line_5">
<path id="Shape_13" d="M1050.91 67.4142C1051.7 66.6332 1051.7 65.3668 1050.91 64.5858L1038.19 51.8579C1037.41 51.0768 1036.14 51.0768 1035.36 51.8579C1034.58 52.6389 1034.58 53.9052 1035.36 54.6863L1046.67 66L1035.36 77.3137C1034.58 78.0948 1034.58 79.3611 1035.36 80.1421C1036.14 80.9232 1037.41 80.9232 1038.19 80.1421L1050.91 67.4142ZM938 156.667V158.667H954V156.667V154.667H938V156.667ZM978 132.667H980V90H978H976V132.667H978ZM1002 66V68H1049.5V66V64H1002V66ZM978 90H980C980 77.8497 989.85 68 1002 68V66V64C987.641 64 976 75.6406 976 90H978ZM954 156.667V158.667C968.359 158.667 980 147.026 980 132.667H978H976C976 144.817 966.15 154.667 954 154.667V156.667Z" fill="#757575"/>
</g>
<g id="Connector line_6">
<path id="Shape_14" d="M1050.91 291.414C1051.7 290.633 1051.7 289.367 1050.91 288.586L1038.19 275.858C1037.41 275.077 1036.14 275.077 1035.36 275.858C1034.58 276.639 1034.58 277.905 1035.36 278.686L1046.67 290L1035.36 301.314C1034.58 302.095 1034.58 303.361 1035.36 304.142C1036.14 304.923 1037.41 304.923 1038.19 304.142L1050.91 291.414ZM938 199.333V201.333H954V199.333V197.333H938V199.333ZM978 223.333H976V266H978H980V223.333H978ZM1002 290V292H1049.5V290V288H1002V290ZM978 266H976C976 280.359 987.641 292 1002 292V290V288C989.85 288 980 278.15 980 266H978ZM954 199.333V201.333C966.15 201.333 976 211.183 976 223.333H978H980C980 208.974 968.359 197.333 954 197.333V199.333Z" fill="#757575"/>
</g>
<g id="Connector line_7">
<path id="Shape_15" d="M1402.91 291.414C1403.7 290.633 1403.7 289.367 1402.91 288.586L1390.19 275.858C1389.41 275.077 1388.14 275.077 1387.36 275.858C1386.58 276.639 1386.58 277.905 1387.36 278.686L1398.67 290L1387.36 301.314C1386.58 302.095 1386.58 303.361 1387.36 304.142C1388.14 304.923 1389.41 304.923 1390.19 304.142L1402.91 291.414ZM1290 290V292H1401.5V290V288H1290V290Z" fill="#757575"/>
</g>
</svg>
